mtllib worldforge_building_43027.mtl
# WorldForge 0.2.0
# building seed 43027
o foundation
v -2.4749999999999996 -1.9000000000000001 0
v 2.4749999999999996 -1.9000000000000001 0
v 2.4749999999999996 1.9000000000000001 0
v -2.4749999999999996 1.9000000000000001 0
v -2.4749999999999996 -1.9000000000000001 0.28
v 2.4749999999999996 -1.9000000000000001 0.28
v 2.4749999999999996 1.9000000000000001 0.28
v -2.4749999999999996 1.9000000000000001 0.28
usemtl stone
f 1 3 2
f 1 4 3
f 5 6 7
f 5 7 8
f 1 2 6
f 1 6 5
f 2 3 7
f 2 7 6
f 3 4 8
f 3 8 7
f 4 1 5
f 4 5 8
o plinth
v -2.4349999999999996 -1.86 0.28
v 2.4349999999999996 -1.86 0.28
v 2.4349999999999996 1.86 0.28
v -2.4349999999999996 1.86 0.28
v -2.4349999999999996 -1.86 0.38
v 2.4349999999999996 -1.86 0.38
v 2.4349999999999996 1.86 0.38
v -2.4349999999999996 1.86 0.38
usemtl stoneLight
f 9 11 10
f 9 12 11
f 13 14 15
f 13 15 16
f 9 10 14
f 9 14 13
f 10 11 15
f 10 15 14
f 11 12 16
f 11 16 15
f 12 9 13
f 12 13 16
o walls
v -2.425 -1.85 0.28
v 2.425 -1.85 0.28
v 2.425 1.85 0.28
v -2.425 1.85 0.28
v -2.425 -1.85 2.7300000000000004
v 2.425 -1.85 2.7300000000000004
v 2.425 1.85 2.7300000000000004
v -2.425 1.85 2.7300000000000004
usemtl wall
f 17 19 18
f 17 20 19
f 21 22 23
f 21 23 24
f 17 18 22
f 17 22 21
f 18 19 23
f 18 23 22
f 19 20 24
f 19 24 23
f 20 17 21
f 20 21 24
o rightWallTone
v 2.4259999999999997 -1.79 0.33000000000000007
v 2.456 -1.79 0.33000000000000007
v 2.456 1.79 0.33000000000000007
v 2.4259999999999997 1.79 0.33000000000000007
v 2.4259999999999997 -1.79 2.68
v 2.456 -1.79 2.68
v 2.456 1.79 2.68
v 2.4259999999999997 1.79 2.68
usemtl wallDark
f 25 27 26
f 25 28 27
f 29 30 31
f 29 31 32
f 25 26 30
f 25 30 29
f 26 27 31
f 26 31 30
f 27 28 32
f 27 32 31
f 28 25 29
f 28 29 32
o leftWallTone
v -2.456 -1.79 0.33000000000000007
v -2.4259999999999997 -1.79 0.33000000000000007
v -2.4259999999999997 1.79 0.33000000000000007
v -2.456 1.79 0.33000000000000007
v -2.456 -1.79 2.68
v -2.4259999999999997 -1.79 2.68
v -2.4259999999999997 1.79 2.68
v -2.456 1.79 2.68
usemtl wallDark
f 33 35 34
f 33 36 35
f 37 38 39
f 37 39 40
f 33 34 38
f 33 38 37
f 34 35 39
f 34 39 38
f 35 36 40
f 35 40 39
f 36 33 37
f 36 37 40
o frontPost_-2.08
v -2.155 -1.9405000000000001 0.31000000000000005
v -2.015 -1.9405000000000001 0.31000000000000005
v -2.015 -1.8555000000000001 0.31000000000000005
v -2.155 -1.8555000000000001 0.31000000000000005
v -2.155 -1.9405000000000001 2.7
v -2.015 -1.9405000000000001 2.7
v -2.015 -1.8555000000000001 2.7
v -2.155 -1.8555000000000001 2.7
usemtl timber
f 41 43 42
f 41 44 43
f 45 46 47
f 45 47 48
f 41 42 46
f 41 46 45
f 42 43 47
f 42 47 46
f 43 44 48
f 43 48 47
f 44 41 45
f 44 45 48
o backPost_-2.08
v -2.155 1.8555000000000001 0.31000000000000005
v -2.015 1.8555000000000001 0.31000000000000005
v -2.015 1.9405000000000001 0.31000000000000005
v -2.155 1.9405000000000001 0.31000000000000005
v -2.155 1.8555000000000001 2.7
v -2.015 1.8555000000000001 2.7
v -2.015 1.9405000000000001 2.7
v -2.155 1.9405000000000001 2.7
usemtl timber
f 49 51 50
f 49 52 51
f 53 54 55
f 53 55 56
f 49 50 54
f 49 54 53
f 50 51 55
f 50 55 54
f 51 52 56
f 51 56 55
f 52 49 53
f 52 53 56
o frontPost_-0.87
v -0.9425000000000001 -1.9405000000000001 0.31000000000000005
v -0.8025 -1.9405000000000001 0.31000000000000005
v -0.8025 -1.8555000000000001 0.31000000000000005
v -0.9425000000000001 -1.8555000000000001 0.31000000000000005
v -0.9425000000000001 -1.9405000000000001 2.7
v -0.8025 -1.9405000000000001 2.7
v -0.8025 -1.8555000000000001 2.7
v -0.9425000000000001 -1.8555000000000001 2.7
usemtl timber
f 57 59 58
f 57 60 59
f 61 62 63
f 61 63 64
f 57 58 62
f 57 62 61
f 58 59 63
f 58 63 62
f 59 60 64
f 59 64 63
f 60 57 61
f 60 61 64
o backPost_-0.87
v -0.9425000000000001 1.8555000000000001 0.31000000000000005
v -0.8025 1.8555000000000001 0.31000000000000005
v -0.8025 1.9405000000000001 0.31000000000000005
v -0.9425000000000001 1.9405000000000001 0.31000000000000005
v -0.9425000000000001 1.8555000000000001 2.7
v -0.8025 1.8555000000000001 2.7
v -0.8025 1.9405000000000001 2.7
v -0.9425000000000001 1.9405000000000001 2.7
usemtl timber
f 65 67 66
f 65 68 67
f 69 70 71
f 69 71 72
f 65 66 70
f 65 70 69
f 66 67 71
f 66 71 70
f 67 68 72
f 67 72 71
f 68 65 69
f 68 69 72
o frontPost_0.34
v 0.26999999999999985 -1.9405000000000001 0.31000000000000005
v 0.40999999999999986 -1.9405000000000001 0.31000000000000005
v 0.40999999999999986 -1.8555000000000001 0.31000000000000005
v 0.26999999999999985 -1.8555000000000001 0.31000000000000005
v 0.26999999999999985 -1.9405000000000001 2.7
v 0.40999999999999986 -1.9405000000000001 2.7
v 0.40999999999999986 -1.8555000000000001 2.7
v 0.26999999999999985 -1.8555000000000001 2.7
usemtl timber
f 73 75 74
f 73 76 75
f 77 78 79
f 77 79 80
f 73 74 78
f 73 78 77
f 74 75 79
f 74 79 78
f 75 76 80
f 75 80 79
f 76 73 77
f 76 77 80
o backPost_0.34
v 0.26999999999999985 1.8555000000000001 0.31000000000000005
v 0.40999999999999986 1.8555000000000001 0.31000000000000005
v 0.40999999999999986 1.9405000000000001 0.31000000000000005
v 0.26999999999999985 1.9405000000000001 0.31000000000000005
v 0.26999999999999985 1.8555000000000001 2.7
v 0.40999999999999986 1.8555000000000001 2.7
v 0.40999999999999986 1.9405000000000001 2.7
v 0.26999999999999985 1.9405000000000001 2.7
usemtl timber
f 81 83 82
f 81 84 83
f 85 86 87
f 85 87 88
f 81 82 86
f 81 86 85
f 82 83 87
f 82 87 86
f 83 84 88
f 83 88 87
f 84 81 85
f 84 85 88
o frontPost_1.55
v 1.4824999999999997 -1.9405000000000001 0.31000000000000005
v 1.6224999999999998 -1.9405000000000001 0.31000000000000005
v 1.6224999999999998 -1.8555000000000001 0.31000000000000005
v 1.4824999999999997 -1.8555000000000001 0.31000000000000005
v 1.4824999999999997 -1.9405000000000001 2.7
v 1.6224999999999998 -1.9405000000000001 2.7
v 1.6224999999999998 -1.8555000000000001 2.7
v 1.4824999999999997 -1.8555000000000001 2.7
usemtl timber
f 89 91 90
f 89 92 91
f 93 94 95
f 93 95 96
f 89 90 94
f 89 94 93
f 90 91 95
f 90 95 94
f 91 92 96
f 91 96 95
f 92 89 93
f 92 93 96
o backPost_1.55
v 1.4824999999999997 1.8555000000000001 0.31000000000000005
v 1.6224999999999998 1.8555000000000001 0.31000000000000005
v 1.6224999999999998 1.9405000000000001 0.31000000000000005
v 1.4824999999999997 1.9405000000000001 0.31000000000000005
v 1.4824999999999997 1.8555000000000001 2.7
v 1.6224999999999998 1.8555000000000001 2.7
v 1.6224999999999998 1.9405000000000001 2.7
v 1.4824999999999997 1.9405000000000001 2.7
usemtl timber
f 97 99 98
f 97 100 99
f 101 102 103
f 101 103 104
f 97 98 102
f 97 102 101
f 98 99 103
f 98 103 102
f 99 100 104
f 99 104 103
f 100 97 101
f 100 101 104
o frontBeam_1
v -2.3649999999999998 -1.9405000000000001 2.4800000000000004
v 2.3649999999999998 -1.9405000000000001 2.4800000000000004
v 2.3649999999999998 -1.8555000000000001 2.4800000000000004
v -2.3649999999999998 -1.8555000000000001 2.4800000000000004
v -2.3649999999999998 -1.9405000000000001 2.62
v 2.3649999999999998 -1.9405000000000001 2.62
v 2.3649999999999998 -1.8555000000000001 2.62
v -2.3649999999999998 -1.8555000000000001 2.62
usemtl timber
f 105 107 106
f 105 108 107
f 109 110 111
f 109 111 112
f 105 106 110
f 105 110 109
f 106 107 111
f 106 111 110
f 107 108 112
f 107 112 111
f 108 105 109
f 108 109 112
o backBeam_1
v -2.3649999999999998 1.8555000000000001 2.4800000000000004
v 2.3649999999999998 1.8555000000000001 2.4800000000000004
v 2.3649999999999998 1.9405000000000001 2.4800000000000004
v -2.3649999999999998 1.9405000000000001 2.4800000000000004
v -2.3649999999999998 1.8555000000000001 2.62
v 2.3649999999999998 1.8555000000000001 2.62
v 2.3649999999999998 1.9405000000000001 2.62
v -2.3649999999999998 1.9405000000000001 2.62
usemtl timber
f 113 115 114
f 113 116 115
f 117 118 119
f 117 119 120
f 113 114 118
f 113 118 117
f 114 115 119
f 114 119 118
f 115 116 120
f 115 120 119
f 116 113 117
f 116 117 120
o rightPost_-1.35
v 2.4305 -1.4200000000000002 0.31000000000000005
v 2.5155 -1.4200000000000002 0.31000000000000005
v 2.5155 -1.28 0.31000000000000005
v 2.4305 -1.28 0.31000000000000005
v 2.4305 -1.4200000000000002 2.7
v 2.5155 -1.4200000000000002 2.7
v 2.5155 -1.28 2.7
v 2.4305 -1.28 2.7
usemtl timber
f 121 123 122
f 121 124 123
f 125 126 127
f 125 127 128
f 121 122 126
f 121 126 125
f 122 123 127
f 122 127 126
f 123 124 128
f 123 128 127
f 124 121 125
f 124 125 128
o leftPost_-1.35
v -2.5155 -1.4200000000000002 0.31000000000000005
v -2.4305 -1.4200000000000002 0.31000000000000005
v -2.4305 -1.28 0.31000000000000005
v -2.5155 -1.28 0.31000000000000005
v -2.5155 -1.4200000000000002 2.7
v -2.4305 -1.4200000000000002 2.7
v -2.4305 -1.28 2.7
v -2.5155 -1.28 2.7
usemtl timber
f 129 131 130
f 129 132 131
f 133 134 135
f 133 135 136
f 129 130 134
f 129 134 133
f 130 131 135
f 130 135 134
f 131 132 136
f 131 136 135
f 132 129 133
f 132 133 136
o rightPost_-0.15
v 2.4305 -0.22000000000000014 0.31000000000000005
v 2.5155 -0.22000000000000014 0.31000000000000005
v 2.5155 -0.08000000000000013 0.31000000000000005
v 2.4305 -0.08000000000000013 0.31000000000000005
v 2.4305 -0.22000000000000014 2.7
v 2.5155 -0.22000000000000014 2.7
v 2.5155 -0.08000000000000013 2.7
v 2.4305 -0.08000000000000013 2.7
usemtl timber
f 137 139 138
f 137 140 139
f 141 142 143
f 141 143 144
f 137 138 142
f 137 142 141
f 138 139 143
f 138 143 142
f 139 140 144
f 139 144 143
f 140 137 141
f 140 141 144
o leftPost_-0.15
v -2.5155 -0.22000000000000014 0.31000000000000005
v -2.4305 -0.22000000000000014 0.31000000000000005
v -2.4305 -0.08000000000000013 0.31000000000000005
v -2.5155 -0.08000000000000013 0.31000000000000005
v -2.5155 -0.22000000000000014 2.7
v -2.4305 -0.22000000000000014 2.7
v -2.4305 -0.08000000000000013 2.7
v -2.5155 -0.08000000000000013 2.7
usemtl timber
f 145 147 146
f 145 148 147
f 149 150 151
f 149 151 152
f 145 146 150
f 145 150 149
f 146 147 151
f 146 151 150
f 147 148 152
f 147 152 151
f 148 145 149
f 148 149 152
o rightPost_1.05
v 2.4305 0.9799999999999998 0.31000000000000005
v 2.5155 0.9799999999999998 0.31000000000000005
v 2.5155 1.1199999999999999 0.31000000000000005
v 2.4305 1.1199999999999999 0.31000000000000005
v 2.4305 0.9799999999999998 2.7
v 2.5155 0.9799999999999998 2.7
v 2.5155 1.1199999999999999 2.7
v 2.4305 1.1199999999999999 2.7
usemtl timber
f 153 155 154
f 153 156 155
f 157 158 159
f 157 159 160
f 153 154 158
f 153 158 157
f 154 155 159
f 154 159 158
f 155 156 160
f 155 160 159
f 156 153 157
f 156 157 160
o leftPost_1.05
v -2.5155 0.9799999999999998 0.31000000000000005
v -2.4305 0.9799999999999998 0.31000000000000005
v -2.4305 1.1199999999999999 0.31000000000000005
v -2.5155 1.1199999999999999 0.31000000000000005
v -2.5155 0.9799999999999998 2.7
v -2.4305 0.9799999999999998 2.7
v -2.4305 1.1199999999999999 2.7
v -2.5155 1.1199999999999999 2.7
usemtl timber
f 161 163 162
f 161 164 163
f 165 166 167
f 165 167 168
f 161 162 166
f 161 166 165
f 162 163 167
f 162 167 166
f 163 164 168
f 163 168 167
f 164 161 165
f 164 165 168
o rightBeam_1
v 2.4305 -1.76 2.4800000000000004
v 2.5155 -1.76 2.4800000000000004
v 2.5155 1.76 2.4800000000000004
v 2.4305 1.76 2.4800000000000004
v 2.4305 -1.76 2.62
v 2.5155 -1.76 2.62
v 2.5155 1.76 2.62
v 2.4305 1.76 2.62
usemtl timber
f 169 171 170
f 169 172 171
f 173 174 175
f 173 175 176
f 169 170 174
f 169 174 173
f 170 171 175
f 170 175 174
f 171 172 176
f 171 176 175
f 172 169 173
f 172 173 176
o leftBeam_1
v -2.5155 -1.76 2.4800000000000004
v -2.4305 -1.76 2.4800000000000004
v -2.4305 1.76 2.4800000000000004
v -2.5155 1.76 2.4800000000000004
v -2.5155 -1.76 2.62
v -2.4305 -1.76 2.62
v -2.4305 1.76 2.62
v -2.5155 1.76 2.62
usemtl timber
f 177 179 178
f 177 180 179
f 181 182 183
f 181 183 184
f 177 178 182
f 177 182 181
f 178 179 183
f 178 183 182
f 179 180 184
f 179 184 183
f 180 177 181
f 180 181 184
o mainRoof
v -2.735 -2.23 2.7100000000000004
v 2.735 -2.23 2.7100000000000004
v -2.735 2.23 2.7100000000000004
v 2.735 2.23 2.7100000000000004
v -2.735 0 4.648509425330185
v 2.735 0 4.648509425330185
usemtl roof
f 185 186 190
f 185 190 189
f 187 189 190
f 187 190 188
f 185 189 187
f 186 188 190
o ridgeCap
v -2.775 -0.05 4.638509425330185
v 2.775 -0.05 4.638509425330185
v 2.775 0.05 4.638509425330185
v -2.775 0.05 4.638509425330185
v -2.775 -0.05 4.718509425330185
v 2.775 -0.05 4.718509425330185
v 2.775 0.05 4.718509425330185
v -2.775 0.05 4.718509425330185
usemtl roofDark
f 191 193 192
f 191 194 193
f 195 196 197
f 195 197 198
f 191 192 196
f 191 196 195
f 192 193 197
f 192 197 196
f 193 194 198
f 193 198 197
f 194 191 195
f 194 195 198
o eaveTrimFront
v -2.8249999999999997 -2.5799999999999996 2.6600000000000006
v 2.8249999999999997 -2.5799999999999996 2.6600000000000006
v 2.8249999999999997 -2.48 2.6600000000000006
v -2.8249999999999997 -2.48 2.6600000000000006
v -2.8249999999999997 -2.5799999999999996 2.7400000000000007
v 2.8249999999999997 -2.5799999999999996 2.7400000000000007
v 2.8249999999999997 -2.48 2.7400000000000007
v -2.8249999999999997 -2.48 2.7400000000000007
usemtl timber
f 199 201 200
f 199 202 201
f 203 204 205
f 203 205 206
f 199 200 204
f 199 204 203
f 200 201 205
f 200 205 204
f 201 202 206
f 201 206 205
f 202 199 203
f 202 203 206
o eaveTrimBack
v -2.8249999999999997 2.48 2.6600000000000006
v 2.8249999999999997 2.48 2.6600000000000006
v 2.8249999999999997 2.5799999999999996 2.6600000000000006
v -2.8249999999999997 2.5799999999999996 2.6600000000000006
v -2.8249999999999997 2.48 2.7400000000000007
v 2.8249999999999997 2.48 2.7400000000000007
v 2.8249999999999997 2.5799999999999996 2.7400000000000007
v -2.8249999999999997 2.5799999999999996 2.7400000000000007
usemtl timber
f 207 209 208
f 207 210 209
f 211 212 213
f 211 213 214
f 207 208 212
f 207 212 211
f 208 209 213
f 208 213 212
f 209 210 214
f 209 214 213
f 210 207 211
f 210 211 214
o door
v -0.8695610460266471 -1.9405000000000001 0.30000000000000004
v 0.15043895397335294 -1.9405000000000001 0.30000000000000004
v 0.15043895397335294 -1.8555000000000001 0.30000000000000004
v -0.8695610460266471 -1.8555000000000001 0.30000000000000004
v -0.8695610460266471 -1.9405000000000001 2.3200000000000003
v 0.15043895397335294 -1.9405000000000001 2.3200000000000003
v 0.15043895397335294 -1.8555000000000001 2.3200000000000003
v -0.8695610460266471 -1.8555000000000001 2.3200000000000003
usemtl trim
f 215 217 216
f 215 218 217
f 219 220 221
f 219 221 222
f 215 216 220
f 215 220 219
f 216 217 221
f 216 221 220
f 217 218 222
f 217 222 221
f 218 215 219
f 218 219 222
o doorLintel
v -0.939561046026647 -1.9420000000000002 2.23
v 0.2204389539733529 -1.9420000000000002 2.23
v 0.2204389539733529 -1.862 2.23
v -0.939561046026647 -1.862 2.23
v -0.939561046026647 -1.9420000000000002 2.3699999999999997
v 0.2204389539733529 -1.9420000000000002 2.3699999999999997
v 0.2204389539733529 -1.862 2.3699999999999997
v -0.939561046026647 -1.862 2.3699999999999997
usemtl timber
f 223 225 224
f 223 226 225
f 227 228 229
f 227 229 230
f 223 224 228
f 223 228 227
f 224 225 229
f 224 229 228
f 225 226 230
f 225 230 229
f 226 223 227
f 226 227 230
o doorJambL
v -0.9395610460266471 -1.937 0.29000000000000004
v -0.839561046026647 -1.937 0.29000000000000004
v -0.839561046026647 -1.8670000000000002 0.29000000000000004
v -0.9395610460266471 -1.8670000000000002 0.29000000000000004
v -0.9395610460266471 -1.937 2.33
v -0.839561046026647 -1.937 2.33
v -0.839561046026647 -1.8670000000000002 2.33
v -0.9395610460266471 -1.8670000000000002 2.33
usemtl timber
f 231 233 232
f 231 234 233
f 235 236 237
f 235 237 238
f 231 232 236
f 231 236 235
f 232 233 237
f 232 237 236
f 233 234 238
f 233 238 237
f 234 231 235
f 234 235 238
o doorJambR
v 0.12043895397335296 -1.937 0.29000000000000004
v 0.22043895397335295 -1.937 0.29000000000000004
v 0.22043895397335295 -1.8670000000000002 0.29000000000000004
v 0.12043895397335296 -1.8670000000000002 0.29000000000000004
v 0.12043895397335296 -1.937 2.33
v 0.22043895397335295 -1.937 2.33
v 0.22043895397335295 -1.8670000000000002 2.33
v 0.12043895397335296 -1.8670000000000002 2.33
usemtl timber
f 239 241 240
f 239 242 241
f 243 244 245
f 243 245 246
f 239 240 244
f 239 244 243
f 240 241 245
f 240 245 244
f 241 242 246
f 241 246 245
f 242 239 243
f 242 243 246
o doorKnob
v -0.13956104602664707 -1.9580000000000002 1.24
v -0.05956104602664706 -1.9580000000000002 1.24
v -0.05956104602664706 -1.9380000000000002 1.24
v -0.13956104602664707 -1.9380000000000002 1.24
v -0.13956104602664707 -1.9580000000000002 1.32
v -0.05956104602664706 -1.9580000000000002 1.32
v -0.05956104602664706 -1.9380000000000002 1.32
v -0.13956104602664707 -1.9380000000000002 1.32
usemtl trim
f 247 249 248
f 247 250 249
f 251 252 253
f 251 253 254
f 247 248 252
f 247 252 251
f 248 249 253
f 248 253 252
f 249 250 254
f 249 254 253
f 250 247 251
f 250 251 254
o doorBrace
v -0.9113058406786685 -1.9428668082817557 1.29
v 0.18319874112715984 -2.0526835665932666 1.29
v 0.19218374862537435 -1.9631331917182444 1.29
v -0.902320833180454 -1.8533164334067334 1.29
v -0.9113058406786685 -1.9428668082817557 1.4300000000000002
v 0.18319874112715984 -2.0526835665932666 1.4300000000000002
v 0.19218374862537435 -1.9631331917182444 1.4300000000000002
v -0.902320833180454 -1.8533164334067334 1.4300000000000002
usemtl board
f 255 257 256
f 255 258 257
f 259 260 261
f 259 261 262
f 255 256 260
f 255 260 259
f 256 257 261
f 256 261 260
f 257 258 262
f 257 262 261
f 258 255 259
f 258 259 262
o fwin_0_glass
v -2.0099748463625553 -1.923 1.4546463429383936
v -1.4000251536374444 -1.923 1.4546463429383936
v -1.4000251536374444 -1.8730000000000002 1.4546463429383936
v -2.0099748463625553 -1.8730000000000002 1.4546463429383936
v -2.0099748463625553 -1.923 2.2053536570616066
v -1.4000251536374444 -1.923 2.2053536570616066
v -1.4000251536374444 -1.8730000000000002 2.2053536570616066
v -2.0099748463625553 -1.8730000000000002 2.2053536570616066
usemtl glass
f 263 265 264
f 263 266 265
f 267 268 269
f 267 269 270
f 263 264 268
f 263 268 267
f 264 265 269
f 264 269 268
f 265 266 270
f 265 270 269
f 266 263 267
f 266 267 270
o fwin_0_frameTop
v -2.079974846362555 -1.945 2.174074185639806
v -1.3300251536374446 -1.945 2.174074185639806
v -1.3300251536374446 -1.8750000000000002 2.174074185639806
v -2.079974846362555 -1.8750000000000002 2.174074185639806
v -2.079974846362555 -1.945 2.2366331284834073
v -1.3300251536374446 -1.945 2.2366331284834073
v -1.3300251536374446 -1.8750000000000002 2.2366331284834073
v -2.079974846362555 -1.8750000000000002 2.2366331284834073
usemtl trim
f 271 273 272
f 271 274 273
f 275 276 277
f 275 277 278
f 271 272 276
f 271 276 275
f 272 273 277
f 272 277 276
f 273 274 278
f 273 278 277
f 274 271 275
f 274 275 278
o fwin_0_frameBottom
v -2.099974846362555 -1.958 1.423366871516593
v -1.3100251536374445 -1.958 1.423366871516593
v -1.3100251536374445 -1.868 1.423366871516593
v -2.099974846362555 -1.868 1.423366871516593
v -2.099974846362555 -1.958 1.485925814360194
v -1.3100251536374445 -1.958 1.485925814360194
v -1.3100251536374445 -1.868 1.485925814360194
v -2.099974846362555 -1.868 1.485925814360194
usemtl stoneLight
f 279 281 280
f 279 282 281
f 283 284 285
f 283 285 286
f 279 280 284
f 279 284 283
f 280 281 285
f 280 285 284
f 281 282 286
f 281 286 285
f 282 279 283
f 282 283 286
o fwin_0_frameL
v -2.041254317784356 -1.945 1.3946463429383935
v -1.9786953749407548 -1.945 1.3946463429383935
v -1.9786953749407548 -1.8750000000000002 1.3946463429383935
v -2.041254317784356 -1.8750000000000002 1.3946463429383935
v -2.041254317784356 -1.945 2.2653536570616066
v -1.9786953749407548 -1.945 2.2653536570616066
v -1.9786953749407548 -1.8750000000000002 2.2653536570616066
v -2.041254317784356 -1.8750000000000002 2.2653536570616066
usemtl trim
f 287 289 288
f 287 290 289
f 291 292 293
f 291 293 294
f 287 288 292
f 287 292 291
f 288 289 293
f 288 293 292
f 289 290 294
f 289 294 293
f 290 287 291
f 290 291 294
o fwin_0_frameR
v -1.431304625059245 -1.945 1.3946463429383935
v -1.3687456822156439 -1.945 1.3946463429383935
v -1.3687456822156439 -1.8750000000000002 1.3946463429383935
v -1.431304625059245 -1.8750000000000002 1.3946463429383935
v -1.431304625059245 -1.945 2.2653536570616066
v -1.3687456822156439 -1.945 2.2653536570616066
v -1.3687456822156439 -1.8750000000000002 2.2653536570616066
v -1.431304625059245 -1.8750000000000002 2.2653536570616066
usemtl trim
f 295 297 296
f 295 298 297
f 299 300 301
f 299 301 302
f 295 296 300
f 295 300 299
f 296 297 301
f 296 301 300
f 297 298 302
f 297 302 301
f 298 295 299
f 298 299 302
o fwin_0_mullionV
v -1.7293979877090042 -1.941 1.5146463429383934
v -1.6806020122909955 -1.941 1.5146463429383934
v -1.6806020122909955 -1.9110000000000003 1.5146463429383934
v -1.7293979877090042 -1.9110000000000003 1.5146463429383934
v -1.7293979877090042 -1.941 2.1453536570616065
v -1.6806020122909955 -1.941 2.1453536570616065
v -1.6806020122909955 -1.9110000000000003 2.1453536570616065
v -1.7293979877090042 -1.9110000000000003 2.1453536570616065
usemtl trim
f 303 305 304
f 303 306 305
f 307 308 309
f 307 309 310
f 303 304 308
f 303 308 307
f 304 305 309
f 304 309 308
f 305 306 310
f 305 310 309
f 306 303 307
f 306 307 310
o fwin_0_mullionH
v -1.9499748463625552 -1.941 1.8056020122909957
v -1.4600251536374445 -1.941 1.8056020122909957
v -1.4600251536374445 -1.9110000000000003 1.8056020122909957
v -1.9499748463625552 -1.9110000000000003 1.8056020122909957
v -1.9499748463625552 -1.941 1.8543979877090044
v -1.4600251536374445 -1.941 1.8543979877090044
v -1.4600251536374445 -1.9110000000000003 1.8543979877090044
v -1.9499748463625552 -1.9110000000000003 1.8543979877090044
usemtl trim
f 311 313 312
f 311 314 313
f 315 316 317
f 315 317 318
f 311 312 316
f 311 316 315
f 312 313 317
f 312 317 316
f 313 314 318
f 313 318 317
f 314 311 315
f 314 315 318
o fwin_0_boardA
v -2.0688126706441285 -2.04722941138296 1.91
v -1.3284418728267313 -1.9277487712870904 1.91
v -1.3411873293558711 -1.8487705886170405 1.91
v -2.0815581271732686 -1.96825122871291 1.91
v -2.0688126706441285 -2.04722941138296 2.07
v -1.3284418728267313 -1.9277487712870904 2.07
v -1.3411873293558711 -1.8487705886170405 2.07
v -2.0815581271732686 -1.96825122871291 2.07
usemtl board
f 319 321 320
f 319 322 321
f 323 324 325
f 323 325 326
f 319 320 324
f 319 324 323
f 320 321 325
f 320 325 324
f 321 322 326
f 321 326 325
f 322 319 323
f 322 323 326
o fwin_0_boardB
v -2.0622205451967903 -1.9487897084446495 1.58
v -1.3565617188701833 -2.0267267793918866 1.58
v -1.3477794548032094 -1.9472102915553509 1.58
v -2.053438281129816 -1.8692732206081137 1.58
v -2.0622205451967903 -1.9487897084446495 1.7200000000000002
v -1.3565617188701833 -2.0267267793918866 1.7200000000000002
v -1.3477794548032094 -1.9472102915553509 1.7200000000000002
v -2.053438281129816 -1.8692732206081137 1.7200000000000002
usemtl board
f 327 329 328
f 327 330 329
f 331 332 333
f 331 333 334
f 327 328 332
f 327 332 331
f 328 329 333
f 328 333 332
f 329 330 334
f 329 334 333
f 330 327 331
f 330 331 334
o fwin_1_glass
v 1.358468568137544 -1.923 1.4034997761692853
v 2.051531431862456 -1.923 1.4034997761692853
v 2.051531431862456 -1.8730000000000002 1.4034997761692853
v 1.358468568137544 -1.8730000000000002 1.4034997761692853
v 1.358468568137544 -1.923 2.256500223830715
v 2.051531431862456 -1.923 2.256500223830715
v 2.051531431862456 -1.8730000000000002 2.256500223830715
v 1.358468568137544 -1.8730000000000002 2.256500223830715
usemtl glass
f 335 337 336
f 335 338 337
f 339 340 341
f 339 341 342
f 335 336 340
f 335 340 339
f 336 337 341
f 336 341 340
f 337 338 342
f 337 342 341
f 338 335 339
f 338 339 342
o fwin_1_frameTop
v 1.288468568137544 -1.945 2.2209585385114887
v 2.1215314318624556 -1.945 2.2209585385114887
v 2.1215314318624556 -1.8750000000000002 2.2209585385114887
v 1.288468568137544 -1.8750000000000002 2.2209585385114887
v 1.288468568137544 -1.945 2.292041909149941
v 2.1215314318624556 -1.945 2.292041909149941
v 2.1215314318624556 -1.8750000000000002 2.292041909149941
v 1.288468568137544 -1.8750000000000002 2.292041909149941
usemtl trim
f 343 345 344
f 343 346 345
f 347 348 349
f 347 349 350
f 343 344 348
f 343 348 347
f 344 345 349
f 344 349 348
f 345 346 350
f 345 350 349
f 346 343 347
f 346 347 350
o fwin_1_frameBottom
v 1.268468568137544 -1.958 1.367958090850059
v 2.1415314318624556 -1.958 1.367958090850059
v 2.1415314318624556 -1.868 1.367958090850059
v 1.268468568137544 -1.868 1.367958090850059
v 1.268468568137544 -1.958 1.4390414614885116
v 2.1415314318624556 -1.958 1.4390414614885116
v 2.1415314318624556 -1.868 1.4390414614885116
v 1.268468568137544 -1.868 1.4390414614885116
usemtl stoneLight
f 351 353 352
f 351 354 353
f 355 356 357
f 355 357 358
f 351 352 356
f 351 356 355
f 352 353 357
f 352 357 356
f 353 354 358
f 353 358 357
f 354 351 355
f 354 355 358
o fwin_1_frameL
v 1.3229268828183176 -1.945 1.3434997761692853
v 1.3940102534567702 -1.945 1.3434997761692853
v 1.3940102534567702 -1.8750000000000002 1.3434997761692853
v 1.3229268828183176 -1.8750000000000002 1.3434997761692853
v 1.3229268828183176 -1.945 2.316500223830715
v 1.3940102534567702 -1.945 2.316500223830715
v 1.3940102534567702 -1.8750000000000002 2.316500223830715
v 1.3229268828183176 -1.8750000000000002 2.316500223830715
usemtl trim
f 359 361 360
f 359 362 361
f 363 364 365
f 363 365 366
f 359 360 364
f 359 364 363
f 360 361 365
f 360 365 364
f 361 362 366
f 361 366 365
f 362 359 363
f 362 363 366
o fwin_1_frameR
v 2.0159897465432297 -1.945 1.3434997761692853
v 2.087073117181682 -1.945 1.3434997761692853
v 2.087073117181682 -1.8750000000000002 1.3434997761692853
v 2.0159897465432297 -1.8750000000000002 1.3434997761692853
v 2.0159897465432297 -1.945 2.316500223830715
v 2.087073117181682 -1.945 2.316500223830715
v 2.087073117181682 -1.8750000000000002 2.316500223830715
v 2.0159897465432297 -1.8750000000000002 2.316500223830715
usemtl trim
f 367 369 368
f 367 370 369
f 371 372 373
f 371 373 374
f 367 368 372
f 367 372 371
f 368 369 373
f 368 373 372
f 369 370 374
f 369 374 373
f 370 367 371
f 370 371 374
o fwin_1_mullionV
v 1.6772774854510033 -1.941 1.4634997761692854
v 1.7327225145489964 -1.941 1.4634997761692854
v 1.7327225145489964 -1.9110000000000003 1.4634997761692854
v 1.6772774854510033 -1.9110000000000003 1.4634997761692854
v 1.6772774854510033 -1.941 2.1965002238307147
v 1.7327225145489964 -1.941 2.1965002238307147
v 1.7327225145489964 -1.9110000000000003 2.1965002238307147
v 1.6772774854510033 -1.9110000000000003 2.1965002238307147
usemtl trim
f 375 377 376
f 375 378 377
f 379 380 381
f 379 381 382
f 375 376 380
f 375 380 379
f 376 377 381
f 376 381 380
f 377 378 382
f 377 382 381
f 378 375 379
f 378 379 382
o fwin_1_mullionH
v 1.418468568137544 -1.941 1.8022774854510035
v 1.9915314318624557 -1.941 1.8022774854510035
v 1.9915314318624557 -1.9110000000000003 1.8022774854510035
v 1.418468568137544 -1.9110000000000003 1.8022774854510035
v 1.418468568137544 -1.941 1.8577225145489966
v 1.9915314318624557 -1.941 1.8577225145489966
v 1.9915314318624557 -1.9110000000000003 1.8577225145489966
v 1.418468568137544 -1.9110000000000003 1.8577225145489966
usemtl trim
f 383 385 384
f 383 386 385
f 387 388 389
f 387 389 390
f 383 384 388
f 383 388 387
f 384 385 389
f 384 389 388
f 385 386 390
f 385 390 389
f 386 383 387
f 386 387 390
o fwin_1_boardA
v 1.3001615343464374 -2.0538501320578155 1.91
v 2.122583922182702 -1.9211280506122348 1.91
v 2.1098384656535623 -1.8421498679421846 1.91
v 1.2874160778172976 -1.9748719493877656 1.91
v 1.3001615343464374 -2.0538501320578155 2.07
v 2.122583922182702 -1.9211280506122348 2.07
v 2.1098384656535623 -1.8421498679421846 2.07
v 1.2874160778172976 -1.9748719493877656 2.07
usemtl board
f 391 393 392
f 391 394 393
f 395 396 397
f 395 397 398
f 391 392 396
f 391 396 395
f 392 393 397
f 392 397 396
f 393 394 398
f 393 398 397
f 394 391 395
f 394 395 398
o fwin_1_boardB
v 1.3064740332353244 -1.9442276970998758 1.58
v 2.094743702697701 -2.0312887907366606 1.58
v 2.1035259667646753 -1.9517723029001246 1.58
v 1.3152562973022985 -1.86471120926334 1.58
v 1.3064740332353244 -1.9442276970998758 1.7200000000000002
v 2.094743702697701 -2.0312887907366606 1.7200000000000002
v 2.1035259667646753 -1.9517723029001246 1.7200000000000002
v 1.3152562973022985 -1.86471120926334 1.7200000000000002
usemtl board
f 399 401 400
f 399 402 401
f 403 404 405
f 403 405 406
f 399 400 404
f 399 404 403
f 400 401 405
f 400 405 404
f 401 402 406
f 401 406 405
f 402 399 403
f 402 403 406
o swin_r_2_glass
v 2.455 -1.2581000000000002 1.4208
v 2.505 -1.2581000000000002 1.4208
v 2.505 -0.6419 1.4208
v 2.455 -0.6419 1.4208
v 2.455 -1.2581000000000002 2.1792
v 2.505 -1.2581000000000002 2.1792
v 2.505 -0.6419 2.1792
v 2.455 -0.6419 2.1792
usemtl glass
f 407 409 408
f 407 410 409
f 411 412 413
f 411 413 414
f 407 408 412
f 407 412 411
f 408 409 413
f 408 413 412
f 409 410 414
f 409 414 413
f 410 407 411
f 410 411 414
o swin_r_2_frameTop
v 2.457 -1.3281 2.1475999999999997
v 2.527 -1.3281 2.1475999999999997
v 2.527 -0.5719000000000001 2.1475999999999997
v 2.457 -0.5719000000000001 2.1475999999999997
v 2.457 -1.3281 2.2108
v 2.527 -1.3281 2.2108
v 2.527 -0.5719000000000001 2.2108
v 2.457 -0.5719000000000001 2.2108
usemtl trim
f 415 417 416
f 415 418 417
f 419 420 421
f 419 421 422
f 415 416 420
f 415 420 419
f 416 417 421
f 416 421 420
f 417 418 422
f 417 422 421
f 418 415 419
f 418 419 422
o swin_r_2_frameBottom
v 2.45 -1.3481 1.3892
v 2.54 -1.3481 1.3892
v 2.54 -0.5519000000000001 1.3892
v 2.45 -0.5519000000000001 1.3892
v 2.45 -1.3481 1.4524000000000001
v 2.54 -1.3481 1.4524000000000001
v 2.54 -0.5519000000000001 1.4524000000000001
v 2.45 -0.5519000000000001 1.4524000000000001
usemtl stoneLight
f 423 425 424
f 423 426 425
f 427 428 429
f 427 429 430
f 423 424 428
f 423 428 427
f 424 425 429
f 424 429 428
f 425 426 430
f 425 430 429
f 426 423 427
f 426 427 430
o swin_r_2_frameL
v 2.457 -1.2897000000000003 1.3608
v 2.527 -1.2897000000000003 1.3608
v 2.527 -1.2265000000000001 1.3608
v 2.457 -1.2265000000000001 1.3608
v 2.457 -1.2897000000000003 2.2392
v 2.527 -1.2897000000000003 2.2392
v 2.527 -1.2265000000000001 2.2392
v 2.457 -1.2265000000000001 2.2392
usemtl trim
f 431 433 432
f 431 434 433
f 435 436 437
f 435 437 438
f 431 432 436
f 431 436 435
f 432 433 437
f 432 437 436
f 433 434 438
f 433 438 437
f 434 431 435
f 434 435 438
o swin_r_2_frameR
v 2.457 -0.6735 1.3608
v 2.527 -0.6735 1.3608
v 2.527 -0.6103000000000001 1.3608
v 2.457 -0.6103000000000001 1.3608
v 2.457 -0.6735 2.2392
v 2.527 -0.6735 2.2392
v 2.527 -0.6103000000000001 2.2392
v 2.457 -0.6103000000000001 2.2392
usemtl trim
f 439 441 440
f 439 442 441
f 443 444 445
f 443 445 446
f 439 440 444
f 439 444 443
f 440 441 445
f 440 445 444
f 441 442 446
f 441 446 445
f 442 439 443
f 442 443 446
o swin_r_2_mullionV
v 2.493 -0.9746480000000001 1.4808000000000001
v 2.523 -0.9746480000000001 1.4808000000000001
v 2.523 -0.9253520000000001 1.4808000000000001
v 2.493 -0.9253520000000001 1.4808000000000001
v 2.493 -0.9746480000000001 2.1192
v 2.523 -0.9746480000000001 2.1192
v 2.523 -0.9253520000000001 2.1192
v 2.493 -0.9253520000000001 2.1192
usemtl trim
f 447 449 448
f 447 450 449
f 451 452 453
f 451 453 454
f 447 448 452
f 447 452 451
f 448 449 453
f 448 453 452
f 449 450 454
f 449 454 453
f 450 447 451
f 450 451 454
o swin_r_2_mullionH
v 2.493 -1.1981000000000002 1.775352
v 2.523 -1.1981000000000002 1.775352
v 2.523 -0.7019 1.775352
v 2.493 -0.7019 1.775352
v 2.493 -1.1981000000000002 1.824648
v 2.523 -1.1981000000000002 1.824648
v 2.523 -0.7019 1.824648
v 2.493 -0.7019 1.824648
usemtl trim
f 455 457 456
f 455 458 457
f 459 460 461
f 459 461 462
f 455 456 460
f 455 460 459
f 456 457 461
f 456 461 460
f 457 458 462
f 457 462 461
f 458 455 459
f 458 459 462
o swin_r_3_glass
v 2.455 0.3918999999999998 1.4208
v 2.505 0.3918999999999998 1.4208
v 2.505 1.0080999999999998 1.4208
v 2.455 1.0080999999999998 1.4208
v 2.455 0.3918999999999998 2.1792
v 2.505 0.3918999999999998 2.1792
v 2.505 1.0080999999999998 2.1792
v 2.455 1.0080999999999998 2.1792
usemtl glass
f 463 465 464
f 463 466 465
f 467 468 469
f 467 469 470
f 463 464 468
f 463 468 467
f 464 465 469
f 464 469 468
f 465 466 470
f 465 470 469
f 466 463 467
f 466 467 470
o swin_r_3_frameTop
v 2.457 0.3218999999999998 2.1475999999999997
v 2.527 0.3218999999999998 2.1475999999999997
v 2.527 1.0780999999999998 2.1475999999999997
v 2.457 1.0780999999999998 2.1475999999999997
v 2.457 0.3218999999999998 2.2108
v 2.527 0.3218999999999998 2.2108
v 2.527 1.0780999999999998 2.2108
v 2.457 1.0780999999999998 2.2108
usemtl trim
f 471 473 472
f 471 474 473
f 475 476 477
f 475 477 478
f 471 472 476
f 471 476 475
f 472 473 477
f 472 477 476
f 473 474 478
f 473 478 477
f 474 471 475
f 474 475 478
o swin_r_3_frameBottom
v 2.45 0.30189999999999984 1.3892
v 2.54 0.30189999999999984 1.3892
v 2.54 1.0980999999999999 1.3892
v 2.45 1.0980999999999999 1.3892
v 2.45 0.30189999999999984 1.4524000000000001
v 2.54 0.30189999999999984 1.4524000000000001
v 2.54 1.0980999999999999 1.4524000000000001
v 2.45 1.0980999999999999 1.4524000000000001
usemtl stoneLight
f 479 481 480
f 479 482 481
f 483 484 485
f 483 485 486
f 479 480 484
f 479 484 483
f 480 481 485
f 480 485 484
f 481 482 486
f 481 486 485
f 482 479 483
f 482 483 486
o swin_r_3_frameL
v 2.457 0.3602999999999998 1.3608
v 2.527 0.3602999999999998 1.3608
v 2.527 0.4234999999999998 1.3608
v 2.457 0.4234999999999998 1.3608
v 2.457 0.3602999999999998 2.2392
v 2.527 0.3602999999999998 2.2392
v 2.527 0.4234999999999998 2.2392
v 2.457 0.4234999999999998 2.2392
usemtl trim
f 487 489 488
f 487 490 489
f 491 492 493
f 491 493 494
f 487 488 492
f 487 492 491
f 488 489 493
f 488 493 492
f 489 490 494
f 489 494 493
f 490 487 491
f 490 491 494
o swin_r_3_frameR
v 2.457 0.9764999999999998 1.3608
v 2.527 0.9764999999999998 1.3608
v 2.527 1.0396999999999998 1.3608
v 2.457 1.0396999999999998 1.3608
v 2.457 0.9764999999999998 2.2392
v 2.527 0.9764999999999998 2.2392
v 2.527 1.0396999999999998 2.2392
v 2.457 1.0396999999999998 2.2392
usemtl trim
f 495 497 496
f 495 498 497
f 499 500 501
f 499 501 502
f 495 496 500
f 495 500 499
f 496 497 501
f 496 501 500
f 497 498 502
f 497 502 501
f 498 495 499
f 498 499 502
o swin_r_3_mullionV
v 2.493 0.6753519999999998 1.4808000000000001
v 2.523 0.6753519999999998 1.4808000000000001
v 2.523 0.7246479999999998 1.4808000000000001
v 2.493 0.7246479999999998 1.4808000000000001
v 2.493 0.6753519999999998 2.1192
v 2.523 0.6753519999999998 2.1192
v 2.523 0.7246479999999998 2.1192
v 2.493 0.7246479999999998 2.1192
usemtl trim
f 503 505 504
f 503 506 505
f 507 508 509
f 507 509 510
f 503 504 508
f 503 508 507
f 504 505 509
f 504 509 508
f 505 506 510
f 505 510 509
f 506 503 507
f 506 507 510
o swin_r_3_mullionH
v 2.493 0.4518999999999998 1.775352
v 2.523 0.4518999999999998 1.775352
v 2.523 0.9480999999999999 1.775352
v 2.493 0.9480999999999999 1.775352
v 2.493 0.4518999999999998 1.824648
v 2.523 0.4518999999999998 1.824648
v 2.523 0.9480999999999999 1.824648
v 2.493 0.9480999999999999 1.824648
usemtl trim
f 511 513 512
f 511 514 513
f 515 516 517
f 515 517 518
f 511 512 516
f 511 516 515
f 512 513 517
f 512 517 516
f 513 514 518
f 513 518 517
f 514 511 515
f 514 515 518
o swin_r_3_boardA
v 2.4899999999999998 0.33947482068481494 1.8207836034091034
v 2.57 0.33947482068481494 1.8207836034091034
v 2.57 1.086016092373464 1.9412600312507962
v 2.4899999999999998 1.086016092373464 1.9412600312507962
v 2.4899999999999998 0.3139839076265356 1.9787399687492038
v 2.57 0.3139839076265356 1.9787399687492038
v 2.57 1.0605251793151846 2.0992163965908963
v 2.4899999999999998 1.0605251793151846 2.0992163965908963
usemtl board
f 519 521 520
f 519 522 521
f 523 524 525
f 523 525 526
f 519 520 524
f 519 524 523
f 520 521 525
f 520 525 524
f 521 522 526
f 521 526 525
f 522 519 523
f 522 523 526
o swin_r_3_boardB
v 2.4899999999999998 0.3363798402631044 1.5897346826728236
v 2.57 0.3363798402631044 1.5897346826728236
v 2.57 1.0482511976196909 1.511111463613239
v 2.4899999999999998 1.0482511976196909 1.511111463613239
v 2.4899999999999998 0.3517488023803089 1.7288885363867612
v 2.57 0.3517488023803089 1.7288885363867612
v 2.57 1.0636201597368953 1.6502653173271766
v 2.4899999999999998 1.0636201597368953 1.6502653173271766
usemtl board
f 527 529 528
f 527 530 529
f 531 532 533
f 531 533 534
f 527 528 532
f 527 532 531
f 528 529 533
f 528 533 532
f 529 530 534
f 529 534 533
f 530 527 531
f 530 531 534
o porchDeck
v -1.634561046026647 -3.005 0.28
v 0.9154389539733528 -3.005 0.28
v 0.9154389539733528 -1.8550000000000002 0.28
v -1.634561046026647 -1.8550000000000002 0.28
v -1.634561046026647 -3.005 0.44000000000000006
v 0.9154389539733528 -3.005 0.44000000000000006
v 0.9154389539733528 -1.8550000000000002 0.44000000000000006
v -1.634561046026647 -1.8550000000000002 0.44000000000000006
usemtl stoneLight
f 535 537 536
f 535 538 537
f 539 540 541
f 539 541 542
f 535 536 540
f 535 540 539
f 536 537 541
f 536 541 540
f 537 538 542
f 537 542 541
f 538 535 539
f 538 539 542
o step1
v -1.249561046026647 -3.2600000000000002 0
v 0.530438953973353 -3.2600000000000002 0
v 0.530438953973353 -2.8400000000000003 0
v -1.249561046026647 -2.8400000000000003 0
v -1.249561046026647 -3.2600000000000002 0.1
v 0.530438953973353 -3.2600000000000002 0.1
v 0.530438953973353 -2.8400000000000003 0.1
v -1.249561046026647 -2.8400000000000003 0.1
usemtl stoneLight
f 543 545 544
f 543 546 545
f 547 548 549
f 547 549 550
f 543 544 548
f 543 548 547
f 544 545 549
f 544 549 548
f 545 546 550
f 545 550 549
f 546 543 547
f 546 547 550
o step2
v -0.9845610460266471 -3.45 0
v 0.26543895397335293 -3.45 0
v 0.26543895397335293 -3.17 0
v -0.9845610460266471 -3.17 0
v -0.9845610460266471 -3.45 0.08
v 0.26543895397335293 -3.45 0.08
v 0.26543895397335293 -3.17 0.08
v -0.9845610460266471 -3.17 0.08
usemtl stoneLight
f 551 553 552
f 551 554 553
f 555 556 557
f 555 557 558
f 551 552 556
f 551 556 555
f 552 553 557
f 552 557 556
f 553 554 558
f 553 558 557
f 554 551 555
f 554 555 558
o porchPost_-1.28
v -1.3393714256962976 -2.6701890229508027 0.37
v -1.2193720230758445 -2.669810379669651 0.37
v -1.2197506663569966 -2.549810977049198 0.37
v -1.3397500689774497 -2.55018962033035 0.37
v -1.3393714256962976 -2.6701890229508027 2.19
v -1.2193720230758445 -2.669810379669651 2.19
v -1.2197506663569966 -2.549810977049198 2.19
v -1.3397500689774497 -2.55018962033035 2.19
usemtl timber
f 559 561 560
f 559 562 561
f 563 564 565
f 563 565 566
f 559 560 564
f 559 564 563
f 560 561 565
f 560 565 564
f 561 562 566
f 561 566 565
f 562 559 563
f 562 563 566
o porchPost_0.56
v 0.500154237907901 -2.6697139264234724 0.37
v 0.6201528803968251 -2.6702847160654524 0.37
v 0.6207236700388049 -2.5502860735765283 0.37
v 0.5007250275498808 -2.5497152839345483 0.37
v 0.500154237907901 -2.6697139264234724 2.19
v 0.6201528803968251 -2.6702847160654524 2.19
v 0.6207236700388049 -2.5502860735765283 2.19
v 0.5007250275498808 -2.5497152839345483 2.19
usemtl timber
f 567 569 568
f 567 570 569
f 571 572 573
f 571 573 574
f 567 568 572
f 567 572 571
f 568 569 573
f 568 573 572
f 569 570 574
f 569 574 573
f 570 567 571
f 570 571 574
o porchRail
v -1.489561046026647 -2.66 1.95
v 0.7704389539733528 -2.66 1.95
v 0.7704389539733528 -2.6000000000000005 1.95
v -1.489561046026647 -2.6000000000000005 1.95
v -1.489561046026647 -2.66 2.05
v 0.7704389539733528 -2.66 2.05
v 0.7704389539733528 -2.6000000000000005 2.05
v -1.489561046026647 -2.6000000000000005 2.05
usemtl timber
f 575 577 576
f 575 578 577
f 579 580 581
f 579 581 582
f 575 576 580
f 575 580 579
f 576 577 581
f 576 581 580
f 577 578 582
f 577 582 581
f 578 575 579
f 578 579 582
o porchRoof
v -1.659561046026647 -3.1950000000000003 2.5599999999999996
v 0.940438953973353 -3.1950000000000003 2.5599999999999996
v -1.659561046026647 -1.745 2.5599999999999996
v 0.940438953973353 -1.745 2.5599999999999996
v -1.659561046026647 -2.47 2.9785789451624782
v 0.940438953973353 -2.47 2.9785789451624782
usemtl roofDark
f 583 584 588
f 583 588 587
f 585 587 588
f 585 588 586
f 583 587 585
f 584 586 588
o signArm
v -3.2299999999999995 -1.9900000000000002 2.12
v -2.38 -1.9900000000000002 2.12
v -2.38 -1.9100000000000001 2.12
v -3.2299999999999995 -1.9100000000000001 2.12
v -3.2299999999999995 -1.9900000000000002 2.2
v -2.38 -1.9900000000000002 2.2
v -2.38 -1.9100000000000001 2.2
v -3.2299999999999995 -1.9100000000000001 2.2
usemtl timber
f 589 591 590
f 589 592 591
f 593 594 595
f 593 595 596
f 589 590 594
f 589 594 593
f 590 591 595
f 590 595 594
f 591 592 596
f 591 596 595
f 592 589 593
f 592 593 596
o sign
v -3.584877976918487 -2.0714530563971207 1.5
v -2.811814912377145 -1.967657592903052 1.5
v -2.825122023081513 -1.8685469436028799 1.5
v -3.598185087622855 -1.9723424070969484 1.5
v -3.584877976918487 -2.0714530563971207 2.1
v -2.811814912377145 -1.967657592903052 2.1
v -2.825122023081513 -1.8685469436028799 2.1
v -3.598185087622855 -1.9723424070969484 2.1
usemtl board
f 597 599 598
f 597 600 599
f 601 602 603
f 601 603 604
f 597 598 602
f 597 602 601
f 598 599 603
f 598 603 602
f 599 600 604
f 599 604 603
f 600 597 601
f 600 601 604
o barrel_0_body
v 2.682102066874504 -0.542928497614339 0.01999999999999999
v 3.022102066874504 -0.542928497614339 0.01999999999999999
v 3.022102066874504 -0.20292849761433898 0.01999999999999999
v 2.682102066874504 -0.20292849761433898 0.01999999999999999
v 2.682102066874504 -0.542928497614339 0.45999999999999996
v 3.022102066874504 -0.542928497614339 0.45999999999999996
v 3.022102066874504 -0.20292849761433898 0.45999999999999996
v 2.682102066874504 -0.20292849761433898 0.45999999999999996
usemtl timber
f 605 607 606
f 605 608 607
f 609 610 611
f 609 611 612
f 605 606 610
f 605 610 609
f 606 607 611
f 606 611 610
f 607 608 612
f 607 612 611
f 608 605 609
f 608 609 612
o barrel_0_bandTop
v 2.672102066874504 -0.5529284976143389 0.38
v 3.0321020668745042 -0.5529284976143389 0.38
v 3.0321020668745042 -0.192928497614339 0.38
v 2.672102066874504 -0.192928497614339 0.38
v 2.672102066874504 -0.5529284976143389 0.42000000000000004
v 3.0321020668745042 -0.5529284976143389 0.42000000000000004
v 3.0321020668745042 -0.192928497614339 0.42000000000000004
v 2.672102066874504 -0.192928497614339 0.42000000000000004
usemtl dark
f 613 615 614
f 613 616 615
f 617 618 619
f 617 619 620
f 613 614 618
f 613 618 617
f 614 615 619
f 614 619 618
f 615 616 620
f 615 620 619
f 616 613 617
f 616 617 620
o barrel_0_bandMid
v 2.672102066874504 -0.5529284976143389 0.22
v 3.0321020668745042 -0.5529284976143389 0.22
v 3.0321020668745042 -0.192928497614339 0.22
v 2.672102066874504 -0.192928497614339 0.22
v 2.672102066874504 -0.5529284976143389 0.26
v 3.0321020668745042 -0.5529284976143389 0.26
v 3.0321020668745042 -0.192928497614339 0.26
v 2.672102066874504 -0.192928497614339 0.26
usemtl dark
f 621 623 622
f 621 624 623
f 625 626 627
f 625 627 628
f 621 622 626
f 621 626 625
f 622 623 627
f 622 627 626
f 623 624 628
f 623 628 627
f 624 621 625
f 624 625 628
o barrel_0_bandBot
v 2.672102066874504 -0.5529284976143389 0.06
v 3.0321020668745042 -0.5529284976143389 0.06
v 3.0321020668745042 -0.192928497614339 0.06
v 2.672102066874504 -0.192928497614339 0.06
v 2.672102066874504 -0.5529284976143389 0.1
v 3.0321020668745042 -0.5529284976143389 0.1
v 3.0321020668745042 -0.192928497614339 0.1
v 2.672102066874504 -0.192928497614339 0.1
usemtl dark
f 629 631 630
f 629 632 631
f 633 634 635
f 633 635 636
f 629 630 634
f 629 634 633
f 630 631 635
f 630 635 634
f 631 632 636
f 631 636 635
f 632 629 633
f 632 633 636
o crate_1
v 3.253467904530561 -0.6403559996723198 0.11011257736079945
v 3.5392333753120844 -0.6403559996723198 -0.06218765906421242
v 3.5392333753120844 -0.3066656105942094 -0.06218765906421242
v 3.253467904530561 -0.3066656105942094 0.11011257736079945
v 3.4257681409555727 -0.6403559996723198 0.39587804814232286
v 3.7115336117370963 -0.6403559996723198 0.223577811717311
v 3.7115336117370963 -0.3066656105942094 0.223577811717311
v 3.4257681409555727 -0.3066656105942094 0.39587804814232286
usemtl timber
f 637 639 638
f 637 640 639
f 641 642 643
f 641 643 644
f 637 638 642
f 637 642 641
f 638 639 643
f 638 643 642
f 639 640 644
f 639 644 643
f 640 637 641
f 640 641 644
o crate_2
v 3.1054271625883407 -0.7676218423922547 0.019715415250272983
v 3.5291667464359238 -0.7676218423922547 -0.01803699371707662
v 3.5291667464359238 -0.3422038370114753 -0.01803699371707662
v 3.1054271625883407 -0.3422038370114753 0.019715415250272983
v 3.1431795715556907 -0.7676218423922547 0.4434549990978561
v 3.5669191554032738 -0.7676218423922547 0.40570259013050647
v 3.5669191554032738 -0.3422038370114753 0.40570259013050647
v 3.1431795715556907 -0.3422038370114753 0.4434549990978561
usemtl timber
f 645 647 646
f 645 648 647
f 649 650 651
f 649 651 652
f 645 646 650
f 645 650 649
f 646 647 651
f 646 651 650
f 647 648 652
f 647 652 651
f 648 645 649
f 648 649 652
o barrel_3_body
v 2.898136549666524 -0.1725208598701283 0.01999999999999999
v 3.2381365496665238 -0.1725208598701283 0.01999999999999999
v 3.2381365496665238 0.16747914012987172 0.01999999999999999
v 2.898136549666524 0.16747914012987172 0.01999999999999999
v 2.898136549666524 -0.1725208598701283 0.45999999999999996
v 3.2381365496665238 -0.1725208598701283 0.45999999999999996
v 3.2381365496665238 0.16747914012987172 0.45999999999999996
v 2.898136549666524 0.16747914012987172 0.45999999999999996
usemtl timber
f 653 655 654
f 653 656 655
f 657 658 659
f 657 659 660
f 653 654 658
f 653 658 657
f 654 655 659
f 654 659 658
f 655 656 660
f 655 660 659
f 656 653 657
f 656 657 660
o barrel_3_bandTop
v 2.8881365496665237 -0.18252085987012828 0.38
v 3.248136549666524 -0.18252085987012828 0.38
v 3.248136549666524 0.1774791401298717 0.38
v 2.8881365496665237 0.1774791401298717 0.38
v 2.8881365496665237 -0.18252085987012828 0.42000000000000004
v 3.248136549666524 -0.18252085987012828 0.42000000000000004
v 3.248136549666524 0.1774791401298717 0.42000000000000004
v 2.8881365496665237 0.1774791401298717 0.42000000000000004
usemtl dark
f 661 663 662
f 661 664 663
f 665 666 667
f 665 667 668
f 661 662 666
f 661 666 665
f 662 663 667
f 662 667 666
f 663 664 668
f 663 668 667
f 664 661 665
f 664 665 668
o barrel_3_bandMid
v 2.8881365496665237 -0.18252085987012828 0.22
v 3.248136549666524 -0.18252085987012828 0.22
v 3.248136549666524 0.1774791401298717 0.22
v 2.8881365496665237 0.1774791401298717 0.22
v 2.8881365496665237 -0.18252085987012828 0.26
v 3.248136549666524 -0.18252085987012828 0.26
v 3.248136549666524 0.1774791401298717 0.26
v 2.8881365496665237 0.1774791401298717 0.26
usemtl dark
f 669 671 670
f 669 672 671
f 673 674 675
f 673 675 676
f 669 670 674
f 669 674 673
f 670 671 675
f 670 675 674
f 671 672 676
f 671 676 675
f 672 669 673
f 672 673 676
o barrel_3_bandBot
v 2.8881365496665237 -0.18252085987012828 0.06
v 3.248136549666524 -0.18252085987012828 0.06
v 3.248136549666524 0.1774791401298717 0.06
v 2.8881365496665237 0.1774791401298717 0.06
v 2.8881365496665237 -0.18252085987012828 0.1
v 3.248136549666524 -0.18252085987012828 0.1
v 3.248136549666524 0.1774791401298717 0.1
v 2.8881365496665237 0.1774791401298717 0.1
usemtl dark
f 677 679 678
f 677 680 679
f 681 682 683
f 681 683 684
f 677 678 682
f 677 682 681
f 678 679 683
f 678 683 682
f 679 680 684
f 679 684 683
f 680 677 681
f 680 681 684
o crate_4
v 3.1724662821148875 -0.9007183754793369 0.13818226311119614
v 3.4864390933350995 -0.9007183754793369 -0.07349268097752909
v 3.4864390933350995 -0.5220559821254573 -0.07349268097752909
v 3.1724662821148875 -0.5220559821254573 0.13818226311119614
v 3.384141226203613 -0.9007183754793369 0.4521550743314085
v 3.698114037423825 -0.9007183754793369 0.24048013024268328
v 3.698114037423825 -0.5220559821254573 0.24048013024268328
v 3.384141226203613 -0.5220559821254573 0.4521550743314085
usemtl timber
f 685 687 686
f 685 688 687
f 689 690 691
f 689 691 692
f 685 686 690
f 685 690 689
f 686 687 691
f 686 691 690
f 687 688 692
f 687 692 691
f 688 685 689
f 688 689 692
o crate_5
v 2.770855056004314 -0.5309839194826782 0.2218839528426825
v 3.0947965966988056 -0.5309839194826782 -0.09362582403822345
v 3.0947965966988056 -0.07878424998372796 -0.09362582403822345
v 2.770855056004314 -0.07878424998372796 0.2218839528426825
v 3.08636483288522 -0.5309839194826782 0.5458254935371736
v 3.4103063735797114 -0.5309839194826782 0.23031571665626768
v 3.4103063735797114 -0.07878424998372796 0.23031571665626768
v 3.08636483288522 -0.07878424998372796 0.5458254935371736
usemtl timber
f 693 695 694
f 693 696 695
f 697 698 699
f 697 699 700
f 693 694 698
f 693 698 697
f 694 695 699
f 694 699 698
f 695 696 700
f 695 700 699
f 696 693 697
f 696 697 700
o debris_0
v -1.6786040997976155 -2.716894878997262 0.19957493789041592
v -1.84324291527561 -2.687240683839824 -0.08492383557978504
v -1.8084576255689067 -2.5913952353356273 -0.09506373609073424
v -1.643818810090912 -2.621049430493065 0.18943503737946674
v -1.622936741793466 -2.74076968399418 0.16487181460840591
v -1.7875755572714607 -2.7111154888367426 -0.11962695886179506
v -1.752790267564757 -2.6152700403325455 -0.12976685937274424
v -1.5881514520867626 -2.6449242354899836 0.15473191409745674
usemtl board
f 701 703 702
f 701 704 703
f 705 706 707
f 705 707 708
f 701 702 706
f 701 706 705
f 702 703 707
f 702 707 706
f 703 704 708
f 703 708 707
f 704 701 705
f 704 705 708
o debris_1
v -0.2215244427076245 -0.7614234945363403 0.14636797456065462
v -0.547034649346323 -0.8251266970337625 -0.028273238428662077
v -0.5806284947834326 -0.6562492523228297 -0.027259127788208104
v -0.2551182881447341 -0.5925460498254075 0.1473820852011086
v -0.19271247228129096 -0.7553563194463478 0.09045282851155816
v -0.5182226789199895 -0.8190595219437701 -0.08418838447775853
v -0.551816524357099 -0.6501820772328373 -0.08317427383730458
v -0.22630631771840057 -0.586478874735415 0.09146693915201212
usemtl board
f 709 711 710
f 709 712 711
f 713 714 715
f 713 715 716
f 709 710 714
f 709 714 713
f 710 711 715
f 710 715 714
f 711 712 716
f 711 716 715
f 712 709 713
f 712 713 716
o debris_2
v 1.565717048631499 1.7241442531171212 0.1562481148288448
v 1.5981445811041284 1.727216762885166 -0.07722601013330432
v 1.5930209960178925 1.898221156718136 -0.07568722099027428
v 1.5605934635452634 1.8951486469500913 0.15778690397187484
v 1.6582317373626416 1.726800210848525 0.16913255557612347
v 1.6906592698352707 1.7298727206165696 -0.06434156938602564
v 1.685535684749035 1.9008771144495398 -0.0628027802429956
v 1.6531081522764057 1.897804604681495 0.17067134471915352
usemtl board
f 717 719 718
f 717 720 719
f 721 722 723
f 721 723 724
f 717 718 722
f 717 722 721
f 718 719 723
f 718 723 722
f 719 720 724
f 719 724 723
f 720 717 721
f 720 721 724
o debris_3
v 1.5276638883166356 -1.023708800813093 0.22039171175172628
v 1.3572050347833373 -1.017347824558657 -0.09592006597682956
v 1.3270519412610486 -0.7958293719411473 -0.07521601437198838
v 1.4975107947943467 -0.8021903481955834 0.24109576335656746
v 1.6138463987946707 -1.0076669981974533 0.17427098077562547
v 1.4433875452613727 -1.0013060219430172 -0.14204079695293037
v 1.4132344517390838 -0.7797875693255076 -0.12133674534808919
v 1.583693305272382 -0.7861485455799437 0.19497503238046665
usemtl board
f 725 727 726
f 725 728 727
f 729 730 731
f 729 731 732
f 725 726 730
f 725 730 729
f 726 727 731
f 726 731 730
f 727 728 732
f 727 732 731
f 728 725 729
f 728 729 732
o debris_4
v -1.0043360153089633 -0.6764822382875397 0.15850247872134843
v -0.8609481966293833 -0.6601852607799369 -0.09737821020462789
v -0.9013464197705425 -0.4679439710649304 -0.10777235573935859
v -1.0447342384501226 -0.4842409485725332 0.14810833318661773
v -0.9202221520521752 -0.6561878873304824 0.20692989231865458
v -0.7768343333725951 -0.6398909098228796 -0.04895079660732174
v -0.8172325565137544 -0.447649620107873 -0.05934494214205244
v -0.9606203751933344 -0.4639465976154758 0.19653574678392388
usemtl board
f 733 735 734
f 733 736 735
f 737 738 739
f 737 739 740
f 733 734 738
f 733 738 737
f 734 735 739
f 734 739 738
f 735 736 740
f 735 740 739
f 736 733 737
f 736 737 740
o debris_5
v -0.31885062390828084 1.367170808499955 0.20167802149040853
v -0.21404232770538306 1.3641800895100762 -0.13645020472038122
v -0.24821117171544335 1.5890801629569808 -0.149030613318828
v -0.3530194679183411 1.5920708819468594 0.18909761289196175
v -0.24880479017280324 1.3790214505925342 0.2232850391341346
v -0.1439964939699055 1.3760307316026557 -0.11484318707665514
v -0.17816533797996575 1.60093080504956 -0.12742359567510192
v -0.28297363418286353 1.6039215240394389 0.21070463053568783
usemtl board
f 741 743 742
f 741 744 743
f 745 746 747
f 745 747 748
f 741 742 746
f 741 746 745
f 742 743 747
f 742 747 746
f 743 744 748
f 743 748 747
f 744 741 745
f 744 745 748
o deadGrowth
v 2.5750845676782745 -2.53 0.044696304688931945
v 3.1686745510086336 -2.53 -0.042773299688039695
v 3.1686745510086336 -1.93 -0.042773299688039695
v 2.5750845676782745 -1.93 0.044696304688931945
v 2.601325448991366 -2.53 0.2227732996880397
v 3.194915432321725 -2.53 0.13530369531106806
v 3.194915432321725 -1.93 0.13530369531106806
v 2.601325448991366 -1.93 0.2227732996880397
usemtl deadGreen
f 749 751 750
f 749 752 751
f 753 754 755
f 753 755 756
f 749 750 754
f 749 754 753
f 750 751 755
f 750 755 754
f 751 752 756
f 751 756 755
f 752 749 753
f 752 753 756
o brokenStep
v 0.04704143684091444 -2.837846482792232 0
v 0.6858967993397614 -2.957695662207307 0
v 0.7338364711057914 -2.702153517207768 0
v 0.09498110860694442 -2.582304337792693 0
v 0.04704143684091444 -2.837846482792232 0.08
v 0.6858967993397614 -2.957695662207307 0.08
v 0.7338364711057914 -2.702153517207768 0.08
v 0.09498110860694442 -2.582304337792693 0.08
usemtl stone
f 757 759 758
f 757 760 759
f 761 762 763
f 761 763 764
f 757 758 762
f 757 762 761
f 758 759 763
f 758 763 762
f 759 760 764
f 759 764 763
f 760 757 761
f 760 761 764
