mtllib worldforge_building_43027.mtl
# WorldForge 0.2.0
# building seed 43027
o foundation
v -2.565 -1.9900000000000002 0
v 2.565 -1.9900000000000002 0
v 2.565 1.9900000000000002 0
v -2.565 1.9900000000000002 0
v -2.565 -1.9900000000000002 0.42
v 2.565 -1.9900000000000002 0.42
v 2.565 1.9900000000000002 0.42
v -2.565 1.9900000000000002 0.42
usemtl stone
f 1 3 2
f 1 4 3
f 5 6 7
f 5 7 8
f 1 2 6
f 1 6 5
f 2 3 7
f 2 7 6
f 3 4 8
f 3 8 7
f 4 1 5
f 4 5 8
o walls
v -2.425 -1.85 0.41999999999999993
v 2.425 -1.85 0.41999999999999993
v 2.425 1.85 0.41999999999999993
v -2.425 1.85 0.41999999999999993
v -2.425 -1.85 2.87
v 2.425 -1.85 2.87
v 2.425 1.85 2.87
v -2.425 1.85 2.87
usemtl wall
f 9 11 10
f 9 12 11
f 13 14 15
f 13 15 16
f 9 10 14
f 9 14 13
f 10 11 15
f 10 15 14
f 11 12 16
f 11 16 15
f 12 9 13
f 12 13 16
o rightWallTone
v 2.4254999999999995 -1.81 0.45999999999999996
v 2.4604999999999997 -1.81 0.45999999999999996
v 2.4604999999999997 1.81 0.45999999999999996
v 2.4254999999999995 1.81 0.45999999999999996
v 2.4254999999999995 -1.81 2.83
v 2.4604999999999997 -1.81 2.83
v 2.4604999999999997 1.81 2.83
v 2.4254999999999995 1.81 2.83
usemtl wallDark
f 17 19 18
f 17 20 19
f 21 22 23
f 21 23 24
f 17 18 22
f 17 22 21
f 18 19 23
f 18 23 22
f 19 20 24
f 19 24 23
f 20 17 21
f 20 21 24
o frontPost_-2.07
v -2.15 -1.94 0.45999999999999996
v -1.9999999999999998 -1.94 0.45999999999999996
v -1.9999999999999998 -1.85 0.45999999999999996
v -2.15 -1.85 0.45999999999999996
v -2.15 -1.94 2.83
v -1.9999999999999998 -1.94 2.83
v -1.9999999999999998 -1.85 2.83
v -2.15 -1.85 2.83
usemtl timber
f 25 27 26
f 25 28 27
f 29 30 31
f 29 31 32
f 25 26 30
f 25 30 29
f 26 27 31
f 26 31 30
f 27 28 32
f 27 32 31
f 28 25 29
f 28 29 32
o frontPost_-0.82
v -0.8999999999999997 -1.94 0.45999999999999996
v -0.7499999999999998 -1.94 0.45999999999999996
v -0.7499999999999998 -1.85 0.45999999999999996
v -0.8999999999999997 -1.85 0.45999999999999996
v -0.8999999999999997 -1.94 2.83
v -0.7499999999999998 -1.94 2.83
v -0.7499999999999998 -1.85 2.83
v -0.8999999999999997 -1.85 2.83
usemtl timber
f 33 35 34
f 33 36 35
f 37 38 39
f 37 39 40
f 33 34 38
f 33 38 37
f 34 35 39
f 34 39 38
f 35 36 40
f 35 40 39
f 36 33 37
f 36 37 40
o frontPost_0.43
v 0.35000000000000026 -1.94 0.45999999999999996
v 0.5000000000000002 -1.94 0.45999999999999996
v 0.5000000000000002 -1.85 0.45999999999999996
v 0.35000000000000026 -1.85 0.45999999999999996
v 0.35000000000000026 -1.94 2.83
v 0.5000000000000002 -1.94 2.83
v 0.5000000000000002 -1.85 2.83
v 0.35000000000000026 -1.85 2.83
usemtl timber
f 41 43 42
f 41 44 43
f 45 46 47
f 45 47 48
f 41 42 46
f 41 46 45
f 42 43 47
f 42 47 46
f 43 44 48
f 43 48 47
f 44 41 45
f 44 45 48
o frontPost_1.68
v 1.6000000000000003 -1.94 0.45999999999999996
v 1.7500000000000002 -1.94 0.45999999999999996
v 1.7500000000000002 -1.85 0.45999999999999996
v 1.6000000000000003 -1.85 0.45999999999999996
v 1.6000000000000003 -1.94 2.83
v 1.7500000000000002 -1.94 2.83
v 1.7500000000000002 -1.85 2.83
v 1.6000000000000003 -1.85 2.83
usemtl timber
f 49 51 50
f 49 52 51
f 53 54 55
f 53 55 56
f 49 50 54
f 49 54 53
f 50 51 55
f 50 55 54
f 51 52 56
f 51 56 55
f 52 49 53
f 52 53 56
o frontBeam_1
v -2.3649999999999998 -1.94 2.6149999999999998
v 2.3649999999999998 -1.94 2.6149999999999998
v 2.3649999999999998 -1.85 2.6149999999999998
v -2.3649999999999998 -1.85 2.6149999999999998
v -2.3649999999999998 -1.94 2.765
v 2.3649999999999998 -1.94 2.765
v 2.3649999999999998 -1.85 2.765
v -2.3649999999999998 -1.85 2.765
usemtl timber
f 57 59 58
f 57 60 59
f 61 62 63
f 61 63 64
f 57 58 62
f 57 62 61
f 58 59 63
f 58 63 62
f 59 60 64
f 59 64 63
f 60 57 61
f 60 61 64
o mainRoof
v -2.6999999999999997 -2.1750000000000003 2.85
v 2.6999999999999997 -2.1750000000000003 2.85
v -2.6999999999999997 2.1750000000000003 2.85
v 2.6999999999999997 2.1750000000000003 2.85
v -2.6999999999999997 0 4.740698654750293
v 2.6999999999999997 0 4.740698654750293
usemtl roof
f 65 66 70
f 65 70 69
f 67 69 70
f 67 70 68
f 65 69 67
f 66 68 70
o door
v -0.9064732552319765 -1.945 0.42499999999999993
v 0.043526744768023484 -1.945 0.42499999999999993
v 0.043526744768023484 -1.865 0.42499999999999993
v -0.9064732552319765 -1.865 0.42499999999999993
v -0.9064732552319765 -1.945 2.375
v 0.043526744768023484 -1.945 2.375
v 0.043526744768023484 -1.865 2.375
v -0.9064732552319765 -1.865 2.375
usemtl trim
f 71 73 72
f 71 74 73
f 75 76 77
f 75 77 78
f 71 72 76
f 71 76 75
f 72 73 77
f 72 77 76
f 73 74 78
f 73 78 77
f 74 71 75
f 74 75 78
o doorBrace
v -0.9493538740976082 -1.9429526882181694 1.395
v 0.07323902083187411 -2.0662562617257563 1.395
v 0.08640736363365514 -1.957047311781831 1.395
v -0.9361855312958272 -1.833743738274244 1.395
v -0.9493538740976082 -1.9429526882181694 1.545
v 0.07323902083187411 -2.0662562617257563 1.545
v 0.08640736363365514 -1.957047311781831 1.545
v -0.9361855312958272 -1.833743738274244 1.545
usemtl board
f 79 81 80
f 79 82 81
f 83 84 85
f 83 85 86
f 79 80 84
f 79 84 83
f 80 81 85
f 80 85 84
f 81 82 86
f 81 86 85
f 82 79 83
f 82 83 86
o window_0
v -1.9030452869409693 -1.9400000000000002 1.6147199111309833
v -1.3469547130590303 -1.9400000000000002 1.6147199111309833
v -1.3469547130590303 -1.8800000000000001 1.6147199111309833
v -1.9030452869409693 -1.8800000000000001 1.6147199111309833
v -1.9030452869409693 -1.9400000000000002 2.3252800888690164
v -1.3469547130590303 -1.9400000000000002 2.3252800888690164
v -1.3469547130590303 -1.8800000000000001 2.3252800888690164
v -1.9030452869409693 -1.8800000000000001 2.3252800888690164
usemtl glass
f 87 89 88
f 87 90 89
f 91 92 93
f 91 93 94
f 87 88 92
f 87 92 91
f 88 89 93
f 88 93 92
f 89 90 94
f 89 94 93
f 90 87 91
f 90 91 94
o sill_0
v -1.9648331284834069 -2.0100000000000002 1.5106555497813503
v -1.2851668715165927 -2.0100000000000002 1.5106555497813503
v -1.2851668715165927 -1.8800000000000001 1.5106555497813503
v -1.9648331284834069 -1.8800000000000001 1.5106555497813503
v -1.9648331284834069 -2.0100000000000002 1.6106555497813504
v -1.2851668715165927 -2.0100000000000002 1.6106555497813504
v -1.2851668715165927 -1.8800000000000001 1.6106555497813504
v -1.9648331284834069 -1.8800000000000001 1.6106555497813504
usemtl stoneLight
f 95 97 96
f 95 98 97
f 99 100 101
f 99 101 102
f 95 96 100
f 95 100 99
f 96 97 101
f 96 101 100
f 97 98 102
f 97 102 101
f 98 95 99
f 98 99 102
o board_0_a
v -1.9351938068394343 -2.0872669019391927 2.005
v -1.2969032358179828 -1.97111746733962 2.005
v -1.3148061931605652 -1.8727330980608077 2.005
v -1.9530967641820167 -1.9888825326603805 2.005
v -1.9351938068394343 -2.0872669019391927 2.135
v -1.2969032358179828 -1.97111746733962 2.135
v -1.3148061931605652 -1.8727330980608077 2.135
v -1.9530967641820167 -1.9888825326603805 2.135
usemtl board
f 103 105 104
f 103 106 105
f 107 108 109
f 107 109 110
f 103 104 108
f 103 108 107
f 104 105 109
f 104 109 108
f 105 106 110
f 105 110 109
f 106 103 107
f 106 107 110
o board_0_b
v -1.9531306702649205 -1.9875265719066935 1.725
v -1.3098327439970485 -2.0716296174647857 1.725
v -1.296869329735079 -1.972473428093307 1.725
v -1.940167256002951 -1.8883703825352145 1.725
v -1.9531306702649205 -1.9875265719066935 1.855
v -1.3098327439970485 -2.0716296174647857 1.855
v -1.296869329735079 -1.972473428093307 1.855
v -1.940167256002951 -1.8883703825352145 1.855
usemtl board
f 111 113 112
f 111 114 113
f 115 116 117
f 115 117 118
f 111 112 116
f 111 116 115
f 112 113 117
f 112 117 116
f 113 114 118
f 113 118 117
f 114 111 115
f 114 115 118
o window_1
v 1.301620256150048 -1.9400000000000002 1.5567925495250616
v 1.9483797438499515 -1.9400000000000002 1.5567925495250616
v 1.9483797438499515 -1.8800000000000001 1.5567925495250616
v 1.301620256150048 -1.8800000000000001 1.5567925495250616
v 1.301620256150048 -1.9400000000000002 2.3832074504749383
v 1.9483797438499515 -1.9400000000000002 2.3832074504749383
v 1.9483797438499515 -1.8800000000000001 2.3832074504749383
v 1.301620256150048 -1.8800000000000001 2.3832074504749383
usemtl glass
f 119 121 120
f 119 122 121
f 123 124 125
f 123 125 126
f 119 120 124
f 119 124 123
f 120 121 125
f 120 125 124
f 121 122 126
f 121 126 125
f 122 119 123
f 122 123 126
o sill_1
v 1.2297580908500587 -2.0100000000000002 1.4439131548875708
v 2.0202419091499406 -2.0100000000000002 1.4439131548875708
v 2.0202419091499406 -1.8800000000000001 1.4439131548875708
v 1.2297580908500587 -1.8800000000000001 1.4439131548875708
v 1.2297580908500587 -2.0100000000000002 1.5439131548875709
v 2.0202419091499406 -2.0100000000000002 1.5439131548875709
v 2.0202419091499406 -1.8800000000000001 1.5439131548875709
v 1.2297580908500587 -1.8800000000000001 1.5439131548875709
usemtl stoneLight
f 127 129 128
f 127 130 129
f 131 132 133
f 131 133 134
f 127 128 132
f 127 132 131
f 128 129 133
f 128 133 132
f 129 130 134
f 129 134 133
f 130 127 131
f 130 131 134
o board_1_a
v 1.2627705037487087 -2.0967358118347503 2.005
v 2.0051324535938733 -1.9616485574440623 2.005
v 1.9872294962512909 -1.86326418816525 2.005
v 1.2448675464061263 -1.998351442555938 2.005
v 1.2627705037487087 -2.0967358118347503 2.135
v 2.0051324535938733 -1.9616485574440623 2.135
v 1.9872294962512909 -1.86326418816525 2.135
v 1.2448675464061263 -1.998351442555938 2.135
usemtl board
f 135 137 136
f 135 138 137
f 139 140 141
f 139 141 142
f 135 136 140
f 135 140 139
f 136 137 141
f 136 141 140
f 137 138 142
f 137 142 141
f 138 135 139
f 138 139 142
o board_1_b
v 1.244425423134677 -1.9806701962120803 1.725
v 1.9926111626033531 -2.078485993159399 1.725
v 2.005574576865323 -1.9793298037879201 1.725
v 1.2573888373966464 -1.8815140068406015 1.725
v 1.244425423134677 -1.9806701962120803 1.855
v 1.9926111626033531 -2.078485993159399 1.855
v 2.005574576865323 -1.9793298037879201 1.855
v 1.2573888373966464 -1.8815140068406015 1.855
usemtl board
f 143 145 144
f 143 146 145
f 147 148 149
f 147 149 150
f 143 144 148
f 143 148 147
f 144 145 149
f 144 149 148
f 145 146 150
f 145 150 149
f 146 143 147
f 146 147 150
o window_2
v 2.455 -1.3880000000000001 1.5519999999999998
v 2.5149999999999997 -1.3880000000000001 1.5519999999999998
v 2.5149999999999997 -0.812 1.5519999999999998
v 2.455 -0.812 1.5519999999999998
v 2.455 -1.3880000000000001 2.288
v 2.5149999999999997 -1.3880000000000001 2.288
v 2.5149999999999997 -0.812 2.288
v 2.455 -0.812 2.288
usemtl glass
f 151 153 152
f 151 154 153
f 155 156 157
f 155 157 158
f 151 152 156
f 151 156 155
f 152 153 157
f 152 157 156
f 153 154 158
f 153 158 157
f 154 151 155
f 154 155 158
o sill_2
v 2.455 -1.4520000000000002 1.446
v 2.585 -1.4520000000000002 1.446
v 2.585 -0.748 1.446
v 2.455 -0.748 1.446
v 2.455 -1.4520000000000002 1.546
v 2.585 -1.4520000000000002 1.546
v 2.585 -0.748 1.546
v 2.455 -0.748 1.546
usemtl stoneLight
f 159 161 160
f 159 162 161
f 163 164 165
f 163 165 166
f 159 160 164
f 159 164 163
f 160 161 165
f 160 165 164
f 161 162 166
f 161 166 165
f 162 159 163
f 162 163 166
o board_2_a
v 2.505 -1.4189345585041302 1.8958962232976952
v 2.6049999999999995 -1.4189345585041302 1.8958962232976952
v 2.6049999999999995 -0.7577915969505127 2.016204096639849
v 2.505 -0.7577915969505127 2.016204096639849
v 2.505 -1.4422084030494875 2.023795903360151
v 2.6049999999999995 -1.4422084030494875 2.023795903360151
v 2.6049999999999995 -0.7810654414958699 2.144103776702305
v 2.505 -0.7810654414958699 2.144103776702305
usemtl board
f 167 169 168
f 167 170 169
f 171 172 173
f 171 173 174
f 167 168 172
f 167 172 171
f 168 169 173
f 168 173 172
f 169 170 174
f 169 174 173
f 170 167 171
f 170 171 174
o board_2_b
v 2.505 -1.441591015558449 1.7191055488287563
v 2.6049999999999995 -1.441591015558449 1.7191055488287563
v 2.6049999999999995 -0.7752614229821114 1.6319914049883213
v 2.505 -0.7752614229821114 1.6319914049883213
v 2.505 -1.4247385770178886 1.8480085950116787
v 2.6049999999999995 -1.4247385770178886 1.8480085950116787
v 2.6049999999999995 -0.7584089844415511 1.7608944511712437
v 2.505 -0.7584089844415511 1.7608944511712437
usemtl board
f 175 177 176
f 175 178 177
f 179 180 181
f 179 181 182
f 175 176 180
f 175 180 179
f 176 177 181
f 176 181 180
f 177 178 182
f 177 182 181
f 178 175 179
f 178 179 182
o window_3
v 2.455 0.16199999999999998 1.5519999999999998
v 2.5149999999999997 0.16199999999999998 1.5519999999999998
v 2.5149999999999997 0.738 1.5519999999999998
v 2.455 0.738 1.5519999999999998
v 2.455 0.16199999999999998 2.288
v 2.5149999999999997 0.16199999999999998 2.288
v 2.5149999999999997 0.738 2.288
v 2.455 0.738 2.288
usemtl glass
f 183 185 184
f 183 186 185
f 187 188 189
f 187 189 190
f 183 184 188
f 183 188 187
f 184 185 189
f 184 189 188
f 185 186 190
f 185 190 189
f 186 183 187
f 186 187 190
o sill_3
v 2.455 0.09799999999999992 1.446
v 2.585 0.09799999999999992 1.446
v 2.585 0.802 1.446
v 2.455 0.802 1.446
v 2.455 0.09799999999999992 1.546
v 2.585 0.09799999999999992 1.546
v 2.585 0.802 1.546
v 2.455 0.802 1.546
usemtl stoneLight
f 191 193 192
f 191 194 193
f 195 196 197
f 195 197 198
f 191 192 196
f 191 196 195
f 192 193 197
f 192 197 196
f 193 194 198
f 193 198 197
f 194 191 195
f 194 195 198
o board_3_a
v 2.505 0.13106544149586974 1.8958962232976952
v 2.6049999999999995 0.13106544149586974 1.8958962232976952
v 2.6049999999999995 0.7922084030494874 2.016204096639849
v 2.505 0.7922084030494874 2.016204096639849
v 2.505 0.10779159695051255 2.023795903360151
v 2.6049999999999995 0.10779159695051255 2.023795903360151
v 2.6049999999999995 0.7689345585041302 2.144103776702305
v 2.505 0.7689345585041302 2.144103776702305
usemtl board
f 199 201 200
f 199 202 201
f 203 204 205
f 203 205 206
f 199 200 204
f 199 204 203
f 200 201 205
f 200 205 204
f 201 202 206
f 201 206 205
f 202 199 203
f 202 203 206
o board_3_b
v 2.505 0.108408984441551 1.7191055488287563
v 2.6049999999999995 0.108408984441551 1.7191055488287563
v 2.6049999999999995 0.7747385770178886 1.6319914049883213
v 2.505 0.7747385770178886 1.6319914049883213
v 2.505 0.1252614229821113 1.8480085950116787
v 2.6049999999999995 0.1252614229821113 1.8480085950116787
v 2.6049999999999995 0.7915910155584489 1.7608944511712437
v 2.505 0.7915910155584489 1.7608944511712437
usemtl board
f 207 209 208
f 207 210 209
f 211 212 213
f 211 213 214
f 207 208 212
f 207 212 211
f 208 209 213
f 208 213 212
f 209 210 214
f 209 214 213
f 210 207 211
f 210 211 214
o porchDeck
v -1.5064732552319764 -2.9050000000000002 0.43000000000000005
v 0.6435267447680235 -2.9050000000000002 0.43000000000000005
v 0.6435267447680235 -1.955 0.43000000000000005
v -1.5064732552319764 -1.955 0.43000000000000005
v -1.5064732552319764 -2.9050000000000002 0.61
v 0.6435267447680235 -2.9050000000000002 0.61
v 0.6435267447680235 -1.955 0.61
v -1.5064732552319764 -1.955 0.61
usemtl stoneLight
f 215 217 216
f 215 218 217
f 219 220 221
f 219 221 222
f 215 216 220
f 215 220 219
f 216 217 221
f 216 221 220
f 217 218 222
f 217 222 221
f 218 215 219
f 218 219 222
o porchPost_-1.28
v -1.339732947553939 -2.691691233174174 0.4950000000000001
v -1.2197820220578028 -2.6882596923219624 0.4950000000000001
v -1.223213562910014 -2.568308766825826 0.4950000000000001
v -1.3431644884061502 -2.5717403076780374 0.4950000000000001
v -1.339732947553939 -2.691691233174174 2.145
v -1.2197820220578028 -2.6882596923219624 2.145
v -1.223213562910014 -2.568308766825826 2.145
v -1.3431644884061502 -2.5717403076780374 2.145
usemtl timber
f 223 225 224
f 223 226 225
f 227 228 229
f 227 229 230
f 223 224 228
f 223 228 227
f 224 225 229
f 224 229 228
f 225 226 230
f 225 230 229
f 226 223 227
f 226 227 230
o porchPost_0.42
v 0.35717930297216444 -2.688621594870011 0.4950000000000001
v 0.4771483396380344 -2.691347441795859 0.4950000000000001
v 0.47987418656388253 -2.571378405129989 0.4950000000000001
v 0.3599051498980126 -2.568652558204141 0.4950000000000001
v 0.35717930297216444 -2.688621594870011 2.145
v 0.4771483396380344 -2.691347441795859 2.145
v 0.47987418656388253 -2.571378405129989 2.145
v 0.3599051498980126 -2.568652558204141 2.145
usemtl timber
f 231 233 232
f 231 234 233
f 235 236 237
f 235 237 238
f 231 232 236
f 231 236 235
f 232 233 237
f 232 237 236
f 233 234 238
f 233 238 237
f 234 231 235
f 234 235 238
o porchRoof
v -1.5064732552319764 -3.005 2.62
v 0.6435267447680235 -3.005 2.62
v -1.5064732552319764 -1.8550000000000002 2.62
v 0.6435267447680235 -1.8550000000000002 2.62
v -1.5064732552319764 -2.43 2.9792998773478634
v 0.6435267447680235 -2.43 2.9792998773478634
usemtl roofDark
f 239 240 244
f 239 244 243
f 241 243 244
f 241 244 242
f 239 243 241
f 240 242 244
o signArm
v -3.1999999999999997 -1.9700000000000002 2.13
v -2.35 -1.9700000000000002 2.13
v -2.35 -1.8900000000000001 2.13
v -3.1999999999999997 -1.8900000000000001 2.13
v -3.1999999999999997 -1.9700000000000002 2.21
v -2.35 -1.9700000000000002 2.21
v -2.35 -1.8900000000000001 2.21
v -3.1999999999999997 -1.8900000000000001 2.21
usemtl timber
f 245 247 246
f 245 248 247
f 249 250 251
f 249 251 252
f 245 246 250
f 245 250 249
f 246 247 251
f 246 251 250
f 247 248 252
f 247 252 251
f 248 245 249
f 248 249 252
o sign
v -3.51180085217734 -2.0157126463135056 1.5499999999999998
v -2.7930022149509455 -1.974137183339794 1.5499999999999998
v -2.7981991478226598 -1.8842873536864948 1.5499999999999998
v -3.516997785049054 -1.9258628166602063 1.5499999999999998
v -3.51180085217734 -2.0157126463135056 2.13
v -2.7930022149509455 -1.974137183339794 2.13
v -2.7981991478226598 -1.8842873536864948 2.13
v -3.516997785049054 -1.9258628166602063 2.13
usemtl board
f 253 255 254
f 253 256 255
f 257 258 259
f 257 259 260
f 253 254 258
f 253 258 257
f 254 255 259
f 254 259 258
f 255 256 260
f 255 260 259
f 256 253 257
f 256 257 260
o crate_0
v 2.935025856101686 -1.3327661361801442 0.1857363999154396
v 3.338845046538955 -1.3327661361801442 -0.0967428060525225
v 3.338845046538955 -0.8399533518799582 -0.0967428060525225
v 2.935025856101686 -0.8399533518799582 0.1857363999154396
v 3.217505062069648 -1.3327661361801442 0.5895555903527083
v 3.621324252506917 -1.3327661361801442 0.3070763843847462
v 3.621324252506917 -0.8399533518799582 0.3070763843847462
v 3.217505062069648 -0.8399533518799582 0.5895555903527083
usemtl timber
f 261 263 262
f 261 264 263
f 265 266 267
f 265 267 268
f 261 262 266
f 261 266 265
f 262 263 267
f 262 267 266
f 263 264 268
f 263 268 267
f 264 261 265
f 264 265 268
o crate_1
v 3.005049432111613 -0.655592429197859 0.02294634453625491
v 3.4408029705900782 -0.655592429197859 -0.02075994839129272
v 3.4408029705900782 -0.2176524945744313 -0.02075994839129272
v 3.005049432111613 -0.2176524945744313 0.02294634453625491
v 3.04875572503916 -0.655592429197859 0.4586998830147204
v 3.4845092635176256 -0.655592429197859 0.41499359008717285
v 3.4845092635176256 -0.2176524945744313 0.41499359008717285
v 3.04875572503916 -0.2176524945744313 0.4586998830147204
usemtl timber
f 269 271 270
f 269 272 271
f 273 274 275
f 273 275 276
f 269 270 274
f 269 274 273
f 270 271 275
f 270 275 274
f 271 272 276
f 271 276 275
f 272 269 273
f 272 273 276
o crate_2
v 3.245611129456566 -0.4730965135525912 0.0915973380446255
v 3.5485174635326664 -0.4730965135525912 -0.05707746599577934
v 3.5485174635326664 -0.13567030742764472 -0.05707746599577934
v 3.245611129456566 -0.13567030742764472 0.0915973380446255
v 3.394285933496971 -0.4730965135525912 0.39450367212072585
v 3.697192267573071 -0.4730965135525912 0.245828868080321
v 3.697192267573071 -0.13567030742764472 0.245828868080321
v 3.394285933496971 -0.13567030742764472 0.39450367212072585
usemtl timber
f 277 279 278
f 277 280 279
f 281 282 283
f 281 283 284
f 277 278 282
f 277 282 281
f 278 279 283
f 278 283 282
f 279 280 284
f 279 284 283
f 280 277 281
f 280 281 284
o crate_3
v 3.092842523925115 -1.2335549769131469 0.15744093086758149
v 3.4074108370886975 -1.2335549769131469 -0.07868125233881484
v 3.4074108370886975 -0.8402269852207975 -0.07868125233881484
v 3.092842523925115 -0.8402269852207975 0.15744093086758149
v 3.3289647071315116 -1.2335549769131469 0.4720092440311642
v 3.643533020295094 -1.2335549769131469 0.23588706082476785
v 3.643533020295094 -0.8402269852207975 0.23588706082476785
v 3.3289647071315116 -0.8402269852207975 0.4720092440311642
usemtl timber
f 285 287 286
f 285 288 287
f 289 290 291
f 289 291 292
f 285 286 290
f 285 290 289
f 286 287 291
f 286 291 290
f 287 288 292
f 287 292 291
f 288 285 289
f 288 289 292
o crate_4
v 3.2961955949649626 -1.68779959946638 0.008693506214893065
v 3.7811442792717043 -1.68779959946638 -0.008392603647946806
v 3.7811442792717043 -1.202550012592692 -0.008392603647946806
v 3.2961955949649626 -1.202550012592692 0.008693506214893065
v 3.3132817048278027 -1.68779959946638 0.4936421905216346
v 3.7982303891345444 -1.68779959946638 0.47655608065879473
v 3.7982303891345444 -1.202550012592692 0.47655608065879473
v 3.3132817048278027 -1.202550012592692 0.4936421905216346
usemtl timber
f 293 295 294
f 293 296 295
f 297 298 299
f 297 299 300
f 293 294 298
f 293 298 297
f 294 295 299
f 294 299 298
f 295 296 300
f 295 300 299
f 296 293 297
f 296 297 300
o crate_5
v 2.7520052863853626 -1.8725073559232988 0.17540942228798123
v 2.943406319379077 -1.8725073559232988 -0.0619186902059598
v 2.943406319379077 -1.567615590847563 -0.0619186902059598
v 2.7520052863853626 -1.567615590847563 0.17540942228798123
v 2.9893333988793036 -1.8725073559232988 0.3668104552816956
v 3.180734431873018 -1.8725073559232988 0.12948234278775456
v 3.180734431873018 -1.567615590847563 0.12948234278775456
v 2.9893333988793036 -1.567615590847563 0.3668104552816956
usemtl timber
f 301 303 302
f 301 304 303
f 305 306 307
f 305 307 308
f 301 302 306
f 301 306 305
f 302 303 307
f 302 307 306
f 303 304 308
f 303 308 307
f 304 301 305
f 304 305 308
o crate_6
v 2.5256041382152157 -1.245493307700381 0.10736500509788256
v 2.9338491577025785 -1.245493307700381 -0.07035792208355501
v 2.9338491577025785 -0.8002412051986904 -0.07035792208355501
v 2.5256041382152157 -0.8002412051986904 0.10736500509788256
v 2.7033270653966532 -1.245493307700381 0.5156100245852455
v 3.111572084884016 -1.245493307700381 0.3378870974038079
v 3.111572084884016 -0.8002412051986904 0.3378870974038079
v 2.7033270653966532 -0.8002412051986904 0.5156100245852455
usemtl timber
f 309 311 310
f 309 312 311
f 313 314 315
f 313 315 316
f 309 310 314
f 309 314 313
f 310 311 315
f 310 315 314
f 311 312 316
f 311 316 315
f 312 309 313
f 312 313 316
o debris_0
v -1.3865143903364614 -1.3795773324769778 0.2782676995507146
v -1.6897105560683026 -1.4400317632642718 -0.10404957662013592
v -1.7028793388295351 -1.1526721532062159 -0.13904521519226862
v -1.399683173097694 -1.0922177224189218 0.24327206097858192
v -1.3188507037919577 -1.382946607416822 0.22513988140879107
v -1.6220468695237988 -1.443401038204116 -0.15717739476205947
v -1.6352156522850314 -1.15604142814606 -0.19217303333419217
v -1.3320194865531902 -1.095586997358766 0.19014424283665837
usemtl board
f 317 319 318
f 317 320 319
f 321 322 323
f 321 323 324
f 317 318 322
f 317 322 321
f 318 319 323
f 318 323 322
f 319 320 324
f 319 324 323
f 320 317 321
f 320 321 324
o debris_1
v 0.7025680443902161 -2.7899625387604456 0.31228411554292446
v 0.3750470089953317 -2.7787597914982323 -0.16798359761496556
v 0.3976848656449977 -2.5780199335688287 -0.17873913294175042
v 0.7252059010398821 -2.589222680831042 0.3015285802161396
v 0.7725972126798194 -2.8004317414215274 0.2642831591889761
v 0.445076177284935 -2.789228994159314 -0.21598455396891392
v 0.467714033934601 -2.5884891362299105 -0.22674008929569878
v 0.7952350693294854 -2.599691883492124 0.25352762386219124
usemtl board
f 325 327 326
f 325 328 327
f 329 330 331
f 329 331 332
f 325 326 330
f 325 330 329
f 326 327 331
f 326 331 330
f 327 328 332
f 327 332 331
f 328 325 329
f 328 329 332
o debris_2
v 0.8550048937008677 -1.5511033972478652 0.1270141706815906
v 1.009169718805749 -1.5519177352999622 -0.0768517365247139
v 1.0031140596153894 -1.304528438182124 -0.08241925967684423
v 0.8489492345105082 -1.303714100130027 0.12144664752946029
v 0.9445027134600347 -1.5473898597773676 0.1946782143885683
v 1.098667538564916 -1.5482041978294647 -0.009187692817736223
v 1.0926118793745563 -1.3008149007116265 -0.014755215969866536
v 0.9384470542696751 -1.3000005626595295 0.18911069123643798
usemtl board
f 333 335 334
f 333 336 335
f 337 338 339
f 337 339 340
f 333 334 338
f 333 338 337
f 334 335 339
f 334 339 338
f 335 336 340
f 335 340 339
f 336 333 337
f 336 337 340
o debris_3
v 0.885944818774929 -2.1952803814833 0.20620112012363281
v 0.992653812551153 -2.177088769481453 -0.1426781470104497
v 0.9820074610339188 -2.0019900774488053 -0.136804292635179
v 0.8752984672576948 -2.020181689450652 0.21207497449890353
v 0.9798226078113831 -2.1905439363887704 0.2351617633296427
v 1.0865316015876072 -2.1723523243869236 -0.11371750380443982
v 1.0758852500703728 -1.9972536323542758 -0.1078436494291691
v 0.9691762562941488 -2.0154452443561226 0.2410356177049134
usemtl board
f 341 343 342
f 341 344 343
f 345 346 347
f 345 347 348
f 341 342 346
f 341 346 345
f 342 343 347
f 342 347 346
f 343 344 348
f 343 348 347
f 344 341 345
f 344 345 348
o debris_4
v -0.8998239336448117 -1.5526551578604026 0.03088569847097346
v -0.6434799000475868 -1.596285256408691 -0.02313276258806124
v -0.6125828017535884 -1.4081580691730253 -0.028459106766145006
v -0.8689268353508133 -1.3645279706247373 0.02555935429288969
v -0.8764467638396394 -1.5533380209243277 0.1423733504079201
v -0.6201027302424145 -1.5969681194726157 0.08835488934888541
v -0.589205631948416 -1.4088409322369504 0.08302854517080165
v -0.8455496655456409 -1.3652108336886621 0.13704700622983634
usemtl board
f 349 351 350
f 349 352 351
f 353 354 355
f 353 355 356
f 349 350 354
f 349 354 353
f 350 351 355
f 350 355 354
f 351 352 356
f 351 356 355
f 352 349 353
f 352 353 356
o deadGrowth
v 2.579217253076204 -2.495 0.17712405986170543
v 3.139558847147359 -2.495 -0.1522955782198714
v 3.139558847147359 -1.845 -0.1522955782198714
v 2.579217253076204 -1.845 0.17712405986170543
v 2.6704411528526406 -2.495 0.33229557821987143
v 3.2307827469237957 -2.495 0.0028759401382945776
v 3.2307827469237957 -1.845 0.0028759401382945776
v 2.6704411528526406 -1.845 0.33229557821987143
usemtl deadGreen
f 357 359 358
f 357 360 359
f 361 362 363
f 361 363 364
f 357 358 362
f 357 362 361
f 358 359 363
f 358 363 362
f 359 360 364
f 359 364 363
f 360 357 361
f 360 361 364
