mtllib worldforge_building_81234.mtl
# WorldForge 0.2.0
# building seed 81234
o foundation
v -3.4499999999999997 -2.5 0
v 3.4499999999999997 -2.5 0
v 3.4499999999999997 2.5 0
v -3.4499999999999997 2.5 0
v -3.4499999999999997 -2.5 0.28
v 3.4499999999999997 -2.5 0.28
v 3.4499999999999997 2.5 0.28
v -3.4499999999999997 2.5 0.28
usemtl stone
f 1 3 2
f 1 4 3
f 5 6 7
f 5 7 8
f 1 2 6
f 1 6 5
f 2 3 7
f 2 7 6
f 3 4 8
f 3 8 7
f 4 1 5
f 4 5 8
o plinth
v -3.4099999999999997 -2.46 0.28
v 3.4099999999999997 -2.46 0.28
v 3.4099999999999997 2.46 0.28
v -3.4099999999999997 2.46 0.28
v -3.4099999999999997 -2.46 0.38
v 3.4099999999999997 -2.46 0.38
v 3.4099999999999997 2.46 0.38
v -3.4099999999999997 2.46 0.38
usemtl stoneLight
f 9 11 10
f 9 12 11
f 13 14 15
f 13 15 16
f 9 10 14
f 9 14 13
f 10 11 15
f 10 15 14
f 11 12 16
f 11 16 15
f 12 9 13
f 12 13 16
o walls
v -3.4 -2.45 0.28000000000000025
v 3.4 -2.45 0.28000000000000025
v 3.4 2.45 0.28000000000000025
v -3.4 2.45 0.28000000000000025
v -3.4 -2.45 5.180000000000001
v 3.4 -2.45 5.180000000000001
v 3.4 2.45 5.180000000000001
v -3.4 2.45 5.180000000000001
usemtl wall
f 17 19 18
f 17 20 19
f 21 22 23
f 21 23 24
f 17 18 22
f 17 22 21
f 18 19 23
f 18 23 22
f 19 20 24
f 19 24 23
f 20 17 21
f 20 21 24
o rightWallTone
v 3.401 -2.39 0.33000000000000007
v 3.431 -2.39 0.33000000000000007
v 3.431 2.39 0.33000000000000007
v 3.401 2.39 0.33000000000000007
v 3.401 -2.39 5.130000000000001
v 3.431 -2.39 5.130000000000001
v 3.431 2.39 5.130000000000001
v 3.401 2.39 5.130000000000001
usemtl wallDark
f 25 27 26
f 25 28 27
f 29 30 31
f 29 31 32
f 25 26 30
f 25 30 29
f 26 27 31
f 26 31 30
f 27 28 32
f 27 32 31
f 28 25 29
f 28 29 32
o leftWallTone
v -3.431 -2.39 0.33000000000000007
v -3.401 -2.39 0.33000000000000007
v -3.401 2.39 0.33000000000000007
v -3.431 2.39 0.33000000000000007
v -3.431 -2.39 5.130000000000001
v -3.401 -2.39 5.130000000000001
v -3.401 2.39 5.130000000000001
v -3.431 2.39 5.130000000000001
usemtl wallDark
f 33 35 34
f 33 36 35
f 37 38 39
f 37 39 40
f 33 34 38
f 33 38 37
f 34 35 39
f 34 39 38
f 35 36 40
f 35 40 39
f 36 33 37
f 36 37 40
o frontPost_-3.06
v -3.13 -2.5405 0.31000000000000005
v -2.99 -2.5405 0.31000000000000005
v -2.99 -2.4555000000000002 0.31000000000000005
v -3.13 -2.4555000000000002 0.31000000000000005
v -3.13 -2.5405 5.15
v -2.99 -2.5405 5.15
v -2.99 -2.4555000000000002 5.15
v -3.13 -2.4555000000000002 5.15
usemtl timber
f 41 43 42
f 41 44 43
f 45 46 47
f 45 47 48
f 41 42 46
f 41 46 45
f 42 43 47
f 42 47 46
f 43 44 48
f 43 48 47
f 44 41 45
f 44 45 48
o backPost_-3.06
v -3.13 2.4555000000000002 0.31000000000000005
v -2.99 2.4555000000000002 0.31000000000000005
v -2.99 2.5405 0.31000000000000005
v -3.13 2.5405 0.31000000000000005
v -3.13 2.4555000000000002 5.15
v -2.99 2.4555000000000002 5.15
v -2.99 2.5405 5.15
v -3.13 2.5405 5.15
usemtl timber
f 49 51 50
f 49 52 51
f 53 54 55
f 53 55 56
f 49 50 54
f 49 54 53
f 50 51 55
f 50 55 54
f 51 52 56
f 51 56 55
f 52 49 53
f 52 53 56
o frontPost_-1.36
v -1.4300000000000002 -2.5405 0.31000000000000005
v -1.29 -2.5405 0.31000000000000005
v -1.29 -2.4555000000000002 0.31000000000000005
v -1.4300000000000002 -2.4555000000000002 0.31000000000000005
v -1.4300000000000002 -2.5405 5.15
v -1.29 -2.5405 5.15
v -1.29 -2.4555000000000002 5.15
v -1.4300000000000002 -2.4555000000000002 5.15
usemtl timber
f 57 59 58
f 57 60 59
f 61 62 63
f 61 63 64
f 57 58 62
f 57 62 61
f 58 59 63
f 58 63 62
f 59 60 64
f 59 64 63
f 60 57 61
f 60 61 64
o backPost_-1.36
v -1.4300000000000002 2.4555000000000002 0.31000000000000005
v -1.29 2.4555000000000002 0.31000000000000005
v -1.29 2.5405 0.31000000000000005
v -1.4300000000000002 2.5405 0.31000000000000005
v -1.4300000000000002 2.4555000000000002 5.15
v -1.29 2.4555000000000002 5.15
v -1.29 2.5405 5.15
v -1.4300000000000002 2.5405 5.15
usemtl timber
f 65 67 66
f 65 68 67
f 69 70 71
f 69 71 72
f 65 66 70
f 65 70 69
f 66 67 71
f 66 71 70
f 67 68 72
f 67 72 71
f 68 65 69
f 68 69 72
o frontPost_0.34
v 0.26999999999999985 -2.5405 0.31000000000000005
v 0.40999999999999986 -2.5405 0.31000000000000005
v 0.40999999999999986 -2.4555000000000002 0.31000000000000005
v 0.26999999999999985 -2.4555000000000002 0.31000000000000005
v 0.26999999999999985 -2.5405 5.15
v 0.40999999999999986 -2.5405 5.15
v 0.40999999999999986 -2.4555000000000002 5.15
v 0.26999999999999985 -2.4555000000000002 5.15
usemtl timber
f 73 75 74
f 73 76 75
f 77 78 79
f 77 79 80
f 73 74 78
f 73 78 77
f 74 75 79
f 74 79 78
f 75 76 80
f 75 80 79
f 76 73 77
f 76 77 80
o backPost_0.34
v 0.26999999999999985 2.4555000000000002 0.31000000000000005
v 0.40999999999999986 2.4555000000000002 0.31000000000000005
v 0.40999999999999986 2.5405 0.31000000000000005
v 0.26999999999999985 2.5405 0.31000000000000005
v 0.26999999999999985 2.4555000000000002 5.15
v 0.40999999999999986 2.4555000000000002 5.15
v 0.40999999999999986 2.5405 5.15
v 0.26999999999999985 2.5405 5.15
usemtl timber
f 81 83 82
f 81 84 83
f 85 86 87
f 85 87 88
f 81 82 86
f 81 86 85
f 82 83 87
f 82 87 86
f 83 84 88
f 83 88 87
f 84 81 85
f 84 85 88
o frontPost_2.04
v 1.97 -2.5405 0.31000000000000005
v 2.11 -2.5405 0.31000000000000005
v 2.11 -2.4555000000000002 0.31000000000000005
v 1.97 -2.4555000000000002 0.31000000000000005
v 1.97 -2.5405 5.15
v 2.11 -2.5405 5.15
v 2.11 -2.4555000000000002 5.15
v 1.97 -2.4555000000000002 5.15
usemtl timber
f 89 91 90
f 89 92 91
f 93 94 95
f 93 95 96
f 89 90 94
f 89 94 93
f 90 91 95
f 90 95 94
f 91 92 96
f 91 96 95
f 92 89 93
f 92 93 96
o backPost_2.04
v 1.97 2.4555000000000002 0.31000000000000005
v 2.11 2.4555000000000002 0.31000000000000005
v 2.11 2.5405 0.31000000000000005
v 1.97 2.5405 0.31000000000000005
v 1.97 2.4555000000000002 5.15
v 2.11 2.4555000000000002 5.15
v 2.11 2.5405 5.15
v 1.97 2.5405 5.15
usemtl timber
f 97 99 98
f 97 100 99
f 101 102 103
f 101 103 104
f 97 98 102
f 97 102 101
f 98 99 103
f 98 103 102
f 99 100 104
f 99 104 103
f 100 97 101
f 100 101 104
o frontBeam_1
v -3.34 -2.5405 2.4800000000000004
v 3.34 -2.5405 2.4800000000000004
v 3.34 -2.4555000000000002 2.4800000000000004
v -3.34 -2.4555000000000002 2.4800000000000004
v -3.34 -2.5405 2.62
v 3.34 -2.5405 2.62
v 3.34 -2.4555000000000002 2.62
v -3.34 -2.4555000000000002 2.62
usemtl timber
f 105 107 106
f 105 108 107
f 109 110 111
f 109 111 112
f 105 106 110
f 105 110 109
f 106 107 111
f 106 111 110
f 107 108 112
f 107 112 111
f 108 105 109
f 108 109 112
o backBeam_1
v -3.34 2.4555000000000002 2.4800000000000004
v 3.34 2.4555000000000002 2.4800000000000004
v 3.34 2.5405 2.4800000000000004
v -3.34 2.5405 2.4800000000000004
v -3.34 2.4555000000000002 2.62
v 3.34 2.4555000000000002 2.62
v 3.34 2.5405 2.62
v -3.34 2.5405 2.62
usemtl timber
f 113 115 114
f 113 116 115
f 117 118 119
f 117 119 120
f 113 114 118
f 113 118 117
f 114 115 119
f 114 119 118
f 115 116 120
f 115 120 119
f 116 113 117
f 116 117 120
o frontBeam_2
v -3.34 -2.5405 4.930000000000001
v 3.34 -2.5405 4.930000000000001
v 3.34 -2.4555000000000002 4.930000000000001
v -3.34 -2.4555000000000002 4.930000000000001
v -3.34 -2.5405 5.070000000000001
v 3.34 -2.5405 5.070000000000001
v 3.34 -2.4555000000000002 5.070000000000001
v -3.34 -2.4555000000000002 5.070000000000001
usemtl timber
f 121 123 122
f 121 124 123
f 125 126 127
f 125 127 128
f 121 122 126
f 121 126 125
f 122 123 127
f 122 127 126
f 123 124 128
f 123 128 127
f 124 121 125
f 124 125 128
o backBeam_2
v -3.34 2.4555000000000002 4.930000000000001
v 3.34 2.4555000000000002 4.930000000000001
v 3.34 2.5405 4.930000000000001
v -3.34 2.5405 4.930000000000001
v -3.34 2.4555000000000002 5.070000000000001
v 3.34 2.4555000000000002 5.070000000000001
v 3.34 2.5405 5.070000000000001
v -3.34 2.5405 5.070000000000001
usemtl timber
f 129 131 130
f 129 132 131
f 133 134 135
f 133 135 136
f 129 130 134
f 129 134 133
f 130 131 135
f 130 135 134
f 131 132 136
f 131 136 135
f 132 129 133
f 132 133 136
o rightPost_-1.95
v 3.4055 -2.02 0.31000000000000005
v 3.4905 -2.02 0.31000000000000005
v 3.4905 -1.8800000000000001 0.31000000000000005
v 3.4055 -1.8800000000000001 0.31000000000000005
v 3.4055 -2.02 5.15
v 3.4905 -2.02 5.15
v 3.4905 -1.8800000000000001 5.15
v 3.4055 -1.8800000000000001 5.15
usemtl timber
f 137 139 138
f 137 140 139
f 141 142 143
f 141 143 144
f 137 138 142
f 137 142 141
f 138 139 143
f 138 143 142
f 139 140 144
f 139 144 143
f 140 137 141
f 140 141 144
o leftPost_-1.95
v -3.4905 -2.02 0.31000000000000005
v -3.4055 -2.02 0.31000000000000005
v -3.4055 -1.8800000000000001 0.31000000000000005
v -3.4905 -1.8800000000000001 0.31000000000000005
v -3.4905 -2.02 5.15
v -3.4055 -2.02 5.15
v -3.4055 -1.8800000000000001 5.15
v -3.4905 -1.8800000000000001 5.15
usemtl timber
f 145 147 146
f 145 148 147
f 149 150 151
f 149 151 152
f 145 146 150
f 145 150 149
f 146 147 151
f 146 151 150
f 147 148 152
f 147 152 151
f 148 145 149
f 148 149 152
o rightPost_-0.42
v 3.4055 -0.4887500000000002 0.31000000000000005
v 3.4905 -0.4887500000000002 0.31000000000000005
v 3.4905 -0.34875000000000017 0.31000000000000005
v 3.4055 -0.34875000000000017 0.31000000000000005
v 3.4055 -0.4887500000000002 5.15
v 3.4905 -0.4887500000000002 5.15
v 3.4905 -0.34875000000000017 5.15
v 3.4055 -0.34875000000000017 5.15
usemtl timber
f 153 155 154
f 153 156 155
f 157 158 159
f 157 159 160
f 153 154 158
f 153 158 157
f 154 155 159
f 154 159 158
f 155 156 160
f 155 160 159
f 156 153 157
f 156 157 160
o leftPost_-0.42
v -3.4905 -0.4887500000000002 0.31000000000000005
v -3.4055 -0.4887500000000002 0.31000000000000005
v -3.4055 -0.34875000000000017 0.31000000000000005
v -3.4905 -0.34875000000000017 0.31000000000000005
v -3.4905 -0.4887500000000002 5.15
v -3.4055 -0.4887500000000002 5.15
v -3.4055 -0.34875000000000017 5.15
v -3.4905 -0.34875000000000017 5.15
usemtl timber
f 161 163 162
f 161 164 163
f 165 166 167
f 165 167 168
f 161 162 166
f 161 166 165
f 162 163 167
f 162 167 166
f 163 164 168
f 163 168 167
f 164 161 165
f 164 165 168
o rightPost_1.11
v 3.4055 1.0424999999999998 0.31000000000000005
v 3.4905 1.0424999999999998 0.31000000000000005
v 3.4905 1.1824999999999999 0.31000000000000005
v 3.4055 1.1824999999999999 0.31000000000000005
v 3.4055 1.0424999999999998 5.15
v 3.4905 1.0424999999999998 5.15
v 3.4905 1.1824999999999999 5.15
v 3.4055 1.1824999999999999 5.15
usemtl timber
f 169 171 170
f 169 172 171
f 173 174 175
f 173 175 176
f 169 170 174
f 169 174 173
f 170 171 175
f 170 175 174
f 171 172 176
f 171 176 175
f 172 169 173
f 172 173 176
o leftPost_1.11
v -3.4905 1.0424999999999998 0.31000000000000005
v -3.4055 1.0424999999999998 0.31000000000000005
v -3.4055 1.1824999999999999 0.31000000000000005
v -3.4905 1.1824999999999999 0.31000000000000005
v -3.4905 1.0424999999999998 5.15
v -3.4055 1.0424999999999998 5.15
v -3.4055 1.1824999999999999 5.15
v -3.4905 1.1824999999999999 5.15
usemtl timber
f 177 179 178
f 177 180 179
f 181 182 183
f 181 183 184
f 177 178 182
f 177 182 181
f 178 179 183
f 178 183 182
f 179 180 184
f 179 184 183
f 180 177 181
f 180 181 184
o rightBeam_1
v 3.4055 -2.3600000000000003 2.4800000000000004
v 3.4905 -2.3600000000000003 2.4800000000000004
v 3.4905 2.3600000000000003 2.4800000000000004
v 3.4055 2.3600000000000003 2.4800000000000004
v 3.4055 -2.3600000000000003 2.62
v 3.4905 -2.3600000000000003 2.62
v 3.4905 2.3600000000000003 2.62
v 3.4055 2.3600000000000003 2.62
usemtl timber
f 185 187 186
f 185 188 187
f 189 190 191
f 189 191 192
f 185 186 190
f 185 190 189
f 186 187 191
f 186 191 190
f 187 188 192
f 187 192 191
f 188 185 189
f 188 189 192
o leftBeam_1
v -3.4905 -2.3600000000000003 2.4800000000000004
v -3.4055 -2.3600000000000003 2.4800000000000004
v -3.4055 2.3600000000000003 2.4800000000000004
v -3.4905 2.3600000000000003 2.4800000000000004
v -3.4905 -2.3600000000000003 2.62
v -3.4055 -2.3600000000000003 2.62
v -3.4055 2.3600000000000003 2.62
v -3.4905 2.3600000000000003 2.62
usemtl timber
f 193 195 194
f 193 196 195
f 197 198 199
f 197 199 200
f 193 194 198
f 193 198 197
f 194 195 199
f 194 199 198
f 195 196 200
f 195 200 199
f 196 193 197
f 196 197 200
o rightBeam_2
v 3.4055 -2.3600000000000003 4.930000000000001
v 3.4905 -2.3600000000000003 4.930000000000001
v 3.4905 2.3600000000000003 4.930000000000001
v 3.4055 2.3600000000000003 4.930000000000001
v 3.4055 -2.3600000000000003 5.070000000000001
v 3.4905 -2.3600000000000003 5.070000000000001
v 3.4905 2.3600000000000003 5.070000000000001
v 3.4055 2.3600000000000003 5.070000000000001
usemtl timber
f 201 203 202
f 201 204 203
f 205 206 207
f 205 207 208
f 201 202 206
f 201 206 205
f 202 203 207
f 202 207 206
f 203 204 208
f 203 208 207
f 204 201 205
f 204 205 208
o leftBeam_2
v -3.4905 -2.3600000000000003 4.930000000000001
v -3.4055 -2.3600000000000003 4.930000000000001
v -3.4055 2.3600000000000003 4.930000000000001
v -3.4905 2.3600000000000003 4.930000000000001
v -3.4905 -2.3600000000000003 5.070000000000001
v -3.4055 -2.3600000000000003 5.070000000000001
v -3.4055 2.3600000000000003 5.070000000000001
v -3.4905 2.3600000000000003 5.070000000000001
usemtl timber
f 209 211 210
f 209 212 211
f 213 214 215
f 213 215 216
f 209 210 214
f 209 214 213
f 210 211 215
f 210 215 214
f 211 212 216
f 211 216 215
f 212 209 213
f 212 213 216
o mainRoof
v -3.71 -2.83 5.160000000000001
v 3.71 -2.83 5.160000000000001
v -3.71 2.83 5.160000000000001
v 3.71 2.83 5.160000000000001
v -3.71 0 7.799017693769583
v 3.71 0 7.799017693769583
usemtl roof
f 217 218 222
f 217 222 221
f 219 221 222
f 219 222 220
f 217 221 219
f 218 220 222
o ridgeCap
v -3.75 -0.05 7.789017693769583
v 3.75 -0.05 7.789017693769583
v 3.75 0.05 7.789017693769583
v -3.75 0.05 7.789017693769583
v -3.75 -0.05 7.8690176937695835
v 3.75 -0.05 7.8690176937695835
v 3.75 0.05 7.8690176937695835
v -3.75 0.05 7.8690176937695835
usemtl roofDark
f 223 225 224
f 223 226 225
f 227 228 229
f 227 229 230
f 223 224 228
f 223 228 227
f 224 225 229
f 224 229 228
f 225 226 230
f 225 230 229
f 226 223 227
f 226 227 230
o eaveTrimFront
v -3.8 -3.1799999999999997 5.110000000000001
v 3.8 -3.1799999999999997 5.110000000000001
v 3.8 -3.08 5.110000000000001
v -3.8 -3.08 5.110000000000001
v -3.8 -3.1799999999999997 5.190000000000001
v 3.8 -3.1799999999999997 5.190000000000001
v 3.8 -3.08 5.190000000000001
v -3.8 -3.08 5.190000000000001
usemtl timber
f 231 233 232
f 231 234 233
f 235 236 237
f 235 237 238
f 231 232 236
f 231 236 235
f 232 233 237
f 232 237 236
f 233 234 238
f 233 238 237
f 234 231 235
f 234 235 238
o eaveTrimBack
v -3.8 3.08 5.110000000000001
v 3.8 3.08 5.110000000000001
v 3.8 3.1799999999999997 5.110000000000001
v -3.8 3.1799999999999997 5.110000000000001
v -3.8 3.08 5.190000000000001
v 3.8 3.08 5.190000000000001
v 3.8 3.1799999999999997 5.190000000000001
v -3.8 3.1799999999999997 5.190000000000001
usemtl timber
f 239 241 240
f 239 242 241
f 243 244 245
f 243 245 246
f 239 240 244
f 239 244 243
f 240 241 245
f 240 245 244
f 241 242 246
f 241 246 245
f 242 239 243
f 242 243 246
o door
v -0.864645116198808 -2.5405 0.30000000000000004
v 0.15535488380119206 -2.5405 0.30000000000000004
v 0.15535488380119206 -2.4555000000000002 0.30000000000000004
v -0.864645116198808 -2.4555000000000002 0.30000000000000004
v -0.864645116198808 -2.5405 2.3200000000000003
v 0.15535488380119206 -2.5405 2.3200000000000003
v 0.15535488380119206 -2.4555000000000002 2.3200000000000003
v -0.864645116198808 -2.4555000000000002 2.3200000000000003
usemtl trim
f 247 249 248
f 247 250 249
f 251 252 253
f 251 253 254
f 247 248 252
f 247 252 251
f 248 249 253
f 248 253 252
f 249 250 254
f 249 254 253
f 250 247 251
f 250 251 254
o doorLintel
v -0.9346451161988079 -2.5420000000000003 2.23
v 0.225354883801192 -2.5420000000000003 2.23
v 0.225354883801192 -2.462 2.23
v -0.9346451161988079 -2.462 2.23
v -0.9346451161988079 -2.5420000000000003 2.3699999999999997
v 0.225354883801192 -2.5420000000000003 2.3699999999999997
v 0.225354883801192 -2.462 2.3699999999999997
v -0.9346451161988079 -2.462 2.3699999999999997
usemtl timber
f 255 257 256
f 255 258 257
f 259 260 261
f 259 261 262
f 255 256 260
f 255 260 259
f 256 257 261
f 256 261 260
f 257 258 262
f 257 262 261
f 258 255 259
f 258 259 262
o doorJambL
v -0.9346451161988081 -2.5370000000000004 0.29000000000000004
v -0.834645116198808 -2.5370000000000004 0.29000000000000004
v -0.834645116198808 -2.467 0.29000000000000004
v -0.9346451161988081 -2.467 0.29000000000000004
v -0.9346451161988081 -2.5370000000000004 2.33
v -0.834645116198808 -2.5370000000000004 2.33
v -0.834645116198808 -2.467 2.33
v -0.9346451161988081 -2.467 2.33
usemtl timber
f 263 265 264
f 263 266 265
f 267 268 269
f 267 269 270
f 263 264 268
f 263 268 267
f 264 265 269
f 264 269 268
f 265 266 270
f 265 270 269
f 266 263 267
f 266 267 270
o doorJambR
v 0.12535488380119209 -2.5370000000000004 0.29000000000000004
v 0.22535488380119206 -2.5370000000000004 0.29000000000000004
v 0.22535488380119206 -2.467 0.29000000000000004
v 0.12535488380119209 -2.467 0.29000000000000004
v 0.12535488380119209 -2.5370000000000004 2.33
v 0.22535488380119206 -2.5370000000000004 2.33
v 0.22535488380119206 -2.467 2.33
v 0.12535488380119209 -2.467 2.33
usemtl timber
f 271 273 272
f 271 274 273
f 275 276 277
f 275 277 278
f 271 272 276
f 271 276 275
f 272 273 277
f 272 277 276
f 273 274 278
f 273 278 277
f 274 271 275
f 274 275 278
o doorKnob
v -0.13464511619880795 -2.558 1.24
v -0.05464511619880794 -2.558 1.24
v -0.05464511619880794 -2.5380000000000003 1.24
v -0.13464511619880795 -2.5380000000000003 1.24
v -0.13464511619880795 -2.558 1.32
v -0.05464511619880794 -2.558 1.32
v -0.05464511619880794 -2.5380000000000003 1.32
v -0.13464511619880795 -2.5380000000000003 1.32
usemtl trim
f 279 281 280
f 279 282 281
f 283 284 285
f 283 285 286
f 279 280 284
f 279 284 283
f 280 281 285
f 280 285 284
f 281 282 286
f 281 286 285
f 282 279 283
f 282 283 286
o fwin_0_glass
v -2.993468720573699 -2.523 1.4441923439092936
v -2.3665312794263005 -2.523 1.4441923439092936
v -2.3665312794263005 -2.4730000000000003 1.4441923439092936
v -2.993468720573699 -2.4730000000000003 1.4441923439092936
v -2.993468720573699 -2.523 2.2158076560907065
v -2.3665312794263005 -2.523 2.2158076560907065
v -2.3665312794263005 -2.4730000000000003 2.2158076560907065
v -2.993468720573699 -2.4730000000000003 2.2158076560907065
usemtl glass
f 287 289 288
f 287 290 289
f 291 292 293
f 291 293 294
f 287 288 292
f 287 292 291
f 288 289 293
f 288 293 292
f 289 290 294
f 289 294 293
f 290 287 291
f 290 291 294
o fwin_0_frameTop
v -3.063468720573699 -2.5450000000000004 2.1836570180831476
v -2.2965312794263006 -2.5450000000000004 2.1836570180831476
v -2.2965312794263006 -2.475 2.1836570180831476
v -3.063468720573699 -2.475 2.1836570180831476
v -3.063468720573699 -2.5450000000000004 2.2479582940982654
v -2.2965312794263006 -2.5450000000000004 2.2479582940982654
v -2.2965312794263006 -2.475 2.2479582940982654
v -3.063468720573699 -2.475 2.2479582940982654
usemtl trim
f 295 297 296
f 295 298 297
f 299 300 301
f 299 301 302
f 295 296 300
f 295 300 299
f 296 297 301
f 296 301 300
f 297 298 302
f 297 302 301
f 298 295 299
f 298 299 302
o fwin_0_frameBottom
v -3.083468720573699 -2.5580000000000003 1.4120417059017347
v -2.2765312794263006 -2.5580000000000003 1.4120417059017347
v -2.2765312794263006 -2.4680000000000004 1.4120417059017347
v -3.083468720573699 -2.4680000000000004 1.4120417059017347
v -3.083468720573699 -2.5580000000000003 1.4763429819168525
v -2.2765312794263006 -2.5580000000000003 1.4763429819168525
v -2.2765312794263006 -2.4680000000000004 1.4763429819168525
v -3.083468720573699 -2.4680000000000004 1.4763429819168525
usemtl stoneLight
f 303 305 304
f 303 306 305
f 307 308 309
f 307 309 310
f 303 304 308
f 303 308 307
f 304 305 309
f 304 309 308
f 305 306 310
f 305 310 309
f 306 303 307
f 306 307 310
o fwin_0_frameL
v -3.025619358581258 -2.5450000000000004 1.3841923439092936
v -2.96131808256614 -2.5450000000000004 1.3841923439092936
v -2.96131808256614 -2.475 1.3841923439092936
v -3.025619358581258 -2.475 1.3841923439092936
v -3.025619358581258 -2.5450000000000004 2.2758076560907066
v -2.96131808256614 -2.5450000000000004 2.2758076560907066
v -2.96131808256614 -2.475 2.2758076560907066
v -3.025619358581258 -2.475 2.2758076560907066
usemtl trim
f 311 313 312
f 311 314 313
f 315 316 317
f 315 317 318
f 311 312 316
f 311 316 315
f 312 313 317
f 312 317 316
f 313 314 318
f 313 318 317
f 314 311 315
f 314 315 318
o fwin_0_frameR
v -2.3986819174338594 -2.5450000000000004 1.3841923439092936
v -2.3343806414187416 -2.5450000000000004 1.3841923439092936
v -2.3343806414187416 -2.475 1.3841923439092936
v -2.3986819174338594 -2.475 1.3841923439092936
v -2.3986819174338594 -2.5450000000000004 2.2758076560907066
v -2.3343806414187416 -2.5450000000000004 2.2758076560907066
v -2.3343806414187416 -2.475 2.2758076560907066
v -2.3986819174338594 -2.475 2.2758076560907066
usemtl trim
f 319 321 320
f 319 322 321
f 323 324 325
f 323 325 326
f 319 320 324
f 319 324 323
f 320 321 325
f 320 325 324
f 321 322 326
f 321 326 325
f 322 319 323
f 322 323 326
o fwin_0_mullionV
v -2.705077497645896 -2.5410000000000004 1.5041923439092935
v -2.6549225023541037 -2.5410000000000004 1.5041923439092935
v -2.6549225023541037 -2.511 1.5041923439092935
v -2.705077497645896 -2.511 1.5041923439092935
v -2.705077497645896 -2.5410000000000004 2.1558076560907065
v -2.6549225023541037 -2.5410000000000004 2.1558076560907065
v -2.6549225023541037 -2.511 2.1558076560907065
v -2.705077497645896 -2.511 2.1558076560907065
usemtl trim
f 327 329 328
f 327 330 329
f 331 332 333
f 331 333 334
f 327 328 332
f 327 332 331
f 328 329 333
f 328 333 332
f 329 330 334
f 329 334 333
f 330 327 331
f 330 331 334
o fwin_0_mullionH
v -2.933468720573699 -2.5410000000000004 1.8049225023541042
v -2.4265312794263005 -2.5410000000000004 1.8049225023541042
v -2.4265312794263005 -2.511 1.8049225023541042
v -2.933468720573699 -2.511 1.8049225023541042
v -2.933468720573699 -2.5410000000000004 1.855077497645896
v -2.4265312794263005 -2.5410000000000004 1.855077497645896
v -2.4265312794263005 -2.511 1.855077497645896
v -2.933468720573699 -2.511 1.855077497645896
usemtl trim
f 335 337 336
f 335 338 337
f 339 340 341
f 339 341 342
f 335 336 340
f 335 340 339
f 336 337 341
f 336 341 340
f 337 338 342
f 337 342 341
f 338 335 339
f 338 339 342
o fwin_0_shutterL
v -3.183468720573699 -2.5405 1.4241923439092936
v -3.043468720573699 -2.5405 1.4241923439092936
v -3.043468720573699 -2.4955000000000003 1.4241923439092936
v -3.183468720573699 -2.4955000000000003 1.4241923439092936
v -3.183468720573699 -2.5405 2.2358076560907065
v -3.043468720573699 -2.5405 2.2358076560907065
v -3.043468720573699 -2.4955000000000003 2.2358076560907065
v -3.183468720573699 -2.4955000000000003 2.2358076560907065
usemtl timber
f 343 345 344
f 343 346 345
f 347 348 349
f 347 349 350
f 343 344 348
f 343 348 347
f 344 345 349
f 344 349 348
f 345 346 350
f 345 350 349
f 346 343 347
f 346 347 350
o fwin_0_shutterR
v -2.3165312794263 -2.5405 1.4241923439092936
v -2.1765312794263005 -2.5405 1.4241923439092936
v -2.1765312794263005 -2.4955000000000003 1.4241923439092936
v -2.3165312794263 -2.4955000000000003 1.4241923439092936
v -2.3165312794263 -2.5405 2.2358076560907065
v -2.1765312794263005 -2.5405 2.2358076560907065
v -2.1765312794263005 -2.4955000000000003 2.2358076560907065
v -2.3165312794263 -2.4955000000000003 2.2358076560907065
usemtl timber
f 351 353 352
f 351 354 353
f 355 356 357
f 355 357 358
f 351 352 356
f 351 356 355
f 352 353 357
f 352 357 356
f 353 354 358
f 353 358 357
f 354 351 355
f 354 355 358
o fwin_1_glass
v 2.3527606819062257 -2.523 1.4272439161922783
v 3.0072393180937738 -2.523 1.4272439161922783
v 3.0072393180937738 -2.4730000000000003 1.4272439161922783
v 2.3527606819062257 -2.4730000000000003 1.4272439161922783
v 2.3527606819062257 -2.523 2.232756083807722
v 3.0072393180937738 -2.523 2.232756083807722
v 3.0072393180937738 -2.4730000000000003 2.232756083807722
v 2.3527606819062257 -2.4730000000000003 2.232756083807722
usemtl glass
f 359 361 360
f 359 362 361
f 363 364 365
f 363 365 366
f 359 360 364
f 359 364 363
f 360 361 365
f 360 365 364
f 361 362 366
f 361 366 365
f 362 359 363
f 362 363 366
o fwin_1_frameTop
v 2.282760681906226 -2.5450000000000004 2.199193076823745
v 3.0772393180937736 -2.5450000000000004 2.199193076823745
v 3.0772393180937736 -2.475 2.199193076823745
v 2.282760681906226 -2.475 2.199193076823745
v 2.282760681906226 -2.5450000000000004 2.266319090791699
v 3.0772393180937736 -2.5450000000000004 2.266319090791699
v 3.0772393180937736 -2.475 2.266319090791699
v 2.282760681906226 -2.475 2.266319090791699
usemtl trim
f 367 369 368
f 367 370 369
f 371 372 373
f 371 373 374
f 367 368 372
f 367 372 371
f 368 369 373
f 368 373 372
f 369 370 374
f 369 374 373
f 370 367 371
f 370 371 374
o fwin_1_frameBottom
v 2.262760681906226 -2.5580000000000003 1.3936809092083016
v 3.0972393180937736 -2.5580000000000003 1.3936809092083016
v 3.0972393180937736 -2.4680000000000004 1.3936809092083016
v 2.262760681906226 -2.4680000000000004 1.3936809092083016
v 2.262760681906226 -2.5580000000000003 1.460806923176255
v 3.0972393180937736 -2.5580000000000003 1.460806923176255
v 3.0972393180937736 -2.4680000000000004 1.460806923176255
v 2.262760681906226 -2.4680000000000004 1.460806923176255
usemtl stoneLight
f 375 377 376
f 375 378 377
f 379 380 381
f 379 381 382
f 375 376 380
f 375 380 379
f 376 377 381
f 376 381 380
f 377 378 382
f 377 382 381
f 378 375 379
f 378 379 382
o fwin_1_frameL
v 2.3191976749222487 -2.5450000000000004 1.3672439161922783
v 2.3863236888902026 -2.5450000000000004 1.3672439161922783
v 2.3863236888902026 -2.475 1.3672439161922783
v 2.3191976749222487 -2.475 1.3672439161922783
v 2.3191976749222487 -2.5450000000000004 2.292756083807722
v 2.3863236888902026 -2.5450000000000004 2.292756083807722
v 2.3863236888902026 -2.475 2.292756083807722
v 2.3191976749222487 -2.475 2.292756083807722
usemtl trim
f 383 385 384
f 383 386 385
f 387 388 389
f 387 389 390
f 383 384 388
f 383 388 387
f 384 385 389
f 384 389 388
f 385 386 390
f 385 390 389
f 386 383 387
f 386 387 390
o fwin_1_frameR
v 2.973676311109797 -2.5450000000000004 1.3672439161922783
v 3.0408023250777507 -2.5450000000000004 1.3672439161922783
v 3.0408023250777507 -2.475 1.3672439161922783
v 2.973676311109797 -2.475 1.3672439161922783
v 2.973676311109797 -2.5450000000000004 2.292756083807722
v 3.0408023250777507 -2.5450000000000004 2.292756083807722
v 3.0408023250777507 -2.475 2.292756083807722
v 2.973676311109797 -2.475 2.292756083807722
usemtl trim
f 391 393 392
f 391 394 393
f 395 396 397
f 395 397 398
f 391 392 396
f 391 396 395
f 392 393 397
f 392 397 396
f 393 394 398
f 393 398 397
f 394 391 395
f 394 395 398
o fwin_1_mullionV
v 2.6538208545524977 -2.5410000000000004 1.4872439161922784
v 2.7061791454475017 -2.5410000000000004 1.4872439161922784
v 2.7061791454475017 -2.511 1.4872439161922784
v 2.6538208545524977 -2.511 1.4872439161922784
v 2.6538208545524977 -2.5410000000000004 2.172756083807722
v 2.7061791454475017 -2.5410000000000004 2.172756083807722
v 2.7061791454475017 -2.511 2.172756083807722
v 2.6538208545524977 -2.511 2.172756083807722
usemtl trim
f 399 401 400
f 399 402 401
f 403 404 405
f 403 405 406
f 399 400 404
f 399 404 403
f 400 401 405
f 400 405 404
f 401 402 406
f 401 406 405
f 402 399 403
f 402 403 406
o fwin_1_mullionH
v 2.4127606819062257 -2.5410000000000004 1.803820854552498
v 2.9472393180937737 -2.5410000000000004 1.803820854552498
v 2.9472393180937737 -2.511 1.803820854552498
v 2.4127606819062257 -2.511 1.803820854552498
v 2.4127606819062257 -2.5410000000000004 1.856179145447502
v 2.9472393180937737 -2.5410000000000004 1.856179145447502
v 2.9472393180937737 -2.511 1.856179145447502
v 2.4127606819062257 -2.511 1.856179145447502
usemtl trim
f 407 409 408
f 407 410 409
f 411 412 413
f 411 413 414
f 407 408 412
f 407 412 411
f 408 409 413
f 408 413 412
f 409 410 414
f 409 414 413
f 410 407 411
f 410 411 414
o fwin_2_glass
v -3.0179239234258652 -2.523 3.8640936327066275
v -2.342076076574134 -2.523 3.8640936327066275
v -2.342076076574134 -2.4730000000000003 3.8640936327066275
v -3.0179239234258652 -2.4730000000000003 3.8640936327066275
v -3.0179239234258652 -2.523 4.695906367293373
v -2.342076076574134 -2.523 4.695906367293373
v -2.342076076574134 -2.4730000000000003 4.695906367293373
v -3.0179239234258652 -2.4730000000000003 4.695906367293373
usemtl glass
f 415 417 416
f 415 418 417
f 419 420 421
f 419 421 422
f 415 416 420
f 415 420 419
f 416 417 421
f 416 421 420
f 417 418 422
f 417 422 421
f 418 415 419
f 418 419 422
o fwin_2_frameTop
v -3.087923923425865 -2.5450000000000004 4.661247503352259
v -2.2720760765741344 -2.5450000000000004 4.661247503352259
v -2.2720760765741344 -2.475 4.661247503352259
v -3.087923923425865 -2.475 4.661247503352259
v -3.087923923425865 -2.5450000000000004 4.730565231234488
v -2.2720760765741344 -2.5450000000000004 4.730565231234488
v -2.2720760765741344 -2.475 4.730565231234488
v -3.087923923425865 -2.475 4.730565231234488
usemtl trim
f 423 425 424
f 423 426 425
f 427 428 429
f 427 429 430
f 423 424 428
f 423 428 427
f 424 425 429
f 424 429 428
f 425 426 430
f 425 430 429
f 426 423 427
f 426 427 430
o fwin_2_frameBottom
v -3.107923923425865 -2.5580000000000003 3.829434768765513
v -2.2520760765741343 -2.5580000000000003 3.829434768765513
v -2.2520760765741343 -2.4680000000000004 3.829434768765513
v -3.107923923425865 -2.4680000000000004 3.829434768765513
v -3.107923923425865 -2.5580000000000003 3.898752496647742
v -2.2520760765741343 -2.5580000000000003 3.898752496647742
v -2.2520760765741343 -2.4680000000000004 3.898752496647742
v -3.107923923425865 -2.4680000000000004 3.898752496647742
usemtl stoneLight
f 431 433 432
f 431 434 433
f 435 436 437
f 435 437 438
f 431 432 436
f 431 436 435
f 432 433 437
f 432 437 436
f 433 434 438
f 433 438 437
f 434 431 435
f 434 435 438
o fwin_2_frameL
v -3.0525827873669797 -2.5450000000000004 3.8040936327066275
v -2.9832650594847507 -2.5450000000000004 3.8040936327066275
v -2.9832650594847507 -2.475 3.8040936327066275
v -3.0525827873669797 -2.475 3.8040936327066275
v -3.0525827873669797 -2.5450000000000004 4.755906367293373
v -2.9832650594847507 -2.5450000000000004 4.755906367293373
v -2.9832650594847507 -2.475 4.755906367293373
v -3.0525827873669797 -2.475 4.755906367293373
usemtl trim
f 439 441 440
f 439 442 441
f 443 444 445
f 443 445 446
f 439 440 444
f 439 444 443
f 440 441 445
f 440 445 444
f 441 442 446
f 441 446 445
f 442 439 443
f 442 443 446
o fwin_2_frameR
v -2.3767349405152487 -2.5450000000000004 3.8040936327066275
v -2.3074172126330197 -2.5450000000000004 3.8040936327066275
v -2.3074172126330197 -2.475 3.8040936327066275
v -2.3767349405152487 -2.475 3.8040936327066275
v -2.3767349405152487 -2.5450000000000004 4.755906367293373
v -2.3074172126330197 -2.5450000000000004 4.755906367293373
v -2.3074172126330197 -2.475 4.755906367293373
v -2.3767349405152487 -2.475 4.755906367293373
usemtl trim
f 447 449 448
f 447 450 449
f 451 452 453
f 451 453 454
f 447 448 452
f 447 452 451
f 448 449 453
f 448 453 452
f 449 450 454
f 449 454 453
f 450 447 451
f 450 451 454
o fwin_2_mullionV
v -2.707033913874069 -2.5410000000000004 3.9240936327066276
v -2.6529660861259305 -2.5410000000000004 3.9240936327066276
v -2.6529660861259305 -2.511 3.9240936327066276
v -2.707033913874069 -2.511 3.9240936327066276
v -2.707033913874069 -2.5410000000000004 4.635906367293373
v -2.6529660861259305 -2.5410000000000004 4.635906367293373
v -2.6529660861259305 -2.511 4.635906367293373
v -2.707033913874069 -2.511 4.635906367293373
usemtl trim
f 455 457 456
f 455 458 457
f 459 460 461
f 459 461 462
f 455 456 460
f 455 460 459
f 456 457 461
f 456 461 460
f 457 458 462
f 457 462 461
f 458 455 459
f 458 459 462
o fwin_2_mullionH
v -2.957923923425865 -2.5410000000000004 4.252966086125931
v -2.4020760765741342 -2.5410000000000004 4.252966086125931
v -2.4020760765741342 -2.511 4.252966086125931
v -2.957923923425865 -2.511 4.252966086125931
v -2.957923923425865 -2.5410000000000004 4.307033913874069
v -2.4020760765741342 -2.5410000000000004 4.307033913874069
v -2.4020760765741342 -2.511 4.307033913874069
v -2.957923923425865 -2.511 4.307033913874069
usemtl trim
f 463 465 464
f 463 466 465
f 467 468 469
f 467 469 470
f 463 464 468
f 463 468 467
f 464 465 469
f 464 469 468
f 465 466 470
f 465 470 469
f 466 463 467
f 466 467 470
o fwin_2_shutterL
v -3.207923923425865 -2.5405 3.8440936327066275
v -3.0679239234258655 -2.5405 3.8440936327066275
v -3.0679239234258655 -2.4955000000000003 3.8440936327066275
v -3.207923923425865 -2.4955000000000003 3.8440936327066275
v -3.207923923425865 -2.5405 4.715906367293373
v -3.0679239234258655 -2.5405 4.715906367293373
v -3.0679239234258655 -2.4955000000000003 4.715906367293373
v -3.207923923425865 -2.4955000000000003 4.715906367293373
usemtl timber
f 471 473 472
f 471 474 473
f 475 476 477
f 475 477 478
f 471 472 476
f 471 476 475
f 472 473 477
f 472 477 476
f 473 474 478
f 473 478 477
f 474 471 475
f 474 475 478
o fwin_2_shutterR
v -2.292076076574134 -2.5405 3.8440936327066275
v -2.1520760765741342 -2.5405 3.8440936327066275
v -2.1520760765741342 -2.4955000000000003 3.8440936327066275
v -2.292076076574134 -2.4955000000000003 3.8440936327066275
v -2.292076076574134 -2.5405 4.715906367293373
v -2.1520760765741342 -2.5405 4.715906367293373
v -2.1520760765741342 -2.4955000000000003 4.715906367293373
v -2.292076076574134 -2.4955000000000003 4.715906367293373
usemtl timber
f 479 481 480
f 479 482 481
f 483 484 485
f 483 485 486
f 479 480 484
f 479 484 483
f 480 481 485
f 480 485 484
f 481 482 486
f 481 486 485
f 482 479 483
f 482 483 486
o fwin_3_glass
v -0.3430754596861079 -2.523 3.857753280386329
v 0.3430754596861079 -2.523 3.857753280386329
v 0.3430754596861079 -2.4730000000000003 3.857753280386329
v -0.3430754596861079 -2.4730000000000003 3.857753280386329
v -0.3430754596861079 -2.523 4.7022467196136715
v 0.3430754596861079 -2.523 4.7022467196136715
v 0.3430754596861079 -2.4730000000000003 4.7022467196136715
v -0.3430754596861079 -2.4730000000000003 4.7022467196136715
usemtl glass
f 487 489 488
f 487 490 489
f 491 492 493
f 491 493 494
f 487 488 492
f 487 492 491
f 488 489 493
f 488 493 492
f 489 490 494
f 489 494 493
f 490 487 491
f 490 491 494
o fwin_3_frameTop
v -0.4130754596861079 -2.5450000000000004 4.667059492979199
v 0.4130754596861079 -2.5450000000000004 4.667059492979199
v 0.4130754596861079 -2.475 4.667059492979199
v -0.4130754596861079 -2.475 4.667059492979199
v -0.4130754596861079 -2.5450000000000004 4.737433946248144
v 0.4130754596861079 -2.5450000000000004 4.737433946248144
v 0.4130754596861079 -2.475 4.737433946248144
v -0.4130754596861079 -2.475 4.737433946248144
usemtl trim
f 495 497 496
f 495 498 497
f 499 500 501
f 499 501 502
f 495 496 500
f 495 500 499
f 496 497 501
f 496 501 500
f 497 498 502
f 497 502 501
f 498 495 499
f 498 499 502
o fwin_3_frameBottom
v -0.43307545968610794 -2.5580000000000003 3.8225660537518564
v 0.43307545968610794 -2.5580000000000003 3.8225660537518564
v 0.43307545968610794 -2.4680000000000004 3.8225660537518564
v -0.43307545968610794 -2.4680000000000004 3.8225660537518564
v -0.43307545968610794 -2.5580000000000003 3.8929405070208016
v 0.43307545968610794 -2.5580000000000003 3.8929405070208016
v 0.43307545968610794 -2.4680000000000004 3.8929405070208016
v -0.43307545968610794 -2.4680000000000004 3.8929405070208016
usemtl stoneLight
f 503 505 504
f 503 506 505
f 507 508 509
f 507 509 510
f 503 504 508
f 503 508 507
f 504 505 509
f 504 509 508
f 505 506 510
f 505 510 509
f 506 503 507
f 506 507 510
o fwin_3_frameL
v -0.3782626863205805 -2.5450000000000004 3.797753280386329
v -0.3078882330516353 -2.5450000000000004 3.797753280386329
v -0.3078882330516353 -2.475 3.797753280386329
v -0.3782626863205805 -2.475 3.797753280386329
v -0.3782626863205805 -2.5450000000000004 4.762246719613671
v -0.3078882330516353 -2.5450000000000004 4.762246719613671
v -0.3078882330516353 -2.475 4.762246719613671
v -0.3782626863205805 -2.475 4.762246719613671
usemtl trim
f 511 513 512
f 511 514 513
f 515 516 517
f 515 517 518
f 511 512 516
f 511 516 515
f 512 513 517
f 512 517 516
f 513 514 518
f 513 518 517
f 514 511 515
f 514 515 518
o fwin_3_frameR
v 0.3078882330516353 -2.5450000000000004 3.797753280386329
v 0.3782626863205805 -2.5450000000000004 3.797753280386329
v 0.3782626863205805 -2.475 3.797753280386329
v 0.3078882330516353 -2.475 3.797753280386329
v 0.3078882330516353 -2.5450000000000004 4.762246719613671
v 0.3782626863205805 -2.5450000000000004 4.762246719613671
v 0.3782626863205805 -2.475 4.762246719613671
v 0.3078882330516353 -2.475 4.762246719613671
usemtl trim
f 519 521 520
f 519 522 521
f 523 524 525
f 523 525 526
f 519 520 524
f 519 524 523
f 520 521 525
f 520 525 524
f 521 522 526
f 521 526 525
f 522 519 523
f 522 523 526
o fwin_3_mullionV
v -0.027446036774888636 -2.5410000000000004 3.917753280386329
v 0.027446036774888636 -2.5410000000000004 3.917753280386329
v 0.027446036774888636 -2.511 3.917753280386329
v -0.027446036774888636 -2.511 3.917753280386329
v -0.027446036774888636 -2.5410000000000004 4.642246719613672
v 0.027446036774888636 -2.5410000000000004 4.642246719613672
v 0.027446036774888636 -2.511 4.642246719613672
v -0.027446036774888636 -2.511 4.642246719613672
usemtl trim
f 527 529 528
f 527 530 529
f 531 532 533
f 531 533 534
f 527 528 532
f 527 532 531
f 528 529 533
f 528 533 532
f 529 530 534
f 529 534 533
f 530 527 531
f 530 531 534
o fwin_3_mullionH
v -0.2830754596861079 -2.5410000000000004 4.252553963225112
v 0.2830754596861079 -2.5410000000000004 4.252553963225112
v 0.2830754596861079 -2.511 4.252553963225112
v -0.2830754596861079 -2.511 4.252553963225112
v -0.2830754596861079 -2.5410000000000004 4.307446036774889
v 0.2830754596861079 -2.5410000000000004 4.307446036774889
v 0.2830754596861079 -2.511 4.307446036774889
v -0.2830754596861079 -2.511 4.307446036774889
usemtl trim
f 535 537 536
f 535 538 537
f 539 540 541
f 539 541 542
f 535 536 540
f 535 540 539
f 536 537 541
f 536 541 540
f 537 538 542
f 537 542 541
f 538 535 539
f 538 539 542
o fwin_4_glass
v 2.340488187246024 -2.523 3.862139307379723
v 3.0195118127539753 -2.523 3.862139307379723
v 3.0195118127539753 -2.4730000000000003 3.862139307379723
v 2.340488187246024 -2.4730000000000003 3.862139307379723
v 2.340488187246024 -2.523 4.697860692620278
v 3.0195118127539753 -2.523 4.697860692620278
v 3.0195118127539753 -2.4730000000000003 4.697860692620278
v 2.340488187246024 -2.4730000000000003 4.697860692620278
usemtl glass
f 543 545 544
f 543 546 545
f 547 548 549
f 547 549 550
f 543 544 548
f 543 548 547
f 544 545 549
f 544 549 548
f 545 546 550
f 545 550 549
f 546 543 547
f 546 547 550
o fwin_4_frameTop
v 2.2704881872460243 -2.5450000000000004 4.663038968235255
v 3.089511812753975 -2.5450000000000004 4.663038968235255
v 3.089511812753975 -2.475 4.663038968235255
v 2.2704881872460243 -2.475 4.663038968235255
v 2.2704881872460243 -2.5450000000000004 4.732682417005301
v 3.089511812753975 -2.5450000000000004 4.732682417005301
v 3.089511812753975 -2.475 4.732682417005301
v 2.2704881872460243 -2.475 4.732682417005301
usemtl trim
f 551 553 552
f 551 554 553
f 555 556 557
f 555 557 558
f 551 552 556
f 551 556 555
f 552 553 557
f 552 557 556
f 553 554 558
f 553 558 557
f 554 551 555
f 554 555 558
o fwin_4_frameBottom
v 2.2504881872460243 -2.5580000000000003 3.8273175829947
v 3.109511812753975 -2.5580000000000003 3.8273175829947
v 3.109511812753975 -2.4680000000000004 3.8273175829947
v 2.2504881872460243 -2.4680000000000004 3.8273175829947
v 2.2504881872460243 -2.5580000000000003 3.896961031764746
v 3.109511812753975 -2.5580000000000003 3.896961031764746
v 3.109511812753975 -2.4680000000000004 3.896961031764746
v 2.2504881872460243 -2.4680000000000004 3.896961031764746
usemtl stoneLight
f 559 561 560
f 559 562 561
f 563 564 565
f 563 565 566
f 559 560 564
f 559 564 563
f 560 561 565
f 560 565 564
f 561 562 566
f 561 566 565
f 562 559 563
f 562 563 566
o fwin_4_frameL
v 2.305666462861001 -2.5450000000000004 3.802139307379723
v 2.375309911631047 -2.5450000000000004 3.802139307379723
v 2.375309911631047 -2.475 3.802139307379723
v 2.305666462861001 -2.475 3.802139307379723
v 2.305666462861001 -2.5450000000000004 4.7578606926202776
v 2.375309911631047 -2.5450000000000004 4.7578606926202776
v 2.375309911631047 -2.475 4.7578606926202776
v 2.305666462861001 -2.475 4.7578606926202776
usemtl trim
f 567 569 568
f 567 570 569
f 571 572 573
f 571 573 574
f 567 568 572
f 567 572 571
f 568 569 573
f 568 573 572
f 569 570 574
f 569 574 573
f 570 567 571
f 570 571 574
o fwin_4_frameR
v 2.984690088368952 -2.5450000000000004 3.802139307379723
v 3.0543335371389984 -2.5450000000000004 3.802139307379723
v 3.0543335371389984 -2.475 3.802139307379723
v 2.984690088368952 -2.475 3.802139307379723
v 2.984690088368952 -2.5450000000000004 4.7578606926202776
v 3.0543335371389984 -2.5450000000000004 4.7578606926202776
v 3.0543335371389984 -2.475 4.7578606926202776
v 2.984690088368952 -2.475 4.7578606926202776
usemtl trim
f 575 577 576
f 575 578 577
f 579 580 581
f 579 581 582
f 575 576 580
f 575 580 579
f 576 577 581
f 576 581 580
f 577 578 582
f 577 582 581
f 578 575 579
f 578 579 582
o fwin_4_mullionV
v 2.652839054979682 -2.5410000000000004 3.922139307379723
v 2.7071609450203176 -2.5410000000000004 3.922139307379723
v 2.7071609450203176 -2.511 3.922139307379723
v 2.652839054979682 -2.511 3.922139307379723
v 2.652839054979682 -2.5410000000000004 4.6378606926202774
v 2.7071609450203176 -2.5410000000000004 4.6378606926202774
v 2.7071609450203176 -2.511 4.6378606926202774
v 2.652839054979682 -2.511 4.6378606926202774
usemtl trim
f 583 585 584
f 583 586 585
f 587 588 589
f 587 589 590
f 583 584 588
f 583 588 587
f 584 585 589
f 584 589 588
f 585 586 590
f 585 590 589
f 586 583 587
f 586 587 590
o fwin_4_mullionH
v 2.400488187246024 -2.5410000000000004 4.252839054979682
v 2.9595118127539752 -2.5410000000000004 4.252839054979682
v 2.9595118127539752 -2.511 4.252839054979682
v 2.400488187246024 -2.511 4.252839054979682
v 2.400488187246024 -2.5410000000000004 4.3071609450203185
v 2.9595118127539752 -2.5410000000000004 4.3071609450203185
v 2.9595118127539752 -2.511 4.3071609450203185
v 2.400488187246024 -2.511 4.3071609450203185
usemtl trim
f 591 593 592
f 591 594 593
f 595 596 597
f 595 597 598
f 591 592 596
f 591 596 595
f 592 593 597
f 592 597 596
f 593 594 598
f 593 598 597
f 594 591 595
f 594 595 598
o fwin_4_shutterL
v 2.150488187246024 -2.5405 3.842139307379723
v 2.290488187246024 -2.5405 3.842139307379723
v 2.290488187246024 -2.4955000000000003 3.842139307379723
v 2.150488187246024 -2.4955000000000003 3.842139307379723
v 2.150488187246024 -2.5405 4.7178606926202775
v 2.290488187246024 -2.5405 4.7178606926202775
v 2.290488187246024 -2.4955000000000003 4.7178606926202775
v 2.150488187246024 -2.4955000000000003 4.7178606926202775
usemtl timber
f 599 601 600
f 599 602 601
f 603 604 605
f 603 605 606
f 599 600 604
f 599 604 603
f 600 601 605
f 600 605 604
f 601 602 606
f 601 606 605
f 602 599 603
f 602 603 606
o fwin_4_shutterR
v 3.0695118127539756 -2.5405 3.842139307379723
v 3.2095118127539752 -2.5405 3.842139307379723
v 3.2095118127539752 -2.4955000000000003 3.842139307379723
v 3.0695118127539756 -2.4955000000000003 3.842139307379723
v 3.0695118127539756 -2.5405 4.7178606926202775
v 3.2095118127539752 -2.5405 4.7178606926202775
v 3.2095118127539752 -2.4955000000000003 4.7178606926202775
v 3.0695118127539756 -2.4955000000000003 4.7178606926202775
usemtl timber
f 607 609 608
f 607 610 609
f 611 612 613
f 611 613 614
f 607 608 612
f 607 612 611
f 608 609 613
f 608 613 612
f 609 610 614
f 609 614 613
f 610 607 611
f 610 611 614
o swin_r_5_glass
v 3.43 -1.8581000000000003 1.4208
v 3.48 -1.8581000000000003 1.4208
v 3.48 -1.2419000000000002 1.4208
v 3.43 -1.2419000000000002 1.4208
v 3.43 -1.8581000000000003 2.1792
v 3.48 -1.8581000000000003 2.1792
v 3.48 -1.2419000000000002 2.1792
v 3.43 -1.2419000000000002 2.1792
usemtl glass
f 615 617 616
f 615 618 617
f 619 620 621
f 619 621 622
f 615 616 620
f 615 620 619
f 616 617 621
f 616 621 620
f 617 618 622
f 617 622 621
f 618 615 619
f 618 619 622
o swin_r_5_frameTop
v 3.432 -1.9281000000000004 2.1475999999999997
v 3.5020000000000002 -1.9281000000000004 2.1475999999999997
v 3.5020000000000002 -1.1719000000000002 2.1475999999999997
v 3.432 -1.1719000000000002 2.1475999999999997
v 3.432 -1.9281000000000004 2.2108
v 3.5020000000000002 -1.9281000000000004 2.2108
v 3.5020000000000002 -1.1719000000000002 2.2108
v 3.432 -1.1719000000000002 2.2108
usemtl trim
f 623 625 624
f 623 626 625
f 627 628 629
f 627 629 630
f 623 624 628
f 623 628 627
f 624 625 629
f 624 629 628
f 625 626 630
f 625 630 629
f 626 623 627
f 626 627 630
o swin_r_5_frameBottom
v 3.4250000000000003 -1.9481000000000002 1.3892
v 3.515 -1.9481000000000002 1.3892
v 3.515 -1.1519000000000004 1.3892
v 3.4250000000000003 -1.1519000000000004 1.3892
v 3.4250000000000003 -1.9481000000000002 1.4524000000000001
v 3.515 -1.9481000000000002 1.4524000000000001
v 3.515 -1.1519000000000004 1.4524000000000001
v 3.4250000000000003 -1.1519000000000004 1.4524000000000001
usemtl stoneLight
f 631 633 632
f 631 634 633
f 635 636 637
f 635 637 638
f 631 632 636
f 631 636 635
f 632 633 637
f 632 637 636
f 633 634 638
f 633 638 637
f 634 631 635
f 634 635 638
o swin_r_5_frameL
v 3.432 -1.8897000000000004 1.3608
v 3.5020000000000002 -1.8897000000000004 1.3608
v 3.5020000000000002 -1.8265000000000002 1.3608
v 3.432 -1.8265000000000002 1.3608
v 3.432 -1.8897000000000004 2.2392
v 3.5020000000000002 -1.8897000000000004 2.2392
v 3.5020000000000002 -1.8265000000000002 2.2392
v 3.432 -1.8265000000000002 2.2392
usemtl trim
f 639 641 640
f 639 642 641
f 643 644 645
f 643 645 646
f 639 640 644
f 639 644 643
f 640 641 645
f 640 645 644
f 641 642 646
f 641 646 645
f 642 639 643
f 642 643 646
o swin_r_5_frameR
v 3.432 -1.2735000000000003 1.3608
v 3.5020000000000002 -1.2735000000000003 1.3608
v 3.5020000000000002 -1.2103000000000002 1.3608
v 3.432 -1.2103000000000002 1.3608
v 3.432 -1.2735000000000003 2.2392
v 3.5020000000000002 -1.2735000000000003 2.2392
v 3.5020000000000002 -1.2103000000000002 2.2392
v 3.432 -1.2103000000000002 2.2392
usemtl trim
f 647 649 648
f 647 650 649
f 651 652 653
f 651 653 654
f 647 648 652
f 647 652 651
f 648 649 653
f 648 653 652
f 649 650 654
f 649 654 653
f 650 647 651
f 650 651 654
o swin_r_5_mullionV
v 3.468 -1.5746480000000003 1.4808000000000001
v 3.498 -1.5746480000000003 1.4808000000000001
v 3.498 -1.5253520000000003 1.4808000000000001
v 3.468 -1.5253520000000003 1.4808000000000001
v 3.468 -1.5746480000000003 2.1192
v 3.498 -1.5746480000000003 2.1192
v 3.498 -1.5253520000000003 2.1192
v 3.468 -1.5253520000000003 2.1192
usemtl trim
f 655 657 656
f 655 658 657
f 659 660 661
f 659 661 662
f 655 656 660
f 655 660 659
f 656 657 661
f 656 661 660
f 657 658 662
f 657 662 661
f 658 655 659
f 658 659 662
o swin_r_5_mullionH
v 3.468 -1.7981000000000003 1.775352
v 3.498 -1.7981000000000003 1.775352
v 3.498 -1.3019000000000003 1.775352
v 3.468 -1.3019000000000003 1.775352
v 3.468 -1.7981000000000003 1.824648
v 3.498 -1.7981000000000003 1.824648
v 3.498 -1.3019000000000003 1.824648
v 3.468 -1.3019000000000003 1.824648
usemtl trim
f 663 665 664
f 663 666 665
f 667 668 669
f 667 669 670
f 663 664 668
f 663 668 667
f 664 665 669
f 664 669 668
f 665 666 670
f 665 670 669
f 666 663 667
f 666 667 670
o swin_r_5_shutterL
v 3.4525 -2.0481000000000003 1.4008
v 3.4975 -2.0481000000000003 1.4008
v 3.4975 -1.9081000000000004 1.4008
v 3.4525 -1.9081000000000004 1.4008
v 3.4525 -2.0481000000000003 2.1992000000000003
v 3.4975 -2.0481000000000003 2.1992000000000003
v 3.4975 -1.9081000000000004 2.1992000000000003
v 3.4525 -1.9081000000000004 2.1992000000000003
usemtl timber
f 671 673 672
f 671 674 673
f 675 676 677
f 675 677 678
f 671 672 676
f 671 676 675
f 672 673 677
f 672 677 676
f 673 674 678
f 673 678 677
f 674 671 675
f 674 675 678
o swin_r_5_shutterR
v 3.4525 -1.1919000000000002 1.4008
v 3.4975 -1.1919000000000002 1.4008
v 3.4975 -1.0519 1.4008
v 3.4525 -1.0519 1.4008
v 3.4525 -1.1919000000000002 2.1992000000000003
v 3.4975 -1.1919000000000002 2.1992000000000003
v 3.4975 -1.0519 2.1992000000000003
v 3.4525 -1.0519 2.1992000000000003
usemtl timber
f 679 681 680
f 679 682 681
f 683 684 685
f 683 685 686
f 679 680 684
f 679 684 683
f 680 681 685
f 680 685 684
f 681 682 686
f 681 686 685
f 682 679 683
f 682 683 686
o swin_r_6_glass
v 3.43 -0.2081000000000004 1.4208
v 3.48 -0.2081000000000004 1.4208
v 3.48 0.4080999999999997 1.4208
v 3.43 0.4080999999999997 1.4208
v 3.43 -0.2081000000000004 2.1792
v 3.48 -0.2081000000000004 2.1792
v 3.48 0.4080999999999997 2.1792
v 3.43 0.4080999999999997 2.1792
usemtl glass
f 687 689 688
f 687 690 689
f 691 692 693
f 691 693 694
f 687 688 692
f 687 692 691
f 688 689 693
f 688 693 692
f 689 690 694
f 689 694 693
f 690 687 691
f 690 691 694
o swin_r_6_frameTop
v 3.432 -0.2781000000000004 2.1475999999999997
v 3.5020000000000002 -0.2781000000000004 2.1475999999999997
v 3.5020000000000002 0.4780999999999997 2.1475999999999997
v 3.432 0.4780999999999997 2.1475999999999997
v 3.432 -0.2781000000000004 2.2108
v 3.5020000000000002 -0.2781000000000004 2.2108
v 3.5020000000000002 0.4780999999999997 2.2108
v 3.432 0.4780999999999997 2.2108
usemtl trim
f 695 697 696
f 695 698 697
f 699 700 701
f 699 701 702
f 695 696 700
f 695 700 699
f 696 697 701
f 696 701 700
f 697 698 702
f 697 702 701
f 698 695 699
f 698 699 702
o swin_r_6_frameBottom
v 3.4250000000000003 -0.29810000000000036 1.3892
v 3.515 -0.29810000000000036 1.3892
v 3.515 0.49809999999999965 1.3892
v 3.4250000000000003 0.49809999999999965 1.3892
v 3.4250000000000003 -0.29810000000000036 1.4524000000000001
v 3.515 -0.29810000000000036 1.4524000000000001
v 3.515 0.49809999999999965 1.4524000000000001
v 3.4250000000000003 0.49809999999999965 1.4524000000000001
usemtl stoneLight
f 703 705 704
f 703 706 705
f 707 708 709
f 707 709 710
f 703 704 708
f 703 708 707
f 704 705 709
f 704 709 708
f 705 706 710
f 705 710 709
f 706 703 707
f 706 707 710
o swin_r_6_frameL
v 3.432 -0.2397000000000004 1.3608
v 3.5020000000000002 -0.2397000000000004 1.3608
v 3.5020000000000002 -0.17650000000000038 1.3608
v 3.432 -0.17650000000000038 1.3608
v 3.432 -0.2397000000000004 2.2392
v 3.5020000000000002 -0.2397000000000004 2.2392
v 3.5020000000000002 -0.17650000000000038 2.2392
v 3.432 -0.17650000000000038 2.2392
usemtl trim
f 711 713 712
f 711 714 713
f 715 716 717
f 715 717 718
f 711 712 716
f 711 716 715
f 712 713 717
f 712 717 716
f 713 714 718
f 713 718 717
f 714 711 715
f 714 715 718
o swin_r_6_frameR
v 3.432 0.37649999999999967 1.3608
v 3.5020000000000002 0.37649999999999967 1.3608
v 3.5020000000000002 0.4396999999999997 1.3608
v 3.432 0.4396999999999997 1.3608
v 3.432 0.37649999999999967 2.2392
v 3.5020000000000002 0.37649999999999967 2.2392
v 3.5020000000000002 0.4396999999999997 2.2392
v 3.432 0.4396999999999997 2.2392
usemtl trim
f 719 721 720
f 719 722 721
f 723 724 725
f 723 725 726
f 719 720 724
f 719 724 723
f 720 721 725
f 720 725 724
f 721 722 726
f 721 726 725
f 722 719 723
f 722 723 726
o swin_r_6_mullionV
v 3.468 0.07535199999999964 1.4808000000000001
v 3.498 0.07535199999999964 1.4808000000000001
v 3.498 0.12464799999999965 1.4808000000000001
v 3.468 0.12464799999999965 1.4808000000000001
v 3.468 0.07535199999999964 2.1192
v 3.498 0.07535199999999964 2.1192
v 3.498 0.12464799999999965 2.1192
v 3.468 0.12464799999999965 2.1192
usemtl trim
f 727 729 728
f 727 730 729
f 731 732 733
f 731 733 734
f 727 728 732
f 727 732 731
f 728 729 733
f 728 733 732
f 729 730 734
f 729 734 733
f 730 727 731
f 730 731 734
o swin_r_6_mullionH
v 3.468 -0.1481000000000004 1.775352
v 3.498 -0.1481000000000004 1.775352
v 3.498 0.3480999999999997 1.775352
v 3.468 0.3480999999999997 1.775352
v 3.468 -0.1481000000000004 1.824648
v 3.498 -0.1481000000000004 1.824648
v 3.498 0.3480999999999997 1.824648
v 3.468 0.3480999999999997 1.824648
usemtl trim
f 735 737 736
f 735 738 737
f 739 740 741
f 739 741 742
f 735 736 740
f 735 740 739
f 736 737 741
f 736 741 740
f 737 738 742
f 737 742 741
f 738 735 739
f 738 739 742
o swin_r_7_glass
v 3.43 1.4418999999999995 1.4208
v 3.48 1.4418999999999995 1.4208
v 3.48 2.0580999999999996 1.4208
v 3.43 2.0580999999999996 1.4208
v 3.43 1.4418999999999995 2.1792
v 3.48 1.4418999999999995 2.1792
v 3.48 2.0580999999999996 2.1792
v 3.43 2.0580999999999996 2.1792
usemtl glass
f 743 745 744
f 743 746 745
f 747 748 749
f 747 749 750
f 743 744 748
f 743 748 747
f 744 745 749
f 744 749 748
f 745 746 750
f 745 750 749
f 746 743 747
f 746 747 750
o swin_r_7_frameTop
v 3.432 1.3718999999999995 2.1475999999999997
v 3.5020000000000002 1.3718999999999995 2.1475999999999997
v 3.5020000000000002 2.1280999999999994 2.1475999999999997
v 3.432 2.1280999999999994 2.1475999999999997
v 3.432 1.3718999999999995 2.2108
v 3.5020000000000002 1.3718999999999995 2.2108
v 3.5020000000000002 2.1280999999999994 2.2108
v 3.432 2.1280999999999994 2.2108
usemtl trim
f 751 753 752
f 751 754 753
f 755 756 757
f 755 757 758
f 751 752 756
f 751 756 755
f 752 753 757
f 752 757 756
f 753 754 758
f 753 758 757
f 754 751 755
f 754 755 758
o swin_r_7_frameBottom
v 3.4250000000000003 1.3518999999999997 1.3892
v 3.515 1.3518999999999997 1.3892
v 3.515 2.1480999999999995 1.3892
v 3.4250000000000003 2.1480999999999995 1.3892
v 3.4250000000000003 1.3518999999999997 1.4524000000000001
v 3.515 1.3518999999999997 1.4524000000000001
v 3.515 2.1480999999999995 1.4524000000000001
v 3.4250000000000003 2.1480999999999995 1.4524000000000001
usemtl stoneLight
f 759 761 760
f 759 762 761
f 763 764 765
f 763 765 766
f 759 760 764
f 759 764 763
f 760 761 765
f 760 765 764
f 761 762 766
f 761 766 765
f 762 759 763
f 762 763 766
o swin_r_7_frameL
v 3.432 1.4102999999999994 1.3608
v 3.5020000000000002 1.4102999999999994 1.3608
v 3.5020000000000002 1.4734999999999996 1.3608
v 3.432 1.4734999999999996 1.3608
v 3.432 1.4102999999999994 2.2392
v 3.5020000000000002 1.4102999999999994 2.2392
v 3.5020000000000002 1.4734999999999996 2.2392
v 3.432 1.4734999999999996 2.2392
usemtl trim
f 767 769 768
f 767 770 769
f 771 772 773
f 771 773 774
f 767 768 772
f 767 772 771
f 768 769 773
f 768 773 772
f 769 770 774
f 769 774 773
f 770 767 771
f 770 771 774
o swin_r_7_frameR
v 3.432 2.0264999999999995 1.3608
v 3.5020000000000002 2.0264999999999995 1.3608
v 3.5020000000000002 2.0896999999999997 1.3608
v 3.432 2.0896999999999997 1.3608
v 3.432 2.0264999999999995 2.2392
v 3.5020000000000002 2.0264999999999995 2.2392
v 3.5020000000000002 2.0896999999999997 2.2392
v 3.432 2.0896999999999997 2.2392
usemtl trim
f 775 777 776
f 775 778 777
f 779 780 781
f 779 781 782
f 775 776 780
f 775 780 779
f 776 777 781
f 776 781 780
f 777 778 782
f 777 782 781
f 778 775 779
f 778 779 782
o swin_r_7_mullionV
v 3.468 1.7253519999999996 1.4808000000000001
v 3.498 1.7253519999999996 1.4808000000000001
v 3.498 1.7746479999999996 1.4808000000000001
v 3.468 1.7746479999999996 1.4808000000000001
v 3.468 1.7253519999999996 2.1192
v 3.498 1.7253519999999996 2.1192
v 3.498 1.7746479999999996 2.1192
v 3.468 1.7746479999999996 2.1192
usemtl trim
f 783 785 784
f 783 786 785
f 787 788 789
f 787 789 790
f 783 784 788
f 783 788 787
f 784 785 789
f 784 789 788
f 785 786 790
f 785 790 789
f 786 783 787
f 786 787 790
o swin_r_7_mullionH
v 3.468 1.5018999999999996 1.775352
v 3.498 1.5018999999999996 1.775352
v 3.498 1.9980999999999995 1.775352
v 3.468 1.9980999999999995 1.775352
v 3.468 1.5018999999999996 1.824648
v 3.498 1.5018999999999996 1.824648
v 3.498 1.9980999999999995 1.824648
v 3.468 1.9980999999999995 1.824648
usemtl trim
f 791 793 792
f 791 794 793
f 795 796 797
f 795 797 798
f 791 792 796
f 791 796 795
f 792 793 797
f 792 797 796
f 793 794 798
f 793 798 797
f 794 791 795
f 794 795 798
o swin_l_8_glass
v -3.48 -1.5808000000000002 1.4544000000000001
v -3.43 -1.5808000000000002 1.4544000000000001
v -3.43 -1.0192000000000003 1.4544000000000001
v -3.48 -1.0192000000000003 1.4544000000000001
v -3.48 -1.5808000000000002 2.1456
v -3.43 -1.5808000000000002 2.1456
v -3.43 -1.0192000000000003 2.1456
v -3.48 -1.0192000000000003 2.1456
usemtl glass
f 799 801 800
f 799 802 801
f 803 804 805
f 803 805 806
f 799 800 804
f 799 804 803
f 800 801 805
f 800 805 804
f 801 802 806
f 801 806 805
f 802 799 803
f 802 803 806
o swin_l_8_frameTop
v -3.478 -1.6508000000000003 2.1168
v -3.408 -1.6508000000000003 2.1168
v -3.408 -0.9492000000000003 2.1168
v -3.478 -0.9492000000000003 2.1168
v -3.478 -1.6508000000000003 2.1744
v -3.408 -1.6508000000000003 2.1744
v -3.408 -0.9492000000000003 2.1744
v -3.478 -0.9492000000000003 2.1744
usemtl trim
f 807 809 808
f 807 810 809
f 811 812 813
f 811 813 814
f 807 808 812
f 807 812 811
f 808 809 813
f 808 813 812
f 809 810 814
f 809 814 813
f 810 807 811
f 810 811 814
o swin_l_8_frameBottom
v -3.485 -1.6708000000000003 1.4256000000000002
v -3.395 -1.6708000000000003 1.4256000000000002
v -3.395 -0.9292000000000002 1.4256000000000002
v -3.485 -0.9292000000000002 1.4256000000000002
v -3.485 -1.6708000000000003 1.4832
v -3.395 -1.6708000000000003 1.4832
v -3.395 -0.9292000000000002 1.4832
v -3.485 -0.9292000000000002 1.4832
usemtl stoneLight
f 815 817 816
f 815 818 817
f 819 820 821
f 819 821 822
f 815 816 820
f 815 820 819
f 816 817 821
f 816 821 820
f 817 818 822
f 817 822 821
f 818 815 819
f 818 819 822
o swin_l_8_frameL
v -3.478 -1.6096000000000001 1.3944
v -3.408 -1.6096000000000001 1.3944
v -3.408 -1.5520000000000003 1.3944
v -3.478 -1.5520000000000003 1.3944
v -3.478 -1.6096000000000001 2.2056
v -3.408 -1.6096000000000001 2.2056
v -3.408 -1.5520000000000003 2.2056
v -3.478 -1.5520000000000003 2.2056
usemtl trim
f 823 825 824
f 823 826 825
f 827 828 829
f 827 829 830
f 823 824 828
f 823 828 827
f 824 825 829
f 824 829 828
f 825 826 830
f 825 830 829
f 826 823 827
f 826 827 830
o swin_l_8_frameR
v -3.478 -1.0480000000000003 1.3944
v -3.408 -1.0480000000000003 1.3944
v -3.408 -0.9904000000000003 1.3944
v -3.478 -0.9904000000000003 1.3944
v -3.478 -1.0480000000000003 2.2056
v -3.408 -1.0480000000000003 2.2056
v -3.408 -0.9904000000000003 2.2056
v -3.478 -0.9904000000000003 2.2056
usemtl trim
f 831 833 832
f 831 834 833
f 835 836 837
f 835 837 838
f 831 832 836
f 831 836 835
f 832 833 837
f 832 837 836
f 833 834 838
f 833 838 837
f 834 831 835
f 834 835 838
o swin_l_8_mullionV
v -3.442 -1.3224640000000003 1.5144000000000002
v -3.412 -1.3224640000000003 1.5144000000000002
v -3.412 -1.2775360000000002 1.5144000000000002
v -3.442 -1.2775360000000002 1.5144000000000002
v -3.442 -1.3224640000000003 2.0856
v -3.412 -1.3224640000000003 2.0856
v -3.412 -1.2775360000000002 2.0856
v -3.442 -1.2775360000000002 2.0856
usemtl trim
f 839 841 840
f 839 842 841
f 843 844 845
f 843 845 846
f 839 840 844
f 839 844 843
f 840 841 845
f 840 845 844
f 841 842 846
f 841 846 845
f 842 839 843
f 842 843 846
o swin_l_8_mullionH
v -3.442 -1.5208000000000004 1.777536
v -3.412 -1.5208000000000004 1.777536
v -3.412 -1.0792000000000002 1.777536
v -3.442 -1.0792000000000002 1.777536
v -3.442 -1.5208000000000004 1.822464
v -3.412 -1.5208000000000004 1.822464
v -3.412 -1.0792000000000002 1.822464
v -3.442 -1.0792000000000002 1.822464
usemtl trim
f 847 849 848
f 847 850 849
f 851 852 853
f 851 853 854
f 847 848 852
f 847 852 851
f 848 849 853
f 848 853 852
f 849 850 854
f 849 854 853
f 850 847 851
f 850 851 854
o swin_l_9_glass
v -3.48 0.5191999999999999 1.4544000000000001
v -3.43 0.5191999999999999 1.4544000000000001
v -3.43 1.0807999999999998 1.4544000000000001
v -3.48 1.0807999999999998 1.4544000000000001
v -3.48 0.5191999999999999 2.1456
v -3.43 0.5191999999999999 2.1456
v -3.43 1.0807999999999998 2.1456
v -3.48 1.0807999999999998 2.1456
usemtl glass
f 855 857 856
f 855 858 857
f 859 860 861
f 859 861 862
f 855 856 860
f 855 860 859
f 856 857 861
f 856 861 860
f 857 858 862
f 857 862 861
f 858 855 859
f 858 859 862
o swin_l_9_frameTop
v -3.478 0.4491999999999998 2.1168
v -3.408 0.4491999999999998 2.1168
v -3.408 1.1507999999999998 2.1168
v -3.478 1.1507999999999998 2.1168
v -3.478 0.4491999999999998 2.1744
v -3.408 0.4491999999999998 2.1744
v -3.408 1.1507999999999998 2.1744
v -3.478 1.1507999999999998 2.1744
usemtl trim
f 863 865 864
f 863 866 865
f 867 868 869
f 867 869 870
f 863 864 868
f 863 868 867
f 864 865 869
f 864 869 868
f 865 866 870
f 865 870 869
f 866 863 867
f 866 867 870
o swin_l_9_frameBottom
v -3.485 0.4291999999999998 1.4256000000000002
v -3.395 0.4291999999999998 1.4256000000000002
v -3.395 1.1707999999999998 1.4256000000000002
v -3.485 1.1707999999999998 1.4256000000000002
v -3.485 0.4291999999999998 1.4832
v -3.395 0.4291999999999998 1.4832
v -3.395 1.1707999999999998 1.4832
v -3.485 1.1707999999999998 1.4832
usemtl stoneLight
f 871 873 872
f 871 874 873
f 875 876 877
f 875 877 878
f 871 872 876
f 871 876 875
f 872 873 877
f 872 877 876
f 873 874 878
f 873 878 877
f 874 871 875
f 874 875 878
o swin_l_9_frameL
v -3.478 0.4903999999999999 1.3944
v -3.408 0.4903999999999999 1.3944
v -3.408 0.5479999999999999 1.3944
v -3.478 0.5479999999999999 1.3944
v -3.478 0.4903999999999999 2.2056
v -3.408 0.4903999999999999 2.2056
v -3.408 0.5479999999999999 2.2056
v -3.478 0.5479999999999999 2.2056
usemtl trim
f 879 881 880
f 879 882 881
f 883 884 885
f 883 885 886
f 879 880 884
f 879 884 883
f 880 881 885
f 880 885 884
f 881 882 886
f 881 886 885
f 882 879 883
f 882 883 886
o swin_l_9_frameR
v -3.478 1.0519999999999998 1.3944
v -3.408 1.0519999999999998 1.3944
v -3.408 1.1095999999999997 1.3944
v -3.478 1.1095999999999997 1.3944
v -3.478 1.0519999999999998 2.2056
v -3.408 1.0519999999999998 2.2056
v -3.408 1.1095999999999997 2.2056
v -3.478 1.1095999999999997 2.2056
usemtl trim
f 887 889 888
f 887 890 889
f 891 892 893
f 891 893 894
f 887 888 892
f 887 892 891
f 888 889 893
f 888 893 892
f 889 890 894
f 889 894 893
f 890 887 891
f 890 891 894
o swin_l_9_mullionV
v -3.442 0.7775359999999998 1.5144000000000002
v -3.412 0.7775359999999998 1.5144000000000002
v -3.412 0.8224639999999999 1.5144000000000002
v -3.442 0.8224639999999999 1.5144000000000002
v -3.442 0.7775359999999998 2.0856
v -3.412 0.7775359999999998 2.0856
v -3.412 0.8224639999999999 2.0856
v -3.442 0.8224639999999999 2.0856
usemtl trim
f 895 897 896
f 895 898 897
f 899 900 901
f 899 901 902
f 895 896 900
f 895 900 899
f 896 897 901
f 896 901 900
f 897 898 902
f 897 902 901
f 898 895 899
f 898 899 902
o swin_l_9_mullionH
v -3.442 0.5791999999999998 1.777536
v -3.412 0.5791999999999998 1.777536
v -3.412 1.0208 1.777536
v -3.442 1.0208 1.777536
v -3.442 0.5791999999999998 1.822464
v -3.412 0.5791999999999998 1.822464
v -3.412 1.0208 1.822464
v -3.442 1.0208 1.822464
usemtl trim
f 903 905 904
f 903 906 905
f 907 908 909
f 907 909 910
f 903 904 908
f 903 908 907
f 904 905 909
f 904 909 908
f 905 906 910
f 905 910 909
f 906 903 907
f 906 907 910
o swin_r_10_glass
v 3.43 -1.8581000000000003 3.8708
v 3.48 -1.8581000000000003 3.8708
v 3.48 -1.2419000000000002 3.8708
v 3.43 -1.2419000000000002 3.8708
v 3.43 -1.8581000000000003 4.6292
v 3.48 -1.8581000000000003 4.6292
v 3.48 -1.2419000000000002 4.6292
v 3.43 -1.2419000000000002 4.6292
usemtl glass
f 911 913 912
f 911 914 913
f 915 916 917
f 915 917 918
f 911 912 916
f 911 916 915
f 912 913 917
f 912 917 916
f 913 914 918
f 913 918 917
f 914 911 915
f 914 915 918
o swin_r_10_frameTop
v 3.432 -1.9281000000000004 4.5976
v 3.5020000000000002 -1.9281000000000004 4.5976
v 3.5020000000000002 -1.1719000000000002 4.5976
v 3.432 -1.1719000000000002 4.5976
v 3.432 -1.9281000000000004 4.6608
v 3.5020000000000002 -1.9281000000000004 4.6608
v 3.5020000000000002 -1.1719000000000002 4.6608
v 3.432 -1.1719000000000002 4.6608
usemtl trim
f 919 921 920
f 919 922 921
f 923 924 925
f 923 925 926
f 919 920 924
f 919 924 923
f 920 921 925
f 920 925 924
f 921 922 926
f 921 926 925
f 922 919 923
f 922 923 926
o swin_r_10_frameBottom
v 3.4250000000000003 -1.9481000000000002 3.8392
v 3.515 -1.9481000000000002 3.8392
v 3.515 -1.1519000000000004 3.8392
v 3.4250000000000003 -1.1519000000000004 3.8392
v 3.4250000000000003 -1.9481000000000002 3.9024
v 3.515 -1.9481000000000002 3.9024
v 3.515 -1.1519000000000004 3.9024
v 3.4250000000000003 -1.1519000000000004 3.9024
usemtl stoneLight
f 927 929 928
f 927 930 929
f 931 932 933
f 931 933 934
f 927 928 932
f 927 932 931
f 928 929 933
f 928 933 932
f 929 930 934
f 929 934 933
f 930 927 931
f 930 931 934
o swin_r_10_frameL
v 3.432 -1.8897000000000004 3.8108
v 3.5020000000000002 -1.8897000000000004 3.8108
v 3.5020000000000002 -1.8265000000000002 3.8108
v 3.432 -1.8265000000000002 3.8108
v 3.432 -1.8897000000000004 4.6892
v 3.5020000000000002 -1.8897000000000004 4.6892
v 3.5020000000000002 -1.8265000000000002 4.6892
v 3.432 -1.8265000000000002 4.6892
usemtl trim
f 935 937 936
f 935 938 937
f 939 940 941
f 939 941 942
f 935 936 940
f 935 940 939
f 936 937 941
f 936 941 940
f 937 938 942
f 937 942 941
f 938 935 939
f 938 939 942
o swin_r_10_frameR
v 3.432 -1.2735000000000003 3.8108
v 3.5020000000000002 -1.2735000000000003 3.8108
v 3.5020000000000002 -1.2103000000000002 3.8108
v 3.432 -1.2103000000000002 3.8108
v 3.432 -1.2735000000000003 4.6892
v 3.5020000000000002 -1.2735000000000003 4.6892
v 3.5020000000000002 -1.2103000000000002 4.6892
v 3.432 -1.2103000000000002 4.6892
usemtl trim
f 943 945 944
f 943 946 945
f 947 948 949
f 947 949 950
f 943 944 948
f 943 948 947
f 944 945 949
f 944 949 948
f 945 946 950
f 945 950 949
f 946 943 947
f 946 947 950
o swin_r_10_mullionV
v 3.468 -1.5746480000000003 3.9308
v 3.498 -1.5746480000000003 3.9308
v 3.498 -1.5253520000000003 3.9308
v 3.468 -1.5253520000000003 3.9308
v 3.468 -1.5746480000000003 4.5692
v 3.498 -1.5746480000000003 4.5692
v 3.498 -1.5253520000000003 4.5692
v 3.468 -1.5253520000000003 4.5692
usemtl trim
f 951 953 952
f 951 954 953
f 955 956 957
f 955 957 958
f 951 952 956
f 951 956 955
f 952 953 957
f 952 957 956
f 953 954 958
f 953 958 957
f 954 951 955
f 954 955 958
o swin_r_10_mullionH
v 3.468 -1.7981000000000003 4.225352
v 3.498 -1.7981000000000003 4.225352
v 3.498 -1.3019000000000003 4.225352
v 3.468 -1.3019000000000003 4.225352
v 3.468 -1.7981000000000003 4.274648
v 3.498 -1.7981000000000003 4.274648
v 3.498 -1.3019000000000003 4.274648
v 3.468 -1.3019000000000003 4.274648
usemtl trim
f 959 961 960
f 959 962 961
f 963 964 965
f 963 965 966
f 959 960 964
f 959 964 963
f 960 961 965
f 960 965 964
f 961 962 966
f 961 966 965
f 962 959 963
f 962 963 966
o swin_r_11_glass
v 3.43 -0.2081000000000004 3.8708
v 3.48 -0.2081000000000004 3.8708
v 3.48 0.4080999999999997 3.8708
v 3.43 0.4080999999999997 3.8708
v 3.43 -0.2081000000000004 4.6292
v 3.48 -0.2081000000000004 4.6292
v 3.48 0.4080999999999997 4.6292
v 3.43 0.4080999999999997 4.6292
usemtl glass
f 967 969 968
f 967 970 969
f 971 972 973
f 971 973 974
f 967 968 972
f 967 972 971
f 968 969 973
f 968 973 972
f 969 970 974
f 969 974 973
f 970 967 971
f 970 971 974
o swin_r_11_frameTop
v 3.432 -0.2781000000000004 4.5976
v 3.5020000000000002 -0.2781000000000004 4.5976
v 3.5020000000000002 0.4780999999999997 4.5976
v 3.432 0.4780999999999997 4.5976
v 3.432 -0.2781000000000004 4.6608
v 3.5020000000000002 -0.2781000000000004 4.6608
v 3.5020000000000002 0.4780999999999997 4.6608
v 3.432 0.4780999999999997 4.6608
usemtl trim
f 975 977 976
f 975 978 977
f 979 980 981
f 979 981 982
f 975 976 980
f 975 980 979
f 976 977 981
f 976 981 980
f 977 978 982
f 977 982 981
f 978 975 979
f 978 979 982
o swin_r_11_frameBottom
v 3.4250000000000003 -0.29810000000000036 3.8392
v 3.515 -0.29810000000000036 3.8392
v 3.515 0.49809999999999965 3.8392
v 3.4250000000000003 0.49809999999999965 3.8392
v 3.4250000000000003 -0.29810000000000036 3.9024
v 3.515 -0.29810000000000036 3.9024
v 3.515 0.49809999999999965 3.9024
v 3.4250000000000003 0.49809999999999965 3.9024
usemtl stoneLight
f 983 985 984
f 983 986 985
f 987 988 989
f 987 989 990
f 983 984 988
f 983 988 987
f 984 985 989
f 984 989 988
f 985 986 990
f 985 990 989
f 986 983 987
f 986 987 990
o swin_r_11_frameL
v 3.432 -0.2397000000000004 3.8108
v 3.5020000000000002 -0.2397000000000004 3.8108
v 3.5020000000000002 -0.17650000000000038 3.8108
v 3.432 -0.17650000000000038 3.8108
v 3.432 -0.2397000000000004 4.6892
v 3.5020000000000002 -0.2397000000000004 4.6892
v 3.5020000000000002 -0.17650000000000038 4.6892
v 3.432 -0.17650000000000038 4.6892
usemtl trim
f 991 993 992
f 991 994 993
f 995 996 997
f 995 997 998
f 991 992 996
f 991 996 995
f 992 993 997
f 992 997 996
f 993 994 998
f 993 998 997
f 994 991 995
f 994 995 998
o swin_r_11_frameR
v 3.432 0.37649999999999967 3.8108
v 3.5020000000000002 0.37649999999999967 3.8108
v 3.5020000000000002 0.4396999999999997 3.8108
v 3.432 0.4396999999999997 3.8108
v 3.432 0.37649999999999967 4.6892
v 3.5020000000000002 0.37649999999999967 4.6892
v 3.5020000000000002 0.4396999999999997 4.6892
v 3.432 0.4396999999999997 4.6892
usemtl trim
f 999 1001 1000
f 999 1002 1001
f 1003 1004 1005
f 1003 1005 1006
f 999 1000 1004
f 999 1004 1003
f 1000 1001 1005
f 1000 1005 1004
f 1001 1002 1006
f 1001 1006 1005
f 1002 999 1003
f 1002 1003 1006
o swin_r_11_mullionV
v 3.468 0.07535199999999964 3.9308
v 3.498 0.07535199999999964 3.9308
v 3.498 0.12464799999999965 3.9308
v 3.468 0.12464799999999965 3.9308
v 3.468 0.07535199999999964 4.5692
v 3.498 0.07535199999999964 4.5692
v 3.498 0.12464799999999965 4.5692
v 3.468 0.12464799999999965 4.5692
usemtl trim
f 1007 1009 1008
f 1007 1010 1009
f 1011 1012 1013
f 1011 1013 1014
f 1007 1008 1012
f 1007 1012 1011
f 1008 1009 1013
f 1008 1013 1012
f 1009 1010 1014
f 1009 1014 1013
f 1010 1007 1011
f 1010 1011 1014
o swin_r_11_mullionH
v 3.468 -0.1481000000000004 4.225352
v 3.498 -0.1481000000000004 4.225352
v 3.498 0.3480999999999997 4.225352
v 3.468 0.3480999999999997 4.225352
v 3.468 -0.1481000000000004 4.274648
v 3.498 -0.1481000000000004 4.274648
v 3.498 0.3480999999999997 4.274648
v 3.468 0.3480999999999997 4.274648
usemtl trim
f 1015 1017 1016
f 1015 1018 1017
f 1019 1020 1021
f 1019 1021 1022
f 1015 1016 1020
f 1015 1020 1019
f 1016 1017 1021
f 1016 1021 1020
f 1017 1018 1022
f 1017 1022 1021
f 1018 1015 1019
f 1018 1019 1022
o swin_r_12_glass
v 3.43 1.4418999999999995 3.8708
v 3.48 1.4418999999999995 3.8708
v 3.48 2.0580999999999996 3.8708
v 3.43 2.0580999999999996 3.8708
v 3.43 1.4418999999999995 4.6292
v 3.48 1.4418999999999995 4.6292
v 3.48 2.0580999999999996 4.6292
v 3.43 2.0580999999999996 4.6292
usemtl glass
f 1023 1025 1024
f 1023 1026 1025
f 1027 1028 1029
f 1027 1029 1030
f 1023 1024 1028
f 1023 1028 1027
f 1024 1025 1029
f 1024 1029 1028
f 1025 1026 1030
f 1025 1030 1029
f 1026 1023 1027
f 1026 1027 1030
o swin_r_12_frameTop
v 3.432 1.3718999999999995 4.5976
v 3.5020000000000002 1.3718999999999995 4.5976
v 3.5020000000000002 2.1280999999999994 4.5976
v 3.432 2.1280999999999994 4.5976
v 3.432 1.3718999999999995 4.6608
v 3.5020000000000002 1.3718999999999995 4.6608
v 3.5020000000000002 2.1280999999999994 4.6608
v 3.432 2.1280999999999994 4.6608
usemtl trim
f 1031 1033 1032
f 1031 1034 1033
f 1035 1036 1037
f 1035 1037 1038
f 1031 1032 1036
f 1031 1036 1035
f 1032 1033 1037
f 1032 1037 1036
f 1033 1034 1038
f 1033 1038 1037
f 1034 1031 1035
f 1034 1035 1038
o swin_r_12_frameBottom
v 3.4250000000000003 1.3518999999999997 3.8392
v 3.515 1.3518999999999997 3.8392
v 3.515 2.1480999999999995 3.8392
v 3.4250000000000003 2.1480999999999995 3.8392
v 3.4250000000000003 1.3518999999999997 3.9024
v 3.515 1.3518999999999997 3.9024
v 3.515 2.1480999999999995 3.9024
v 3.4250000000000003 2.1480999999999995 3.9024
usemtl stoneLight
f 1039 1041 1040
f 1039 1042 1041
f 1043 1044 1045
f 1043 1045 1046
f 1039 1040 1044
f 1039 1044 1043
f 1040 1041 1045
f 1040 1045 1044
f 1041 1042 1046
f 1041 1046 1045
f 1042 1039 1043
f 1042 1043 1046
o swin_r_12_frameL
v 3.432 1.4102999999999994 3.8108
v 3.5020000000000002 1.4102999999999994 3.8108
v 3.5020000000000002 1.4734999999999996 3.8108
v 3.432 1.4734999999999996 3.8108
v 3.432 1.4102999999999994 4.6892
v 3.5020000000000002 1.4102999999999994 4.6892
v 3.5020000000000002 1.4734999999999996 4.6892
v 3.432 1.4734999999999996 4.6892
usemtl trim
f 1047 1049 1048
f 1047 1050 1049
f 1051 1052 1053
f 1051 1053 1054
f 1047 1048 1052
f 1047 1052 1051
f 1048 1049 1053
f 1048 1053 1052
f 1049 1050 1054
f 1049 1054 1053
f 1050 1047 1051
f 1050 1051 1054
o swin_r_12_frameR
v 3.432 2.0264999999999995 3.8108
v 3.5020000000000002 2.0264999999999995 3.8108
v 3.5020000000000002 2.0896999999999997 3.8108
v 3.432 2.0896999999999997 3.8108
v 3.432 2.0264999999999995 4.6892
v 3.5020000000000002 2.0264999999999995 4.6892
v 3.5020000000000002 2.0896999999999997 4.6892
v 3.432 2.0896999999999997 4.6892
usemtl trim
f 1055 1057 1056
f 1055 1058 1057
f 1059 1060 1061
f 1059 1061 1062
f 1055 1056 1060
f 1055 1060 1059
f 1056 1057 1061
f 1056 1061 1060
f 1057 1058 1062
f 1057 1062 1061
f 1058 1055 1059
f 1058 1059 1062
o swin_r_12_mullionV
v 3.468 1.7253519999999996 3.9308
v 3.498 1.7253519999999996 3.9308
v 3.498 1.7746479999999996 3.9308
v 3.468 1.7746479999999996 3.9308
v 3.468 1.7253519999999996 4.5692
v 3.498 1.7253519999999996 4.5692
v 3.498 1.7746479999999996 4.5692
v 3.468 1.7746479999999996 4.5692
usemtl trim
f 1063 1065 1064
f 1063 1066 1065
f 1067 1068 1069
f 1067 1069 1070
f 1063 1064 1068
f 1063 1068 1067
f 1064 1065 1069
f 1064 1069 1068
f 1065 1066 1070
f 1065 1070 1069
f 1066 1063 1067
f 1066 1067 1070
o swin_r_12_mullionH
v 3.468 1.5018999999999996 4.225352
v 3.498 1.5018999999999996 4.225352
v 3.498 1.9980999999999995 4.225352
v 3.468 1.9980999999999995 4.225352
v 3.468 1.5018999999999996 4.274648
v 3.498 1.5018999999999996 4.274648
v 3.498 1.9980999999999995 4.274648
v 3.468 1.9980999999999995 4.274648
usemtl trim
f 1071 1073 1072
f 1071 1074 1073
f 1075 1076 1077
f 1075 1077 1078
f 1071 1072 1076
f 1071 1076 1075
f 1072 1073 1077
f 1072 1077 1076
f 1073 1074 1078
f 1073 1078 1077
f 1074 1071 1075
f 1074 1075 1078
o swin_l_13_glass
v -3.48 -1.5808000000000002 3.9044
v -3.43 -1.5808000000000002 3.9044
v -3.43 -1.0192000000000003 3.9044
v -3.48 -1.0192000000000003 3.9044
v -3.48 -1.5808000000000002 4.5956
v -3.43 -1.5808000000000002 4.5956
v -3.43 -1.0192000000000003 4.5956
v -3.48 -1.0192000000000003 4.5956
usemtl glass
f 1079 1081 1080
f 1079 1082 1081
f 1083 1084 1085
f 1083 1085 1086
f 1079 1080 1084
f 1079 1084 1083
f 1080 1081 1085
f 1080 1085 1084
f 1081 1082 1086
f 1081 1086 1085
f 1082 1079 1083
f 1082 1083 1086
o swin_l_13_frameTop
v -3.478 -1.6508000000000003 4.5668
v -3.408 -1.6508000000000003 4.5668
v -3.408 -0.9492000000000003 4.5668
v -3.478 -0.9492000000000003 4.5668
v -3.478 -1.6508000000000003 4.6244000000000005
v -3.408 -1.6508000000000003 4.6244000000000005
v -3.408 -0.9492000000000003 4.6244000000000005
v -3.478 -0.9492000000000003 4.6244000000000005
usemtl trim
f 1087 1089 1088
f 1087 1090 1089
f 1091 1092 1093
f 1091 1093 1094
f 1087 1088 1092
f 1087 1092 1091
f 1088 1089 1093
f 1088 1093 1092
f 1089 1090 1094
f 1089 1094 1093
f 1090 1087 1091
f 1090 1091 1094
o swin_l_13_frameBottom
v -3.485 -1.6708000000000003 3.8756
v -3.395 -1.6708000000000003 3.8756
v -3.395 -0.9292000000000002 3.8756
v -3.485 -0.9292000000000002 3.8756
v -3.485 -1.6708000000000003 3.9332
v -3.395 -1.6708000000000003 3.9332
v -3.395 -0.9292000000000002 3.9332
v -3.485 -0.9292000000000002 3.9332
usemtl stoneLight
f 1095 1097 1096
f 1095 1098 1097
f 1099 1100 1101
f 1099 1101 1102
f 1095 1096 1100
f 1095 1100 1099
f 1096 1097 1101
f 1096 1101 1100
f 1097 1098 1102
f 1097 1102 1101
f 1098 1095 1099
f 1098 1099 1102
o swin_l_13_frameL
v -3.478 -1.6096000000000001 3.8444000000000003
v -3.408 -1.6096000000000001 3.8444000000000003
v -3.408 -1.5520000000000003 3.8444000000000003
v -3.478 -1.5520000000000003 3.8444000000000003
v -3.478 -1.6096000000000001 4.6556
v -3.408 -1.6096000000000001 4.6556
v -3.408 -1.5520000000000003 4.6556
v -3.478 -1.5520000000000003 4.6556
usemtl trim
f 1103 1105 1104
f 1103 1106 1105
f 1107 1108 1109
f 1107 1109 1110
f 1103 1104 1108
f 1103 1108 1107
f 1104 1105 1109
f 1104 1109 1108
f 1105 1106 1110
f 1105 1110 1109
f 1106 1103 1107
f 1106 1107 1110
o swin_l_13_frameR
v -3.478 -1.0480000000000003 3.8444000000000003
v -3.408 -1.0480000000000003 3.8444000000000003
v -3.408 -0.9904000000000003 3.8444000000000003
v -3.478 -0.9904000000000003 3.8444000000000003
v -3.478 -1.0480000000000003 4.6556
v -3.408 -1.0480000000000003 4.6556
v -3.408 -0.9904000000000003 4.6556
v -3.478 -0.9904000000000003 4.6556
usemtl trim
f 1111 1113 1112
f 1111 1114 1113
f 1115 1116 1117
f 1115 1117 1118
f 1111 1112 1116
f 1111 1116 1115
f 1112 1113 1117
f 1112 1117 1116
f 1113 1114 1118
f 1113 1118 1117
f 1114 1111 1115
f 1114 1115 1118
o swin_l_13_mullionV
v -3.442 -1.3224640000000003 3.9644
v -3.412 -1.3224640000000003 3.9644
v -3.412 -1.2775360000000002 3.9644
v -3.442 -1.2775360000000002 3.9644
v -3.442 -1.3224640000000003 4.5356
v -3.412 -1.3224640000000003 4.5356
v -3.412 -1.2775360000000002 4.5356
v -3.442 -1.2775360000000002 4.5356
usemtl trim
f 1119 1121 1120
f 1119 1122 1121
f 1123 1124 1125
f 1123 1125 1126
f 1119 1120 1124
f 1119 1124 1123
f 1120 1121 1125
f 1120 1125 1124
f 1121 1122 1126
f 1121 1126 1125
f 1122 1119 1123
f 1122 1123 1126
o swin_l_13_mullionH
v -3.442 -1.5208000000000004 4.227536
v -3.412 -1.5208000000000004 4.227536
v -3.412 -1.0792000000000002 4.227536
v -3.442 -1.0792000000000002 4.227536
v -3.442 -1.5208000000000004 4.272464
v -3.412 -1.5208000000000004 4.272464
v -3.412 -1.0792000000000002 4.272464
v -3.442 -1.0792000000000002 4.272464
usemtl trim
f 1127 1129 1128
f 1127 1130 1129
f 1131 1132 1133
f 1131 1133 1134
f 1127 1128 1132
f 1127 1132 1131
f 1128 1129 1133
f 1128 1133 1132
f 1129 1130 1134
f 1129 1134 1133
f 1130 1127 1131
f 1130 1131 1134
o swin_l_14_glass
v -3.48 0.5191999999999999 3.9044
v -3.43 0.5191999999999999 3.9044
v -3.43 1.0807999999999998 3.9044
v -3.48 1.0807999999999998 3.9044
v -3.48 0.5191999999999999 4.5956
v -3.43 0.5191999999999999 4.5956
v -3.43 1.0807999999999998 4.5956
v -3.48 1.0807999999999998 4.5956
usemtl glass
f 1135 1137 1136
f 1135 1138 1137
f 1139 1140 1141
f 1139 1141 1142
f 1135 1136 1140
f 1135 1140 1139
f 1136 1137 1141
f 1136 1141 1140
f 1137 1138 1142
f 1137 1142 1141
f 1138 1135 1139
f 1138 1139 1142
o swin_l_14_frameTop
v -3.478 0.4491999999999998 4.5668
v -3.408 0.4491999999999998 4.5668
v -3.408 1.1507999999999998 4.5668
v -3.478 1.1507999999999998 4.5668
v -3.478 0.4491999999999998 4.6244000000000005
v -3.408 0.4491999999999998 4.6244000000000005
v -3.408 1.1507999999999998 4.6244000000000005
v -3.478 1.1507999999999998 4.6244000000000005
usemtl trim
f 1143 1145 1144
f 1143 1146 1145
f 1147 1148 1149
f 1147 1149 1150
f 1143 1144 1148
f 1143 1148 1147
f 1144 1145 1149
f 1144 1149 1148
f 1145 1146 1150
f 1145 1150 1149
f 1146 1143 1147
f 1146 1147 1150
o swin_l_14_frameBottom
v -3.485 0.4291999999999998 3.8756
v -3.395 0.4291999999999998 3.8756
v -3.395 1.1707999999999998 3.8756
v -3.485 1.1707999999999998 3.8756
v -3.485 0.4291999999999998 3.9332
v -3.395 0.4291999999999998 3.9332
v -3.395 1.1707999999999998 3.9332
v -3.485 1.1707999999999998 3.9332
usemtl stoneLight
f 1151 1153 1152
f 1151 1154 1153
f 1155 1156 1157
f 1155 1157 1158
f 1151 1152 1156
f 1151 1156 1155
f 1152 1153 1157
f 1152 1157 1156
f 1153 1154 1158
f 1153 1158 1157
f 1154 1151 1155
f 1154 1155 1158
o swin_l_14_frameL
v -3.478 0.4903999999999999 3.8444000000000003
v -3.408 0.4903999999999999 3.8444000000000003
v -3.408 0.5479999999999999 3.8444000000000003
v -3.478 0.5479999999999999 3.8444000000000003
v -3.478 0.4903999999999999 4.6556
v -3.408 0.4903999999999999 4.6556
v -3.408 0.5479999999999999 4.6556
v -3.478 0.5479999999999999 4.6556
usemtl trim
f 1159 1161 1160
f 1159 1162 1161
f 1163 1164 1165
f 1163 1165 1166
f 1159 1160 1164
f 1159 1164 1163
f 1160 1161 1165
f 1160 1165 1164
f 1161 1162 1166
f 1161 1166 1165
f 1162 1159 1163
f 1162 1163 1166
o swin_l_14_frameR
v -3.478 1.0519999999999998 3.8444000000000003
v -3.408 1.0519999999999998 3.8444000000000003
v -3.408 1.1095999999999997 3.8444000000000003
v -3.478 1.1095999999999997 3.8444000000000003
v -3.478 1.0519999999999998 4.6556
v -3.408 1.0519999999999998 4.6556
v -3.408 1.1095999999999997 4.6556
v -3.478 1.1095999999999997 4.6556
usemtl trim
f 1167 1169 1168
f 1167 1170 1169
f 1171 1172 1173
f 1171 1173 1174
f 1167 1168 1172
f 1167 1172 1171
f 1168 1169 1173
f 1168 1173 1172
f 1169 1170 1174
f 1169 1174 1173
f 1170 1167 1171
f 1170 1171 1174
o swin_l_14_mullionV
v -3.442 0.7775359999999998 3.9644
v -3.412 0.7775359999999998 3.9644
v -3.412 0.8224639999999999 3.9644
v -3.442 0.8224639999999999 3.9644
v -3.442 0.7775359999999998 4.5356
v -3.412 0.7775359999999998 4.5356
v -3.412 0.8224639999999999 4.5356
v -3.442 0.8224639999999999 4.5356
usemtl trim
f 1175 1177 1176
f 1175 1178 1177
f 1179 1180 1181
f 1179 1181 1182
f 1175 1176 1180
f 1175 1180 1179
f 1176 1177 1181
f 1176 1181 1180
f 1177 1178 1182
f 1177 1182 1181
f 1178 1175 1179
f 1178 1179 1182
o swin_l_14_mullionH
v -3.442 0.5791999999999998 4.227536
v -3.412 0.5791999999999998 4.227536
v -3.412 1.0208 4.227536
v -3.442 1.0208 4.227536
v -3.442 0.5791999999999998 4.272464
v -3.412 0.5791999999999998 4.272464
v -3.412 1.0208 4.272464
v -3.442 1.0208 4.272464
usemtl trim
f 1183 1185 1184
f 1183 1186 1185
f 1187 1188 1189
f 1187 1189 1190
f 1183 1184 1188
f 1183 1188 1187
f 1184 1185 1189
f 1184 1189 1188
f 1185 1186 1190
f 1185 1190 1189
f 1186 1183 1187
f 1186 1187 1190
o chimney
v 1.226 0.3960000000000002 5.380000000000001
v 1.766 0.3960000000000002 5.380000000000001
v 1.766 0.9760000000000002 5.380000000000001
v 1.226 0.9760000000000002 5.380000000000001
v 1.226 0.3960000000000002 7.100000000000001
v 1.766 0.3960000000000002 7.100000000000001
v 1.766 0.9760000000000002 7.100000000000001
v 1.226 0.9760000000000002 7.100000000000001
usemtl stone
f 1191 1193 1192
f 1191 1194 1193
f 1195 1196 1197
f 1195 1197 1198
f 1191 1192 1196
f 1191 1196 1195
f 1192 1193 1197
f 1192 1197 1196
f 1193 1194 1198
f 1193 1198 1197
f 1194 1191 1195
f 1194 1195 1198
o chimneyCap
v 1.146 0.31600000000000017 7.025000000000001
v 1.846 0.31600000000000017 7.025000000000001
v 1.846 1.056 7.025000000000001
v 1.146 1.056 7.025000000000001
v 1.146 0.31600000000000017 7.175000000000002
v 1.846 0.31600000000000017 7.175000000000002
v 1.846 1.056 7.175000000000002
v 1.146 1.056 7.175000000000002
usemtl stoneLight
f 1199 1201 1200
f 1199 1202 1201
f 1203 1204 1205
f 1203 1205 1206
f 1199 1200 1204
f 1199 1204 1203
f 1200 1201 1205
f 1200 1205 1204
f 1201 1202 1206
f 1201 1206 1205
f 1202 1199 1203
f 1202 1203 1206
o porchDeck
v -1.629645116198808 -3.6050000000000004 0.28
v 0.9203548838011919 -3.6050000000000004 0.28
v 0.9203548838011919 -2.455 0.28
v -1.629645116198808 -2.455 0.28
v -1.629645116198808 -3.6050000000000004 0.44000000000000006
v 0.9203548838011919 -3.6050000000000004 0.44000000000000006
v 0.9203548838011919 -2.455 0.44000000000000006
v -1.629645116198808 -2.455 0.44000000000000006
usemtl stoneLight
f 1207 1209 1208
f 1207 1210 1209
f 1211 1212 1213
f 1211 1213 1214
f 1207 1208 1212
f 1207 1212 1211
f 1208 1209 1213
f 1208 1213 1212
f 1209 1210 1214
f 1209 1214 1213
f 1210 1207 1211
f 1210 1211 1214
o step1
v -1.244645116198808 -3.8600000000000003 0
v 0.5353548838011921 -3.8600000000000003 0
v 0.5353548838011921 -3.4400000000000004 0
v -1.244645116198808 -3.4400000000000004 0
v -1.244645116198808 -3.8600000000000003 0.1
v 0.5353548838011921 -3.8600000000000003 0.1
v 0.5353548838011921 -3.4400000000000004 0.1
v -1.244645116198808 -3.4400000000000004 0.1
usemtl stoneLight
f 1215 1217 1216
f 1215 1218 1217
f 1219 1220 1221
f 1219 1221 1222
f 1215 1216 1220
f 1215 1220 1219
f 1216 1217 1221
f 1216 1221 1220
f 1217 1218 1222
f 1217 1222 1221
f 1218 1215 1219
f 1218 1219 1222
o step2
v -0.979645116198808 -4.05 0
v 0.27035488380119205 -4.05 0
v 0.27035488380119205 -3.77 0
v -0.979645116198808 -3.77 0
v -0.979645116198808 -4.05 0.08
v 0.27035488380119205 -4.05 0.08
v 0.27035488380119205 -3.77 0.08
v -0.979645116198808 -3.77 0.08
usemtl stoneLight
f 1223 1225 1224
f 1223 1226 1225
f 1227 1228 1229
f 1227 1229 1230
f 1223 1224 1228
f 1223 1228 1227
f 1224 1225 1229
f 1224 1229 1228
f 1225 1226 1230
f 1225 1230 1229
f 1226 1223 1227
f 1226 1227 1230
o porchPost_-1.27
v -1.334645116198808 -3.2700000000000005 0.37
v -1.2146451161988079 -3.2700000000000005 0.37
v -1.2146451161988079 -3.1500000000000004 0.37
v -1.334645116198808 -3.1500000000000004 0.37
v -1.334645116198808 -3.2700000000000005 2.19
v -1.2146451161988079 -3.2700000000000005 2.19
v -1.2146451161988079 -3.1500000000000004 2.19
v -1.334645116198808 -3.1500000000000004 2.19
usemtl timber
f 1231 1233 1232
f 1231 1234 1233
f 1235 1236 1237
f 1235 1237 1238
f 1231 1232 1236
f 1231 1236 1235
f 1232 1233 1237
f 1232 1237 1236
f 1233 1234 1238
f 1233 1238 1237
f 1234 1231 1235
f 1234 1235 1238
o porchPost_0.57
v 0.5053548838011921 -3.2700000000000005 0.37
v 0.6253548838011922 -3.2700000000000005 0.37
v 0.6253548838011922 -3.1500000000000004 0.37
v 0.5053548838011921 -3.1500000000000004 0.37
v 0.5053548838011921 -3.2700000000000005 2.19
v 0.6253548838011922 -3.2700000000000005 2.19
v 0.6253548838011922 -3.1500000000000004 2.19
v 0.5053548838011921 -3.1500000000000004 2.19
usemtl timber
f 1239 1241 1240
f 1239 1242 1241
f 1243 1244 1245
f 1243 1245 1246
f 1239 1240 1244
f 1239 1244 1243
f 1240 1241 1245
f 1240 1245 1244
f 1241 1242 1246
f 1241 1246 1245
f 1242 1239 1243
f 1242 1243 1246
o porchRail
v -1.484645116198808 -3.2600000000000002 1.95
v 0.7753548838011919 -3.2600000000000002 1.95
v 0.7753548838011919 -3.2000000000000006 1.95
v -1.484645116198808 -3.2000000000000006 1.95
v -1.484645116198808 -3.2600000000000002 2.05
v 0.7753548838011919 -3.2600000000000002 2.05
v 0.7753548838011919 -3.2000000000000006 2.05
v -1.484645116198808 -3.2000000000000006 2.05
usemtl timber
f 1247 1249 1248
f 1247 1250 1249
f 1251 1252 1253
f 1251 1253 1254
f 1247 1248 1252
f 1247 1252 1251
f 1248 1249 1253
f 1248 1253 1252
f 1249 1250 1254
f 1249 1254 1253
f 1250 1247 1251
f 1250 1251 1254
o porchRoof
v -1.654645116198808 -3.7950000000000004 2.5599999999999996
v 0.945354883801192 -3.7950000000000004 2.5599999999999996
v -1.654645116198808 -2.345 2.5599999999999996
v 0.945354883801192 -2.345 2.5599999999999996
v -1.654645116198808 -3.0700000000000003 2.9785789451624782
v 0.945354883801192 -3.0700000000000003 2.9785789451624782
usemtl roofDark
f 1255 1256 1260
f 1255 1260 1259
f 1257 1259 1260
f 1257 1260 1258
f 1255 1259 1257
f 1256 1258 1260
o extension
v 3.3723964336328205 -1.0625743366777898 0.28000000000000014
v 5.227603566367179 -1.0625743366777898 0.28000000000000014
v 5.227603566367179 1.6374256633222104 0.28000000000000014
v 3.3723964336328205 1.6374256633222104 0.28000000000000014
v 3.3723964336328205 -1.0625743366777898 2
v 5.227603566367179 -1.0625743366777898 2
v 5.227603566367179 1.6374256633222104 2
v 3.3723964336328205 1.6374256633222104 2
usemtl wall
f 1261 1263 1262
f 1261 1264 1263
f 1265 1266 1267
f 1265 1267 1268
f 1261 1262 1266
f 1261 1266 1265
f 1262 1263 1267
f 1262 1267 1266
f 1263 1264 1268
f 1263 1268 1267
f 1264 1261 1265
f 1264 1265 1268
o extensionTrim
v 3.3423964336328207 -1.1325743366777898 1.69
v 5.257603566367179 -1.1325743366777898 1.69
v 5.257603566367179 -1.0325743366777898 1.69
v 3.3423964336328207 -1.0325743366777898 1.69
v 3.3423964336328207 -1.1325743366777898 1.83
v 5.257603566367179 -1.1325743366777898 1.83
v 5.257603566367179 -1.0325743366777898 1.83
v 3.3423964336328207 -1.0325743366777898 1.83
usemtl timber
f 1269 1271 1270
f 1269 1272 1271
f 1273 1274 1275
f 1273 1275 1276
f 1269 1270 1274
f 1269 1274 1273
f 1270 1271 1275
f 1270 1275 1274
f 1271 1272 1276
f 1271 1276 1275
f 1272 1269 1273
f 1272 1273 1276
o extensionRoof
v 3.232396433632821 -1.20257433667779 1.97
v 5.367603566367179 -1.20257433667779 1.97
v 3.232396433632821 1.7774256633222105 1.97
v 5.367603566367179 1.7774256633222105 1.97
v 3.232396433632821 0.2874256633222103 2.937617313864291
v 5.367603566367179 0.2874256633222103 2.937617313864291
usemtl roofDark
f 1277 1278 1282
f 1277 1282 1281
f 1279 1281 1282
f 1279 1282 1280
f 1277 1281 1279
f 1278 1280 1282
o barrel_0_body
v 3.7091286687552927 -2.2153166163410063 0.01999999999999999
v 4.0491286687552925 -2.2153166163410063 0.01999999999999999
v 4.0491286687552925 -1.8753166163410064 0.01999999999999999
v 3.7091286687552927 -1.8753166163410064 0.01999999999999999
v 3.7091286687552927 -2.2153166163410063 0.45999999999999996
v 4.0491286687552925 -2.2153166163410063 0.45999999999999996
v 4.0491286687552925 -1.8753166163410064 0.45999999999999996
v 3.7091286687552927 -1.8753166163410064 0.45999999999999996
usemtl timber
f 1283 1285 1284
f 1283 1286 1285
f 1287 1288 1289
f 1287 1289 1290
f 1283 1284 1288
f 1283 1288 1287
f 1284 1285 1289
f 1284 1289 1288
f 1285 1286 1290
f 1285 1290 1289
f 1286 1283 1287
f 1286 1287 1290
o barrel_0_bandTop
v 3.6991286687552924 -2.2253166163410065 0.38
v 4.059128668755292 -2.2253166163410065 0.38
v 4.059128668755292 -1.8653166163410064 0.38
v 3.6991286687552924 -1.8653166163410064 0.38
v 3.6991286687552924 -2.2253166163410065 0.42000000000000004
v 4.059128668755292 -2.2253166163410065 0.42000000000000004
v 4.059128668755292 -1.8653166163410064 0.42000000000000004
v 3.6991286687552924 -1.8653166163410064 0.42000000000000004
usemtl dark
f 1291 1293 1292
f 1291 1294 1293
f 1295 1296 1297
f 1295 1297 1298
f 1291 1292 1296
f 1291 1296 1295
f 1292 1293 1297
f 1292 1297 1296
f 1293 1294 1298
f 1293 1298 1297
f 1294 1291 1295
f 1294 1295 1298
o barrel_0_bandMid
v 3.6991286687552924 -2.2253166163410065 0.22
v 4.059128668755292 -2.2253166163410065 0.22
v 4.059128668755292 -1.8653166163410064 0.22
v 3.6991286687552924 -1.8653166163410064 0.22
v 3.6991286687552924 -2.2253166163410065 0.26
v 4.059128668755292 -2.2253166163410065 0.26
v 4.059128668755292 -1.8653166163410064 0.26
v 3.6991286687552924 -1.8653166163410064 0.26
usemtl dark
f 1299 1301 1300
f 1299 1302 1301
f 1303 1304 1305
f 1303 1305 1306
f 1299 1300 1304
f 1299 1304 1303
f 1300 1301 1305
f 1300 1305 1304
f 1301 1302 1306
f 1301 1306 1305
f 1302 1299 1303
f 1302 1303 1306
o barrel_0_bandBot
v 3.6991286687552924 -2.2253166163410065 0.06
v 4.059128668755292 -2.2253166163410065 0.06
v 4.059128668755292 -1.8653166163410064 0.06
v 3.6991286687552924 -1.8653166163410064 0.06
v 3.6991286687552924 -2.2253166163410065 0.1
v 4.059128668755292 -2.2253166163410065 0.1
v 4.059128668755292 -1.8653166163410064 0.1
v 3.6991286687552924 -1.8653166163410064 0.1
usemtl dark
f 1307 1309 1308
f 1307 1310 1309
f 1311 1312 1313
f 1311 1313 1314
f 1307 1308 1312
f 1307 1312 1311
f 1308 1309 1313
f 1308 1313 1312
f 1309 1310 1314
f 1309 1314 1313
f 1310 1307 1311
f 1310 1311 1314
o crate_1
v 3.996467720537383 -1.4015546379890296 0.011988007134441037
v 4.304034054794665 -1.4015546379890296 -0.011121075258653412
v 4.304034054794665 -1.0931213718559594 -0.011121075258653412
v 3.996467720537383 -1.0931213718559594 0.011988007134441037
v 4.0195768029304775 -1.4015546379890296 0.3195543413917234
v 4.32714313718776 -1.4015546379890296 0.29644525899862895
v 4.32714313718776 -1.0931213718559594 0.29644525899862895
v 4.0195768029304775 -1.0931213718559594 0.3195543413917234
usemtl timber
f 1315 1317 1316
f 1315 1318 1317
f 1319 1320 1321
f 1319 1321 1322
f 1315 1316 1320
f 1315 1320 1319
f 1316 1317 1321
f 1316 1321 1320
f 1317 1318 1322
f 1317 1322 1321
f 1318 1315 1319
f 1318 1319 1322
o planter_front_box
v 0.685354883801192 -3.54 0
v 1.205354883801192 -3.54 0
v 1.205354883801192 -3.2 0
v 0.685354883801192 -3.2 0
v 0.685354883801192 -3.54 0.22
v 1.205354883801192 -3.54 0.22
v 1.205354883801192 -3.2 0.22
v 0.685354883801192 -3.2 0.22
usemtl timber
f 1323 1325 1324
f 1323 1326 1325
f 1327 1328 1329
f 1327 1329 1330
f 1323 1324 1328
f 1323 1328 1327
f 1324 1325 1329
f 1324 1329 1328
f 1325 1326 1330
f 1325 1330 1329
f 1326 1323 1327
f 1326 1327 1330
o planter_front_plant
v 0.7353548838011921 -3.5 0.18
v 1.155354883801192 -3.5 0.18
v 1.155354883801192 -3.24 0.18
v 0.7353548838011921 -3.24 0.18
v 0.7353548838011921 -3.5 0.42
v 1.155354883801192 -3.5 0.42
v 1.155354883801192 -3.24 0.42
v 0.7353548838011921 -3.24 0.42
usemtl deadGreen
f 1331 1333 1332
f 1331 1334 1333
f 1335 1336 1337
f 1335 1337 1338
f 1331 1332 1336
f 1331 1336 1335
f 1332 1333 1337
f 1332 1337 1336
f 1333 1334 1338
f 1333 1338 1337
f 1334 1331 1335
f 1334 1335 1338
