mtllib worldforge_building_184203.mtl
# WorldForge 0.2.0
# building seed 184203
o foundation
v -3.515 -2.39 0
v 3.515 -2.39 0
v 3.515 2.39 0
v -3.515 2.39 0
v -3.515 -2.39 0.42
v 3.515 -2.39 0.42
v 3.515 2.39 0.42
v -3.515 2.39 0.42
usemtl stone
f 1 3 2
f 1 4 3
f 5 6 7
f 5 7 8
f 1 2 6
f 1 6 5
f 2 3 7
f 2 7 6
f 3 4 8
f 3 8 7
f 4 1 5
f 4 5 8
o walls
v -3.375 -2.25 0.41999999999999993
v 3.375 -2.25 0.41999999999999993
v 3.375 2.25 0.41999999999999993
v -3.375 2.25 0.41999999999999993
v -3.375 -2.25 5.32
v 3.375 -2.25 5.32
v 3.375 2.25 5.32
v -3.375 2.25 5.32
usemtl wall
f 9 11 10
f 9 12 11
f 13 14 15
f 13 15 16
f 9 10 14
f 9 14 13
f 10 11 15
f 10 15 14
f 11 12 16
f 11 16 15
f 12 9 13
f 12 13 16
o rightWallTone
v 3.3754999999999997 -2.21 0.45999999999999996
v 3.4105 -2.21 0.45999999999999996
v 3.4105 2.21 0.45999999999999996
v 3.3754999999999997 2.21 0.45999999999999996
v 3.3754999999999997 -2.21 5.28
v 3.4105 -2.21 5.28
v 3.4105 2.21 5.28
v 3.3754999999999997 2.21 5.28
usemtl wallDark
f 17 19 18
f 17 20 19
f 21 22 23
f 21 23 24
f 17 18 22
f 17 22 21
f 18 19 23
f 18 23 22
f 19 20 24
f 19 24 23
f 20 17 21
f 20 21 24
o frontPost_-3.02
v -3.1 -2.34 0.45999999999999996
v -2.9499999999999997 -2.34 0.45999999999999996
v -2.9499999999999997 -2.25 0.45999999999999996
v -3.1 -2.25 0.45999999999999996
v -3.1 -2.34 5.28
v -2.9499999999999997 -2.34 5.28
v -2.9499999999999997 -2.25 5.28
v -3.1 -2.25 5.28
usemtl timber
f 25 27 26
f 25 28 27
f 29 30 31
f 29 31 32
f 25 26 30
f 25 30 29
f 26 27 31
f 26 31 30
f 27 28 32
f 27 32 31
f 28 25 29
f 28 29 32
o frontPost_-1.34
v -1.4124999999999999 -2.34 0.45999999999999996
v -1.2625 -2.34 0.45999999999999996
v -1.2625 -2.25 0.45999999999999996
v -1.4124999999999999 -2.25 0.45999999999999996
v -1.4124999999999999 -2.34 5.28
v -1.2625 -2.34 5.28
v -1.2625 -2.25 5.28
v -1.4124999999999999 -2.25 5.28
usemtl timber
f 33 35 34
f 33 36 35
f 37 38 39
f 37 39 40
f 33 34 38
f 33 38 37
f 34 35 39
f 34 39 38
f 35 36 40
f 35 40 39
f 36 33 37
f 36 37 40
o frontPost_0.35
v 0.2750000000000001 -2.34 0.45999999999999996
v 0.4250000000000001 -2.34 0.45999999999999996
v 0.4250000000000001 -2.25 0.45999999999999996
v 0.2750000000000001 -2.25 0.45999999999999996
v 0.2750000000000001 -2.34 5.28
v 0.4250000000000001 -2.34 5.28
v 0.4250000000000001 -2.25 5.28
v 0.2750000000000001 -2.25 5.28
usemtl timber
f 41 43 42
f 41 44 43
f 45 46 47
f 45 47 48
f 41 42 46
f 41 46 45
f 42 43 47
f 42 47 46
f 43 44 48
f 43 48 47
f 44 41 45
f 44 45 48
o frontPost_2.04
v 1.9625000000000001 -2.34 0.45999999999999996
v 2.1125000000000003 -2.34 0.45999999999999996
v 2.1125000000000003 -2.25 0.45999999999999996
v 1.9625000000000001 -2.25 0.45999999999999996
v 1.9625000000000001 -2.34 5.28
v 2.1125000000000003 -2.34 5.28
v 2.1125000000000003 -2.25 5.28
v 1.9625000000000001 -2.25 5.28
usemtl timber
f 49 51 50
f 49 52 51
f 53 54 55
f 53 55 56
f 49 50 54
f 49 54 53
f 50 51 55
f 50 55 54
f 51 52 56
f 51 56 55
f 52 49 53
f 52 53 56
o frontBeam_1
v -3.315 -2.34 2.6149999999999998
v 3.315 -2.34 2.6149999999999998
v 3.315 -2.25 2.6149999999999998
v -3.315 -2.25 2.6149999999999998
v -3.315 -2.34 2.765
v 3.315 -2.34 2.765
v 3.315 -2.25 2.765
v -3.315 -2.25 2.765
usemtl timber
f 57 59 58
f 57 60 59
f 61 62 63
f 61 63 64
f 57 58 62
f 57 62 61
f 58 59 63
f 58 63 62
f 59 60 64
f 59 64 63
f 60 57 61
f 60 61 64
o frontBeam_2
v -3.315 -2.34 5.065
v 3.315 -2.34 5.065
v 3.315 -2.25 5.065
v -3.315 -2.25 5.065
v -3.315 -2.34 5.215000000000001
v 3.315 -2.34 5.215000000000001
v 3.315 -2.25 5.215000000000001
v -3.315 -2.25 5.215000000000001
usemtl timber
f 65 67 66
f 65 68 67
f 69 70 71
f 69 71 72
f 65 66 70
f 65 70 69
f 66 67 71
f 66 71 70
f 67 68 72
f 67 72 71
f 68 65 69
f 68 69 72
o mainRoof
v -3.65 -2.575 5.300000000000001
v 3.65 -2.575 5.300000000000001
v -3.65 2.575 5.300000000000001
v 3.65 2.575 5.300000000000001
v -3.65 0 7.7866485951282165
v 3.65 0 7.7866485951282165
usemtl roof
f 73 74 78
f 73 78 77
f 75 77 78
f 75 78 76
f 73 77 75
f 74 76 78
o door
v -0.4509118434647098 -2.345 0.42499999999999993
v 0.49908815653529015 -2.345 0.42499999999999993
v 0.49908815653529015 -2.265 0.42499999999999993
v -0.4509118434647098 -2.265 0.42499999999999993
v -0.4509118434647098 -2.345 2.375
v 0.49908815653529015 -2.345 2.375
v 0.49908815653529015 -2.265 2.375
v -0.4509118434647098 -2.265 2.375
usemtl trim
f 79 81 80
f 79 82 81
f 83 84 85
f 83 85 86
f 79 80 84
f 79 84 83
f 80 81 85
f 80 85 84
f 81 82 86
f 81 86 85
f 82 79 83
f 82 83 86
o doorBrace
v -0.49379246233034146 -2.342952688218169 1.395
v 0.5288004325991408 -2.466256261725756 1.395
v 0.5419687754009218 -2.357047311781831 1.395
v -0.48062411952856043 -2.233743738274244 1.395
v -0.49379246233034146 -2.342952688218169 1.545
v 0.5288004325991408 -2.466256261725756 1.545
v 0.5419687754009218 -2.357047311781831 1.545
v -0.48062411952856043 -2.233743738274244 1.545
usemtl board
f 87 89 88
f 87 90 89
f 91 92 93
f 91 93 94
f 87 88 92
f 87 92 91
f 88 89 93
f 88 93 92
f 89 90 94
f 89 94 93
f 90 87 91
f 90 91 94
o window_0
v -2.8530725628751332 -2.34 1.6146850585484411
v -2.296927437124867 -2.34 1.6146850585484411
v -2.296927437124867 -2.2800000000000002 1.6146850585484411
v -2.8530725628751332 -2.2800000000000002 1.6146850585484411
v -2.8530725628751332 -2.34 2.325314941451559
v -2.296927437124867 -2.34 2.325314941451559
v -2.296927437124867 -2.2800000000000002 2.325314941451559
v -2.8530725628751332 -2.2800000000000002 2.325314941451559
usemtl glass
f 95 97 96
f 95 98 97
f 99 100 101
f 99 101 102
f 95 96 100
f 95 100 99
f 96 97 101
f 96 101 100
f 97 98 102
f 97 102 101
f 98 95 99
f 98 99 102
o sill_0
v -2.914866465736274 -2.41 1.5106153935449431
v -2.2351335342637264 -2.41 1.5106153935449431
v -2.2351335342637264 -2.2800000000000002 1.5106153935449431
v -2.914866465736274 -2.2800000000000002 1.5106153935449431
v -2.914866465736274 -2.41 1.6106153935449432
v -2.2351335342637264 -2.41 1.6106153935449432
v -2.2351335342637264 -2.2800000000000002 1.6106153935449432
v -2.914866465736274 -2.2800000000000002 1.6106153935449432
usemtl stoneLight
f 103 105 104
f 103 106 105
f 107 108 109
f 107 109 110
f 103 104 108
f 103 108 107
f 104 105 109
f 104 109 108
f 105 106 110
f 105 110 109
f 106 103 107
f 106 107 110
o window_1
v 2.254287659644429 -2.34 1.5602008984345477
v 2.8957123403555713 -2.34 1.5602008984345477
v 2.8957123403555713 -2.2800000000000002 1.5602008984345477
v 2.254287659644429 -2.2800000000000002 1.5602008984345477
v 2.254287659644429 -2.34 2.3797991015654523
v 2.8957123403555713 -2.34 2.3797991015654523
v 2.8957123403555713 -2.2800000000000002 2.3797991015654523
v 2.254287659644429 -2.2800000000000002 2.3797991015654523
usemtl glass
f 111 113 112
f 111 114 113
f 115 116 117
f 115 117 118
f 111 112 116
f 111 116 115
f 112 113 117
f 112 117 116
f 113 114 118
f 113 118 117
f 114 111 115
f 114 115 118
o sill_1
v 2.183018250676524 -2.41 1.447840165587631
v 2.9669817493234762 -2.41 1.447840165587631
v 2.9669817493234762 -2.2800000000000002 1.447840165587631
v 2.183018250676524 -2.2800000000000002 1.447840165587631
v 2.183018250676524 -2.41 1.547840165587631
v 2.9669817493234762 -2.41 1.547840165587631
v 2.9669817493234762 -2.2800000000000002 1.547840165587631
v 2.183018250676524 -2.2800000000000002 1.547840165587631
usemtl stoneLight
f 119 121 120
f 119 122 121
f 123 124 125
f 123 125 126
f 119 120 124
f 119 124 123
f 120 121 125
f 120 125 124
f 121 122 126
f 121 126 125
f 122 119 123
f 122 123 126
o window_2
v -2.8888659065587445 -2.34 4.01894911939716
v -2.261134093441256 -2.34 4.01894911939716
v -2.261134093441256 -2.2800000000000002 4.01894911939716
v -2.8888659065587445 -2.2800000000000002 4.01894911939716
v -2.8888659065587445 -2.34 4.82105088060284
v -2.261134093441256 -2.34 4.82105088060284
v -2.261134093441256 -2.2800000000000002 4.82105088060284
v -2.8888659065587445 -2.2800000000000002 4.82105088060284
usemtl glass
f 127 129 128
f 127 130 129
f 131 132 133
f 131 133 134
f 127 128 132
f 127 132 131
f 128 129 133
f 128 133 132
f 129 130 134
f 129 134 133
f 130 127 131
f 130 131 134
o sill_2
v -2.9586138857940214 -2.41 3.907919637566293
v -2.191386114205979 -2.41 3.907919637566293
v -2.191386114205979 -2.2800000000000002 3.907919637566293
v -2.9586138857940214 -2.2800000000000002 3.907919637566293
v -2.9586138857940214 -2.41 4.007919637566292
v -2.191386114205979 -2.41 4.007919637566292
v -2.191386114205979 -2.2800000000000002 4.007919637566292
v -2.9586138857940214 -2.2800000000000002 4.007919637566292
usemtl stoneLight
f 135 137 136
f 135 138 137
f 139 140 141
f 139 141 142
f 135 136 140
f 135 140 139
f 136 137 141
f 136 141 140
f 137 138 142
f 137 142 141
f 138 135 139
f 138 139 142
o window_3
v -0.3031970321031287 -2.34 4.032581570090446
v 0.3031970321031287 -2.34 4.032581570090446
v 0.3031970321031287 -2.2800000000000002 4.032581570090446
v -0.3031970321031287 -2.2800000000000002 4.032581570090446
v -0.3031970321031287 -2.34 4.8074184299095535
v 0.3031970321031287 -2.34 4.8074184299095535
v 0.3031970321031287 -2.2800000000000002 4.8074184299095535
v -0.3031970321031287 -2.2800000000000002 4.8074184299095535
usemtl glass
f 143 145 144
f 143 146 145
f 147 148 149
f 147 149 150
f 143 144 148
f 143 148 147
f 144 145 149
f 144 149 148
f 145 146 150
f 145 150 149
f 146 143 147
f 146 147 150
o sill_3
v -0.37057415034826846 -2.41 3.9236265916259496
v 0.37057415034826846 -2.41 3.9236265916259496
v 0.37057415034826846 -2.2800000000000002 3.9236265916259496
v -0.37057415034826846 -2.2800000000000002 3.9236265916259496
v -0.37057415034826846 -2.41 4.023626591625949
v 0.37057415034826846 -2.41 4.023626591625949
v 0.37057415034826846 -2.2800000000000002 4.023626591625949
v -0.37057415034826846 -2.2800000000000002 4.023626591625949
usemtl stoneLight
f 151 153 152
f 151 154 153
f 155 156 157
f 155 157 158
f 151 152 156
f 151 156 155
f 152 153 157
f 152 157 156
f 153 154 158
f 153 158 157
f 154 151 155
f 154 155 158
o board_3_a
v -0.33906342365323966 -2.4925202925143717 4.454999999999999
v 0.35696638099582206 -2.3658640767644403 4.454999999999999
v 0.33906342365323966 -2.267479707485628 4.454999999999999
v -0.35696638099582206 -2.3941359232355595 4.454999999999999
v -0.33906342365323966 -2.4925202925143717 4.585
v 0.35696638099582206 -2.3658640767644403 4.585
v 0.33906342365323966 -2.267479707485628 4.585
v -0.35696638099582206 -2.3941359232355595 4.585
usemtl board
f 159 161 160
f 159 162 161
f 163 164 165
f 163 165 166
f 159 160 164
f 159 164 163
f 160 161 165
f 160 165 164
f 161 162 166
f 161 166 165
f 162 159 163
f 162 163 166
o board_3_b
v -0.3572267676720134 -2.3837226261672932 4.175
v 0.34426335341004394 -2.4754335632041853 4.175
v 0.3572267676720134 -2.3762773738327065 4.175
v -0.34426335341004394 -2.2845664367958145 4.175
v -0.3572267676720134 -2.3837226261672932 4.305000000000001
v 0.34426335341004394 -2.4754335632041853 4.305000000000001
v 0.3572267676720134 -2.3762773738327065 4.305000000000001
v -0.34426335341004394 -2.2845664367958145 4.305000000000001
usemtl board
f 167 169 168
f 167 170 169
f 171 172 173
f 171 173 174
f 167 168 172
f 167 172 171
f 168 169 173
f 168 173 172
f 169 170 174
f 169 174 173
f 170 167 171
f 170 171 174
o window_4
v 2.2539727928726006 -2.34 4.009798568670544
v 2.8960272071274 -2.34 4.009798568670544
v 2.8960272071274 -2.2800000000000002 4.009798568670544
v 2.2539727928726006 -2.2800000000000002 4.009798568670544
v 2.2539727928726006 -2.34 4.8302014313294555
v 2.8960272071274 -2.34 4.8302014313294555
v 2.8960272071274 -2.2800000000000002 4.8302014313294555
v 2.2539727928726006 -2.2800000000000002 4.8302014313294555
usemtl glass
f 175 177 176
f 175 178 177
f 179 180 181
f 179 181 182
f 175 176 180
f 175 180 179
f 176 177 181
f 176 181 180
f 177 178 182
f 177 182 181
f 178 175 179
f 178 179 182
o sill_4
v 2.182633413510956 -2.41 3.897376611729106
v 2.967366586489044 -2.41 3.897376611729106
v 2.967366586489044 -2.2800000000000002 3.897376611729106
v 2.182633413510956 -2.2800000000000002 3.897376611729106
v 2.182633413510956 -2.41 3.9973766117291056
v 2.967366586489044 -2.41 3.9973766117291056
v 2.967366586489044 -2.2800000000000002 3.9973766117291056
v 2.182633413510956 -2.2800000000000002 3.9973766117291056
usemtl stoneLight
f 183 185 184
f 183 186 185
f 187 188 189
f 187 189 190
f 183 184 188
f 183 188 187
f 184 185 189
f 184 189 188
f 185 186 190
f 185 190 189
f 186 183 187
f 186 187 190
o board_4_a
v 2.2154707869013337 -2.4962444425811916 4.454999999999999
v 2.952432170441249 -2.3621399266976204 4.454999999999999
v 2.9345292130986667 -2.263755557418808 4.454999999999999
v 2.1975678295587513 -2.3978600733023794 4.454999999999999
v 2.2154707869013337 -2.4962444425811916 4.585
v 2.952432170441249 -2.3621399266976204 4.585
v 2.9345292130986667 -2.263755557418808 4.585
v 2.1975678295587513 -2.3978600733023794 4.585
usemtl board
f 191 193 192
f 191 194 193
f 195 196 197
f 195 197 198
f 191 192 196
f 191 196 195
f 192 193 197
f 192 197 196
f 193 194 198
f 193 198 197
f 194 191 195
f 194 195 198
o board_4_b
v 2.1971468898635993 -2.3810259934732576 4.175
v 2.939889695874432 -2.478130195898221 4.175
v 2.952853110136401 -2.378974006526742 4.175
v 2.2101103041255685 -2.281869804101779 4.175
v 2.1971468898635993 -2.3810259934732576 4.305000000000001
v 2.939889695874432 -2.478130195898221 4.305000000000001
v 2.952853110136401 -2.378974006526742 4.305000000000001
v 2.2101103041255685 -2.281869804101779 4.305000000000001
usemtl board
f 199 201 200
f 199 202 201
f 203 204 205
f 203 205 206
f 199 200 204
f 199 204 203
f 200 201 205
f 200 205 204
f 201 202 206
f 201 206 205
f 202 199 203
f 202 203 206
o window_5
v 3.4050000000000002 -1.788 1.5519999999999998
v 3.465 -1.788 1.5519999999999998
v 3.465 -1.212 1.5519999999999998
v 3.4050000000000002 -1.212 1.5519999999999998
v 3.4050000000000002 -1.788 2.288
v 3.465 -1.788 2.288
v 3.465 -1.212 2.288
v 3.4050000000000002 -1.212 2.288
usemtl glass
f 207 209 208
f 207 210 209
f 211 212 213
f 211 213 214
f 207 208 212
f 207 212 211
f 208 209 213
f 208 213 212
f 209 210 214
f 209 214 213
f 210 207 211
f 210 211 214
o sill_5
v 3.4050000000000002 -1.852 1.446
v 3.535 -1.852 1.446
v 3.535 -1.148 1.446
v 3.4050000000000002 -1.148 1.446
v 3.4050000000000002 -1.852 1.546
v 3.535 -1.852 1.546
v 3.535 -1.148 1.546
v 3.4050000000000002 -1.148 1.546
usemtl stoneLight
f 215 217 216
f 215 218 217
f 219 220 221
f 219 221 222
f 215 216 220
f 215 220 219
f 216 217 221
f 216 221 220
f 217 218 222
f 217 222 221
f 218 215 219
f 218 219 222
o window_6
v 3.4050000000000002 -0.23799999999999993 1.5519999999999998
v 3.465 -0.23799999999999993 1.5519999999999998
v 3.465 0.338 1.5519999999999998
v 3.4050000000000002 0.338 1.5519999999999998
v 3.4050000000000002 -0.23799999999999993 2.288
v 3.465 -0.23799999999999993 2.288
v 3.465 0.338 2.288
v 3.4050000000000002 0.338 2.288
usemtl glass
f 223 225 224
f 223 226 225
f 227 228 229
f 227 229 230
f 223 224 228
f 223 228 227
f 224 225 229
f 224 229 228
f 225 226 230
f 225 230 229
f 226 223 227
f 226 227 230
o sill_6
v 3.4050000000000002 -0.302 1.446
v 3.535 -0.302 1.446
v 3.535 0.4020000000000001 1.446
v 3.4050000000000002 0.4020000000000001 1.446
v 3.4050000000000002 -0.302 1.546
v 3.535 -0.302 1.546
v 3.535 0.4020000000000001 1.546
v 3.4050000000000002 0.4020000000000001 1.546
usemtl stoneLight
f 231 233 232
f 231 234 233
f 235 236 237
f 235 237 238
f 231 232 236
f 231 236 235
f 232 233 237
f 232 237 236
f 233 234 238
f 233 238 237
f 234 231 235
f 234 235 238
o board_6_a
v 3.455 -0.2689345585041302 1.8958962232976952
v 3.5549999999999997 -0.2689345585041302 1.8958962232976952
v 3.5549999999999997 0.39220840304948745 2.016204096639849
v 3.455 0.39220840304948745 2.016204096639849
v 3.455 -0.29220840304948736 2.023795903360151
v 3.5549999999999997 -0.29220840304948736 2.023795903360151
v 3.5549999999999997 0.36893455850413026 2.144103776702305
v 3.455 0.36893455850413026 2.144103776702305
usemtl board
f 239 241 240
f 239 242 241
f 243 244 245
f 243 245 246
f 239 240 244
f 239 244 243
f 240 241 245
f 240 245 244
f 241 242 246
f 241 246 245
f 242 239 243
f 242 243 246
o board_6_b
v 3.455 -0.2915910155584489 1.7191055488287563
v 3.5549999999999997 -0.2915910155584489 1.7191055488287563
v 3.5549999999999997 0.3747385770178887 1.6319914049883213
v 3.455 0.3747385770178887 1.6319914049883213
v 3.455 -0.2747385770178886 1.8480085950116787
v 3.5549999999999997 -0.2747385770178886 1.8480085950116787
v 3.5549999999999997 0.391591015558449 1.7608944511712437
v 3.455 0.391591015558449 1.7608944511712437
usemtl board
f 247 249 248
f 247 250 249
f 251 252 253
f 251 253 254
f 247 248 252
f 247 252 251
f 248 249 253
f 248 253 252
f 249 250 254
f 249 254 253
f 250 247 251
f 250 251 254
o window_7
v 3.4050000000000002 1.312 1.5519999999999998
v 3.465 1.312 1.5519999999999998
v 3.465 1.8880000000000001 1.5519999999999998
v 3.4050000000000002 1.8880000000000001 1.5519999999999998
v 3.4050000000000002 1.312 2.288
v 3.465 1.312 2.288
v 3.465 1.8880000000000001 2.288
v 3.4050000000000002 1.8880000000000001 2.288
usemtl glass
f 255 257 256
f 255 258 257
f 259 260 261
f 259 261 262
f 255 256 260
f 255 260 259
f 256 257 261
f 256 261 260
f 257 258 262
f 257 262 261
f 258 255 259
f 258 259 262
o sill_7
v 3.4050000000000002 1.248 1.446
v 3.535 1.248 1.446
v 3.535 1.9520000000000002 1.446
v 3.4050000000000002 1.9520000000000002 1.446
v 3.4050000000000002 1.248 1.546
v 3.535 1.248 1.546
v 3.535 1.9520000000000002 1.546
v 3.4050000000000002 1.9520000000000002 1.546
usemtl stoneLight
f 263 265 264
f 263 266 265
f 267 268 269
f 267 269 270
f 263 264 268
f 263 268 267
f 264 265 269
f 264 269 268
f 265 266 270
f 265 270 269
f 266 263 267
f 266 267 270
o window_8
v 3.4050000000000002 -1.788 4.002
v 3.465 -1.788 4.002
v 3.465 -1.212 4.002
v 3.4050000000000002 -1.212 4.002
v 3.4050000000000002 -1.788 4.738
v 3.465 -1.788 4.738
v 3.465 -1.212 4.738
v 3.4050000000000002 -1.212 4.738
usemtl glass
f 271 273 272
f 271 274 273
f 275 276 277
f 275 277 278
f 271 272 276
f 271 276 275
f 272 273 277
f 272 277 276
f 273 274 278
f 273 278 277
f 274 271 275
f 274 275 278
o sill_8
v 3.4050000000000002 -1.852 3.8960000000000004
v 3.535 -1.852 3.8960000000000004
v 3.535 -1.148 3.8960000000000004
v 3.4050000000000002 -1.148 3.8960000000000004
v 3.4050000000000002 -1.852 3.996
v 3.535 -1.852 3.996
v 3.535 -1.148 3.996
v 3.4050000000000002 -1.148 3.996
usemtl stoneLight
f 279 281 280
f 279 282 281
f 283 284 285
f 283 285 286
f 279 280 284
f 279 284 283
f 280 281 285
f 280 285 284
f 281 282 286
f 281 286 285
f 282 279 283
f 282 283 286
o board_8_a
v 3.455 -1.81893455850413 4.345896223297695
v 3.5549999999999997 -1.81893455850413 4.345896223297695
v 3.5549999999999997 -1.1577915969505126 4.466204096639848
v 3.455 -1.1577915969505126 4.466204096639848
v 3.455 -1.8422084030494874 4.473795903360151
v 3.5549999999999997 -1.8422084030494874 4.473795903360151
v 3.5549999999999997 -1.18106544149587 4.594103776702305
v 3.455 -1.18106544149587 4.594103776702305
usemtl board
f 287 289 288
f 287 290 289
f 291 292 293
f 291 293 294
f 287 288 292
f 287 292 291
f 288 289 293
f 288 293 292
f 289 290 294
f 289 294 293
f 290 287 291
f 290 291 294
o board_8_b
v 3.455 -1.841591015558449 4.169105548828757
v 3.5549999999999997 -1.841591015558449 4.169105548828757
v 3.5549999999999997 -1.1752614229821114 4.0819914049883215
v 3.455 -1.1752614229821114 4.0819914049883215
v 3.455 -1.8247385770178886 4.298008595011679
v 3.5549999999999997 -1.8247385770178886 4.298008595011679
v 3.5549999999999997 -1.158408984441551 4.210894451171244
v 3.455 -1.158408984441551 4.210894451171244
usemtl board
f 295 297 296
f 295 298 297
f 299 300 301
f 299 301 302
f 295 296 300
f 295 300 299
f 296 297 301
f 296 301 300
f 297 298 302
f 297 302 301
f 298 295 299
f 298 299 302
o window_9
v 3.4050000000000002 -0.23799999999999993 4.002
v 3.465 -0.23799999999999993 4.002
v 3.465 0.338 4.002
v 3.4050000000000002 0.338 4.002
v 3.4050000000000002 -0.23799999999999993 4.738
v 3.465 -0.23799999999999993 4.738
v 3.465 0.338 4.738
v 3.4050000000000002 0.338 4.738
usemtl glass
f 303 305 304
f 303 306 305
f 307 308 309
f 307 309 310
f 303 304 308
f 303 308 307
f 304 305 309
f 304 309 308
f 305 306 310
f 305 310 309
f 306 303 307
f 306 307 310
o sill_9
v 3.4050000000000002 -0.302 3.8960000000000004
v 3.535 -0.302 3.8960000000000004
v 3.535 0.4020000000000001 3.8960000000000004
v 3.4050000000000002 0.4020000000000001 3.8960000000000004
v 3.4050000000000002 -0.302 3.996
v 3.535 -0.302 3.996
v 3.535 0.4020000000000001 3.996
v 3.4050000000000002 0.4020000000000001 3.996
usemtl stoneLight
f 311 313 312
f 311 314 313
f 315 316 317
f 315 317 318
f 311 312 316
f 311 316 315
f 312 313 317
f 312 317 316
f 313 314 318
f 313 318 317
f 314 311 315
f 314 315 318
o board_9_a
v 3.455 -0.2689345585041302 4.345896223297695
v 3.5549999999999997 -0.2689345585041302 4.345896223297695
v 3.5549999999999997 0.39220840304948745 4.466204096639848
v 3.455 0.39220840304948745 4.466204096639848
v 3.455 -0.29220840304948736 4.473795903360151
v 3.5549999999999997 -0.29220840304948736 4.473795903360151
v 3.5549999999999997 0.36893455850413026 4.594103776702305
v 3.455 0.36893455850413026 4.594103776702305
usemtl board
f 319 321 320
f 319 322 321
f 323 324 325
f 323 325 326
f 319 320 324
f 319 324 323
f 320 321 325
f 320 325 324
f 321 322 326
f 321 326 325
f 322 319 323
f 322 323 326
o board_9_b
v 3.455 -0.2915910155584489 4.169105548828757
v 3.5549999999999997 -0.2915910155584489 4.169105548828757
v 3.5549999999999997 0.3747385770178887 4.0819914049883215
v 3.455 0.3747385770178887 4.0819914049883215
v 3.455 -0.2747385770178886 4.298008595011679
v 3.5549999999999997 -0.2747385770178886 4.298008595011679
v 3.5549999999999997 0.391591015558449 4.210894451171244
v 3.455 0.391591015558449 4.210894451171244
usemtl board
f 327 329 328
f 327 330 329
f 331 332 333
f 331 333 334
f 327 328 332
f 327 332 331
f 328 329 333
f 328 333 332
f 329 330 334
f 329 334 333
f 330 327 331
f 330 331 334
o window_10
v 3.4050000000000002 1.312 4.002
v 3.465 1.312 4.002
v 3.465 1.8880000000000001 4.002
v 3.4050000000000002 1.8880000000000001 4.002
v 3.4050000000000002 1.312 4.738
v 3.465 1.312 4.738
v 3.465 1.8880000000000001 4.738
v 3.4050000000000002 1.8880000000000001 4.738
usemtl glass
f 335 337 336
f 335 338 337
f 339 340 341
f 339 341 342
f 335 336 340
f 335 340 339
f 336 337 341
f 336 341 340
f 337 338 342
f 337 342 341
f 338 335 339
f 338 339 342
o sill_10
v 3.4050000000000002 1.248 3.8960000000000004
v 3.535 1.248 3.8960000000000004
v 3.535 1.9520000000000002 3.8960000000000004
v 3.4050000000000002 1.9520000000000002 3.8960000000000004
v 3.4050000000000002 1.248 3.996
v 3.535 1.248 3.996
v 3.535 1.9520000000000002 3.996
v 3.4050000000000002 1.9520000000000002 3.996
usemtl stoneLight
f 343 345 344
f 343 346 345
f 347 348 349
f 347 349 350
f 343 344 348
f 343 348 347
f 344 345 349
f 344 349 348
f 345 346 350
f 345 350 349
f 346 343 347
f 346 347 350
o board_10_a
v 3.455 1.28106544149587 4.345896223297695
v 3.5549999999999997 1.28106544149587 4.345896223297695
v 3.5549999999999997 1.9422084030494875 4.466204096639848
v 3.455 1.9422084030494875 4.466204096639848
v 3.455 1.2577915969505127 4.473795903360151
v 3.5549999999999997 1.2577915969505127 4.473795903360151
v 3.5549999999999997 1.9189345585041302 4.594103776702305
v 3.455 1.9189345585041302 4.594103776702305
usemtl board
f 351 353 352
f 351 354 353
f 355 356 357
f 355 357 358
f 351 352 356
f 351 356 355
f 352 353 357
f 352 357 356
f 353 354 358
f 353 358 357
f 354 351 355
f 354 355 358
o board_10_b
v 3.455 1.2584089844415511 4.169105548828757
v 3.5549999999999997 1.2584089844415511 4.169105548828757
v 3.5549999999999997 1.9247385770178886 4.0819914049883215
v 3.455 1.9247385770178886 4.0819914049883215
v 3.455 1.2752614229821115 4.298008595011679
v 3.5549999999999997 1.2752614229821115 4.298008595011679
v 3.5549999999999997 1.941591015558449 4.210894451171244
v 3.455 1.941591015558449 4.210894451171244
usemtl board
f 359 361 360
f 359 362 361
f 363 364 365
f 363 365 366
f 359 360 364
f 359 364 363
f 360 361 365
f 360 365 364
f 361 362 366
f 361 366 365
f 362 359 363
f 362 363 366
o chimney
v 1.21 0.22418262473714518 5.552024841389207
v 1.7600000000000002 0.22418262473714518 5.552024841389207
v 1.7600000000000002 0.844169643863449 5.548012845018301
v 1.21 0.844169643863449 5.548012845018301
v 1.21 0.23583035613655107 7.3519871549817015
v 1.7600000000000002 0.23583035613655107 7.3519871549817015
v 1.7600000000000002 0.8558173752628548 7.3479751586107955
v 1.21 0.8558173752628548 7.3479751586107955
usemtl stone
f 367 369 368
f 367 370 369
f 371 372 373
f 371 373 374
f 367 368 372
f 367 372 371
f 368 369 373
f 368 373 372
f 369 370 374
f 369 374 373
f 370 367 371
f 370 371 374
o chimneyCap
v 1.125 0.14949048843720814 7.262525350087984
v 1.8450000000000002 0.14949048843720814 7.262525350087984
v 1.8450000000000002 0.9294741576606226 7.257477999814907
v 1.125 0.9294741576606226 7.257477999814907
v 1.125 0.1505258423393775 7.4225220001850944
v 1.8450000000000002 0.1505258423393775 7.4225220001850944
v 1.8450000000000002 0.9305095115627919 7.417474649912018
v 1.125 0.9305095115627919 7.417474649912018
usemtl stoneLight
f 375 377 376
f 375 378 377
f 379 380 381
f 379 381 382
f 375 376 380
f 375 380 379
f 376 377 381
f 376 381 380
f 377 378 382
f 377 382 381
f 378 375 379
f 378 379 382
o porchDeck
v -1.0509118434647098 -3.305 0.43000000000000005
v 1.0990881565352901 -3.305 0.43000000000000005
v 1.0990881565352901 -2.355 0.43000000000000005
v -1.0509118434647098 -2.355 0.43000000000000005
v -1.0509118434647098 -3.305 0.61
v 1.0990881565352901 -3.305 0.61
v 1.0990881565352901 -2.355 0.61
v -1.0509118434647098 -2.355 0.61
usemtl stoneLight
f 383 385 384
f 383 386 385
f 387 388 389
f 387 389 390
f 383 384 388
f 383 388 387
f 384 385 389
f 384 389 388
f 385 386 390
f 385 390 389
f 386 383 387
f 386 387 390
o porchPost_-0.83
v -0.8869945500177243 -3.0888973934920583 0.4950000000000001
v -0.7670144499726518 -3.091082706553015 0.4950000000000001
v -0.7648291369116953 -2.9711026065079422 0.4950000000000001
v -0.8848092369567678 -2.9689172934469856 0.4950000000000001
v -0.8869945500177243 -3.0888973934920583 2.145
v -0.7670144499726518 -3.091082706553015 2.145
v -0.7648291369116953 -2.9711026065079422 2.145
v -0.8848092369567678 -2.9689172934469856 2.145
usemtl timber
f 391 393 392
f 391 394 393
f 395 396 397
f 395 397 398
f 391 392 396
f 391 396 395
f 392 393 397
f 392 397 396
f 393 394 398
f 393 398 397
f 394 391 395
f 394 395 398
o porchPost_0.87
v 0.8145300529174968 -3.0904386655498963 0.4950000000000001
v 0.9345268220851861 -3.0895581036177937 0.4950000000000001
v 0.9336462601530835 -2.969561334450104 0.4950000000000001
v 0.8136494909853942 -2.970441896382207 0.4950000000000001
v 0.8145300529174968 -3.0904386655498963 2.145
v 0.9345268220851861 -3.0895581036177937 2.145
v 0.9336462601530835 -2.969561334450104 2.145
v 0.8136494909853942 -2.970441896382207 2.145
usemtl timber
f 399 401 400
f 399 402 401
f 403 404 405
f 403 405 406
f 399 400 404
f 399 404 403
f 400 401 405
f 400 405 404
f 401 402 406
f 401 406 405
f 402 399 403
f 402 403 406
o porchRoof
v -1.0509118434647098 -3.4050000000000002 2.62
v 1.0990881565352901 -3.4050000000000002 2.62
v -1.0509118434647098 -2.255 2.62
v 1.0990881565352901 -2.255 2.62
v -1.0509118434647098 -2.83 2.9792998773478634
v 1.0990881565352901 -2.83 2.9792998773478634
usemtl roofDark
f 407 408 412
f 407 412 411
f 409 411 412
f 409 412 410
f 407 411 409
f 408 410 412
o signArm
v -4.15 -2.37 2.13
v -3.3000000000000003 -2.37 2.13
v -3.3000000000000003 -2.29 2.13
v -4.15 -2.29 2.13
v -4.15 -2.37 2.21
v -3.3000000000000003 -2.37 2.21
v -3.3000000000000003 -2.29 2.21
v -4.15 -2.29 2.21
usemtl timber
f 413 415 414
f 413 416 415
f 417 418 419
f 417 419 420
f 413 414 418
f 413 418 417
f 414 415 419
f 414 419 418
f 415 416 420
f 415 420 419
f 416 413 417
f 416 417 420
o sign
v -4.458363989547246 -2.432212474061142 1.5499999999999998
v -3.7422718319006965 -2.3572990456446767 1.5499999999999998
v -3.7516360104527546 -2.267787525938858 1.5499999999999998
v -4.467728168099304 -2.3427009543553234 1.5499999999999998
v -4.458363989547246 -2.432212474061142 2.13
v -3.7422718319006965 -2.3572990456446767 2.13
v -3.7516360104527546 -2.267787525938858 2.13
v -4.467728168099304 -2.3427009543553234 2.13
usemtl board
f 421 423 422
f 421 424 423
f 425 426 427
f 425 427 428
f 421 422 426
f 421 426 425
f 422 423 427
f 422 427 426
f 423 424 428
f 423 428 427
f 424 421 425
f 424 425 428
o crate_0
v 3.605423503275349 -2.1290989610156976 0.09910940485559036
v 3.86669538098602 -2.1290989610156976 -0.05635478806044622
v 3.86669538098602 -1.8250724665098823 -0.05635478806044622
v 3.605423503275349 -1.8250724665098823 0.09910940485559036
v 3.7608876961913853 -2.1290989610156976 0.36038128256626145
v 4.022159573902057 -2.1290989610156976 0.20491708965022484
v 4.022159573902057 -1.8250724665098823 0.20491708965022484
v 3.7608876961913853 -1.8250724665098823 0.36038128256626145
usemtl timber
f 429 431 430
f 429 432 431
f 433 434 435
f 433 435 436
f 429 430 434
f 429 434 433
f 430 431 435
f 430 435 434
f 431 432 436
f 431 436 435
f 432 429 433
f 432 433 436
o crate_1
v 4.050512834891633 -2.312300985052716 0.03154914579803697
v 4.475777779843354 -2.312300985052716 -0.027472882369111218
v 4.475777779843354 -1.882959776672069 -0.027472882369111218
v 4.050512834891633 -1.882959776672069 0.03154914579803697
v 4.109534863058781 -2.312300985052716 0.45681409074975826
v 4.5347998080105025 -2.312300985052716 0.3977920625826101
v 4.5347998080105025 -1.882959776672069 0.3977920625826101
v 4.109534863058781 -1.882959776672069 0.45681409074975826
usemtl timber
f 437 439 438
f 437 440 439
f 441 442 443
f 441 443 444
f 437 438 442
f 437 442 441
f 438 439 443
f 438 443 442
f 439 440 444
f 439 444 443
f 440 437 441
f 440 441 444
o crate_2
v 3.8945681767928733 -2.312197291958146 0.11272584511576442
v 4.29580398299122 -2.312197291958146 -0.07217256703233865
v 4.29580398299122 -1.8704082076763733 -0.07217256703233865
v 3.8945681767928733 -1.8704082076763733 0.11272584511576442
v 4.079466588940976 -2.312197291958146 0.5139616513141111
v 4.480702395139323 -2.312197291958146 0.329063239166008
v 4.480702395139323 -1.8704082076763733 0.329063239166008
v 4.079466588940976 -1.8704082076763733 0.5139616513141111
usemtl timber
f 445 447 446
f 445 448 447
f 449 450 451
f 449 451 452
f 445 446 450
f 445 450 449
f 446 447 451
f 446 451 450
f 447 448 452
f 447 452 451
f 448 445 449
f 448 449 452
o crate_3
v 3.7619003974748733 -1.3829614680167288 0.0023456256491729
v 4.114706309351172 -1.3829614680167288 -0.002314845210876826
v 4.114706309351172 -1.030124775702134 -0.002314845210876826
v 3.7619003974748733 -1.030124775702134 0.0023456256491729
v 3.766560868334923 -1.3829614680167288 0.35515153752547185
v 4.119366780211222 -1.3829614680167288 0.3504910666654221
v 4.119366780211222 -1.030124775702134 0.3504910666654221
v 3.766560868334923 -1.030124775702134 0.35515153752547185
usemtl timber
f 453 455 454
f 453 456 455
f 457 458 459
f 457 459 460
f 453 454 458
f 453 458 457
f 454 455 459
f 454 459 458
f 455 456 460
f 455 460 459
f 456 453 457
f 456 457 460
o crate_4
v 4.325125560995085 -1.2460799389425665 0.07446349224317975
v 4.570288739802686 -1.2460799389425665 -0.04632367961398662
v 4.570288739802686 -0.972776947505772 -0.04632367961398662
v 4.325125560995085 -0.972776947505772 0.07446349224317975
v 4.445912732852252 -1.2460799389425665 0.319626671050781
v 4.691075911659853 -1.2460799389425665 0.19883949919361468
v 4.691075911659853 -0.972776947505772 0.19883949919361468
v 4.445912732852252 -0.972776947505772 0.319626671050781
usemtl timber
f 461 463 462
f 461 464 463
f 465 466 467
f 465 467 468
f 461 462 466
f 461 466 465
f 462 463 467
f 462 467 466
f 463 464 468
f 463 468 467
f 464 461 465
f 464 465 468
o crate_5
v 3.540252032212864 -2.0865318542253224 0.06497667194087595
v 3.888216499674836 -2.0865318542253224 -0.04730849638306764
v 3.888216499674836 -1.720899211205542 -0.04730849638306764
v 3.540252032212864 -1.720899211205542 0.06497667194087595
v 3.6525372005368077 -2.0865318542253224 0.41294113940284816
v 4.00050166799878 -2.0865318542253224 0.3006559710789046
v 4.00050166799878 -1.720899211205542 0.3006559710789046
v 3.6525372005368077 -1.720899211205542 0.41294113940284816
usemtl timber
f 469 471 470
f 469 472 471
f 473 474 475
f 473 475 476
f 469 470 474
f 469 474 473
f 470 471 475
f 470 475 474
f 471 472 476
f 471 476 475
f 472 469 473
f 472 473 476
o crate_6
v 3.933919564847365 -1.9628438550187275 0.05218171208942868
v 4.362581725042922 -1.9628438550187275 -0.041964825109116866
v 4.362581725042922 -1.523964807842858 -0.041964825109116866
v 3.933919564847365 -1.523964807842858 0.05218171208942868
v 4.02806610204591 -1.9628438550187275 0.4808438722849862
v 4.456728262241468 -1.9628438550187275 0.38669733508644066
v 4.456728262241468 -1.523964807842858 0.38669733508644066
v 4.02806610204591 -1.523964807842858 0.4808438722849862
usemtl timber
f 477 479 478
f 477 480 479
f 481 482 483
f 481 483 484
f 477 478 482
f 477 482 481
f 478 479 483
f 478 483 482
f 479 480 484
f 479 484 483
f 480 477 481
f 480 481 484
o debris_0
v -0.43878238225261196 -1.6205006354877163 0.04605721569358007
v 0.2922246969648847 -1.503107804202513 -0.013687939544937106
v 0.256883269315799 -1.2988072178597743 -0.04467638588409359
v -0.4741238099016976 -1.4162000491449773 0.015068769354423583
v -0.43345487935024246 -1.6051027203173196 0.14149670649684454
v 0.2975521998672542 -1.4877098890321165 0.08175155125832737
v 0.2622107722181685 -1.2834093026893776 0.05076310491917088
v -0.4687963069993281 -1.4008021339745809 0.11050826015768805
usemtl board
f 485 487 486
f 485 488 487
f 489 490 491
f 489 491 492
f 485 486 490
f 485 490 489
f 486 487 491
f 486 491 490
f 487 488 492
f 487 492 491
f 488 485 489
f 488 489 492
o debris_1
v -1.2570902059140991 -1.0571446944651346 0.3015398899574887
v -0.9586214008261936 -1.0046238754591825 -0.23453827103346248
v -1.0014264565445872 -0.8653511984112501 -0.2447257010869197
v -1.2998952616324928 -0.9178720174172021 0.29135245990403147
v -1.165790423818825 -1.025136328365019 0.35550821878458183
v -0.8673216187309195 -0.9726155093590669 -0.18056994220636935
v -0.9101266744493131 -0.8333428323111345 -0.19075737225982656
v -1.2085954795372187 -0.8858636513170866 0.3453207887311246
usemtl board
f 493 495 494
f 493 496 495
f 497 498 499
f 497 499 500
f 493 494 498
f 493 498 497
f 494 495 499
f 494 499 498
f 495 496 500
f 495 500 499
f 496 493 497
f 496 497 500
o debris_2
v -0.5583390750274095 -0.49806921959496364 0.1476459682312547
v -0.18808032977088338 -0.5321191554613508 -0.14098188317764954
v -0.15255809089487177 -0.2846181504159647 -0.12461123071563592
v -0.522816836151398 -0.25056821454957756 0.16401662069326833
v -0.49328014437722284 -0.5130438655883592 0.23287171358428127
v -0.12302139912069665 -0.5470938014547464 -0.05575613782462298
v -0.08749916024468504 -0.2995927964093603 -0.03938548536260937
v -0.4577579055012112 -0.26554286054297316 0.24924236604629485
usemtl board
f 501 503 502
f 501 504 503
f 505 506 507
f 505 507 508
f 501 502 506
f 501 506 505
f 502 503 507
f 502 507 506
f 503 504 508
f 503 508 507
f 504 501 505
f 504 505 508
o debris_3
v -2.4207030478315272 -3.138915588474578 0.06477459183339329
v -2.099899150743018 -3.109557135791432 -0.04218996007645073
v -2.120824600899904 -2.9409094147138277 -0.05866018117145416
v -2.441628497988413 -2.9702678673969736 0.04830437073838987
v -2.3875477783341568 -3.1247098067089936 0.16811162488042158
v -2.066743881245648 -3.0953513540258477 0.06114707297057755
v -2.0876693314025334 -2.9267036329482434 0.044676851875574124
v -2.408473228491043 -2.9560620856313893 0.15164140378541816
usemtl board
f 509 511 510
f 509 512 511
f 513 514 515
f 513 515 516
f 509 510 514
f 509 514 513
f 510 511 515
f 510 515 514
f 511 512 516
f 511 516 515
f 512 509 513
f 512 513 516
o debris_4
v -1.403633479578216 -0.20570277837090095 0.13138768325790556
v -1.0119049023528077 -0.1606178046996896 -0.11604423636814681
v -1.042652729872233 0.11664998205006433 -0.11420208059770356
v -1.4343813070976412 0.07156500837885295 0.13322983902834884
v -1.344216392751233 -0.1997458680961312 0.22654087959609295
v -0.9524878155258247 -0.15466089442491981 -0.02089104002995945
v -0.98323564304525 0.12260689232483407 -0.01904888425951619
v -1.3749642202706582 0.0775219186536227 0.2283830353665362
usemtl board
f 517 519 518
f 517 520 519
f 521 522 523
f 521 523 524
f 517 518 522
f 517 522 521
f 518 519 523
f 518 523 522
f 519 520 524
f 519 524 523
f 520 517 521
f 520 521 524
o deadGrowth
v 3.6017731703984937 -2.895 0.31271320744394526
v 3.9575915491001634 -2.895 -0.2312475276997922
v 3.9575915491001634 -2.2449999999999997 -0.2312475276997922
v 3.6017731703984937 -2.2449999999999997 0.31271320744394526
v 3.7524084508998365 -2.895 0.4112475276997922
v 4.108226829601506 -2.895 -0.13271320744394524
v 4.108226829601506 -2.2449999999999997 -0.13271320744394524
v 3.7524084508998365 -2.2449999999999997 0.4112475276997922
usemtl deadGreen
f 525 527 526
f 525 528 527
f 529 530 531
f 529 531 532
f 525 526 530
f 525 530 529
f 526 527 531
f 526 531 530
f 527 528 532
f 527 532 531
f 528 525 529
f 528 529 532
