mtllib worldforge_foliage_61803.mtl
# WorldForge 0.8.0
# foliage seed 61803
o treeTrunk
v 0.29999542361485354 -0.001657048624683344 0
v 0.1883396200109097 0.23351271385975142 0
v -0.06513975888935107 0.29284264001650645 0
v -0.269567570737004 0.13165608533960868 0
v -0.27100550364335846 -0.12867018689272822 0
v -0.06837076480144373 -0.2921051840013553 0
v 0.18574855444539404 -0.23557901969709968 0
v 0.19199707111350628 -0.0010605111197973403 3.5984532364746555
v 0.1205373568069822 0.14944813687024094 3.5984532364746555
v -0.041689445689184694 0.18741928961056417 3.5984532364746555
v -0.17252324527168258 0.08425989461734958 3.5984532364746555
v -0.17344352233174942 -0.08234891961134605 3.5984532364746555
v -0.043757289472923996 -0.18694731776086745 3.5984532364746555
v 0.11887907484505218 -0.15077057260614382 3.5984532364746555
usemtl folTrunk
f 1 2 9
f 1 9 8
f 2 3 10
f 2 10 9
f 3 4 11
f 3 11 10
f 4 5 12
f 4 12 11
f 5 6 13
f 5 13 12
f 6 7 14
f 6 14 13
f 7 1 8
f 7 8 14
f 1 3 2
f 8 9 10
f 1 4 3
f 8 10 11
f 1 5 4
f 8 11 12
f 1 6 5
f 8 12 13
f 1 7 6
f 8 13 14
o branch_0
v 0.15357782659842756 0.6222865626355348 1.9596636929597233
v 0.2668791015271642 0.5827540304686872 1.9596636929597233
v 0.2670119942697748 0.5831349045574759 2.079663014934672
v 0.15371071934103814 0.6226674367243235 2.079663014934672
v -0.2670119942697748 -0.5831349045574759 1.96395544335678
v -0.15371071934103814 -0.6226674367243235 1.96395544335678
v -0.15357782659842756 -0.6222865626355348 2.083954765331729
v -0.2668791015271642 -0.5827540304686872 2.083954765331729
usemtl folTrunk
f 15 17 16
f 15 18 17
f 19 20 21
f 19 21 22
f 15 16 20
f 15 20 19
f 16 17 21
f 16 21 20
f 17 18 22
f 17 22 21
f 18 15 19
f 18 19 22
o branch_1
v -0.8082014128230577 -0.26661454013974595 2.2400441218677565
v -0.8376671378002465 -0.15028839926174437 2.2400441218677565
v -0.8218563512309623 -0.14628348441451197 2.3589305369248477
v -0.7923906262537735 -0.2626096252925135 2.3589305369248477
v 0.8218563512309623 0.14628348441451197 2.0093523576420242
v 0.7923906262537735 0.2626096252925135 2.0093523576420242
v 0.8082014128230577 0.26661454013974595 2.1282387726991154
v 0.8376671378002465 0.15028839926174437 2.1282387726991154
usemtl folTrunk
f 23 25 24
f 23 26 25
f 27 28 29
f 27 29 30
f 23 24 28
f 23 28 27
f 24 25 29
f 24 29 28
f 25 26 30
f 25 30 29
f 26 23 27
f 26 27 30
o branch_2
v 0.16605225668962115 -0.6619457016261661 3.0553711373913672
v 0.04754229566556619 -0.6807974691315479 3.0553711373913672
v 0.049042766895639946 -0.6902300481691894 3.174990429475823
v 0.16755272791969492 -0.6713782806638076 3.174990429475823
v -0.049042766895639946 0.6902300481691894 3.1646950457632332
v -0.16755272791969492 0.6713782806638076 3.1646950457632332
v -0.16605225668962115 0.6619457016261661 3.284314337847689
v -0.04754229566556619 0.6807974691315479 3.284314337847689
usemtl folTrunk
f 31 33 32
f 31 34 33
f 35 36 37
f 35 37 38
f 31 32 36
f 31 36 35
f 32 33 37
f 32 37 36
f 33 34 38
f 33 38 37
f 34 31 35
f 34 35 38
o branch_3
v 0.7045291568416624 0.06821733133092668 2.910760905941905
v 0.705927996827029 -0.05177451525331145 2.910760905941905
v 0.7245082512463369 -0.051557910512573794 3.0293135407844085
v 0.7231094112609703 0.06843393607166433 3.0293135407844085
v -0.7245082512463369 0.051557910512573794 3.1347583494554083
v -0.7231094112609703 -0.06843393607166433 3.1347583494554083
v -0.7045291568416624 -0.06821733133092668 3.253310984297912
v -0.705927996827029 0.05177451525331145 3.253310984297912
usemtl folTrunk
f 39 41 40
f 39 42 41
f 43 44 45
f 43 45 46
f 39 40 44
f 39 44 43
f 40 41 45
f 40 45 44
f 41 42 46
f 41 46 45
f 42 39 43
f 42 43 46
o crown_0
v 1.6296876977348465 0.0813767803023418 4.012459252013358
v -0.6389520899242026 0.0813767803023418 4.012459252013358
v 0.49536780390532187 1.2156966741318662 4.012459252013358
v 0.49536780390532187 -1.0529431135271827 4.012459252013358
v 0.49536780390532187 0.0813767803023418 5.0444698525857525
v 0.49536780390532187 0.0813767803023418 2.9804486514409643
usemtl folLeaf2
f 47 49 51
f 49 48 51
f 48 50 51
f 50 47 51
f 49 47 52
f 48 49 52
f 50 48 52
f 47 50 52
o crown_1
v 1.4224562005391894 0.751055716545717 4.025803031616378
v -0.887411904216689 0.751055716545717 4.025803031616378
v 0.26752214816125025 1.9059897689236562 4.025803031616378
v 0.26752214816125025 -0.4038783358322222 4.025803031616378
v 0.26752214816125025 0.751055716545717 4.9305049519108985
v 0.26752214816125025 0.751055716545717 3.121101111321857
usemtl folLeaf
f 53 55 57
f 55 54 57
f 54 56 57
f 56 53 57
f 55 53 58
f 54 55 58
f 56 54 58
f 53 56 58
o crown_2
v 0.4640687141198401 0.5462834679951791 3.5756908408016894
v -1.5022499042000885 0.5462834679951791 3.5756908408016894
v -0.5190905950401242 1.5294427771551433 3.5756908408016894
v -0.5190905950401242 -0.4368758411647852 3.5756908408016894
v -0.5190905950401242 0.5462834679951791 4.404388234118658
v -0.5190905950401242 0.5462834679951791 2.7469934474847206
usemtl folLeafDark
f 59 61 63
f 61 60 63
f 60 62 63
f 62 59 63
f 61 59 64
f 60 61 64
f 62 60 64
f 59 62 64
o crown_3
v 0.8357767800184661 -0.22573327734779922 3.609348613938782
v -1.6578190561068482 -0.22573327734779922 3.609348613938782
v -0.411021138044191 1.021064640714858 3.609348613938782
v -0.411021138044191 -1.4725311954104563 3.609348613938782
v -0.411021138044191 -0.22573327734779922 4.823592023546462
v -0.411021138044191 -0.22573327734779922 2.3951052043311014
usemtl folLeaf2
f 65 67 69
f 67 66 69
f 66 68 69
f 68 65 69
f 67 65 70
f 66 67 70
f 68 66 70
f 65 68 70
o crown_4
v 1.1437332379649472 -0.6606050623103998 3.6346685692132445
v -0.9544863720406698 -0.6606050623103998 3.6346685692132445
v 0.09462343296213872 0.38850474269240864 3.6346685692132445
v 0.09462343296213872 -1.7097148673132083 3.6346685692132445
v 0.09462343296213872 -0.6606050623103998 4.688723559524643
v 0.09462343296213872 -0.6606050623103998 2.580613578901846
usemtl folLeafDark
f 71 73 75
f 73 72 75
f 72 74 75
f 74 71 75
f 73 71 76
f 72 73 76
f 74 72 76
f 71 74 76
o crownTop
v 1.1025 0 4.550984975541476
v -1.1025 0 4.550984975541476
v 0 1.1025 4.550984975541476
v 0 -1.1025 4.550984975541476
v 0 0 5.495984975541476
v 0 0 3.6059849755414755
usemtl folLeaf2
f 77 79 81
f 79 78 81
f 78 80 81
f 80 77 81
f 79 77 82
f 78 79 82
f 80 78 82
f 77 80 82
