mtllib worldforge_building_81234.mtl
# WorldForge 0.2.0
# building seed 81234
o foundation
v -3.54 -2.5900000000000003 0
v 3.54 -2.5900000000000003 0
v 3.54 2.5900000000000003 0
v -3.54 2.5900000000000003 0
v -3.54 -2.5900000000000003 0.42
v 3.54 -2.5900000000000003 0.42
v 3.54 2.5900000000000003 0.42
v -3.54 2.5900000000000003 0.42
usemtl stone
f 1 3 2
f 1 4 3
f 5 6 7
f 5 7 8
f 1 2 6
f 1 6 5
f 2 3 7
f 2 7 6
f 3 4 8
f 3 8 7
f 4 1 5
f 4 5 8
o walls
v -3.4 -2.45 0.41999999999999993
v 3.4 -2.45 0.41999999999999993
v 3.4 2.45 0.41999999999999993
v -3.4 2.45 0.41999999999999993
v -3.4 -2.45 5.32
v 3.4 -2.45 5.32
v 3.4 2.45 5.32
v -3.4 2.45 5.32
usemtl wall
f 9 11 10
f 9 12 11
f 13 14 15
f 13 15 16
f 9 10 14
f 9 14 13
f 10 11 15
f 10 15 14
f 11 12 16
f 11 16 15
f 12 9 13
f 12 13 16
o rightWallTone
v 3.4004999999999996 -2.41 0.45999999999999996
v 3.4354999999999998 -2.41 0.45999999999999996
v 3.4354999999999998 2.41 0.45999999999999996
v 3.4004999999999996 2.41 0.45999999999999996
v 3.4004999999999996 -2.41 5.28
v 3.4354999999999998 -2.41 5.28
v 3.4354999999999998 2.41 5.28
v 3.4004999999999996 2.41 5.28
usemtl wallDark
f 17 19 18
f 17 20 19
f 21 22 23
f 21 23 24
f 17 18 22
f 17 22 21
f 18 19 23
f 18 23 22
f 19 20 24
f 19 24 23
f 20 17 21
f 20 21 24
o frontPost_-3.05
v -3.125 -2.54 0.45999999999999996
v -2.9749999999999996 -2.54 0.45999999999999996
v -2.9749999999999996 -2.45 0.45999999999999996
v -3.125 -2.45 0.45999999999999996
v -3.125 -2.54 5.28
v -2.9749999999999996 -2.54 5.28
v -2.9749999999999996 -2.45 5.28
v -3.125 -2.45 5.28
usemtl timber
f 25 27 26
f 25 28 27
f 29 30 31
f 29 31 32
f 25 26 30
f 25 30 29
f 26 27 31
f 26 31 30
f 27 28 32
f 27 32 31
f 28 25 29
f 28 29 32
o frontPost_-1.35
v -1.4249999999999998 -2.54 0.45999999999999996
v -1.275 -2.54 0.45999999999999996
v -1.275 -2.45 0.45999999999999996
v -1.4249999999999998 -2.45 0.45999999999999996
v -1.4249999999999998 -2.54 5.28
v -1.275 -2.54 5.28
v -1.275 -2.45 5.28
v -1.4249999999999998 -2.45 5.28
usemtl timber
f 33 35 34
f 33 36 35
f 37 38 39
f 37 39 40
f 33 34 38
f 33 38 37
f 34 35 39
f 34 39 38
f 35 36 40
f 35 40 39
f 36 33 37
f 36 37 40
o frontPost_0.35
v 0.2750000000000001 -2.54 0.45999999999999996
v 0.4250000000000001 -2.54 0.45999999999999996
v 0.4250000000000001 -2.45 0.45999999999999996
v 0.2750000000000001 -2.45 0.45999999999999996
v 0.2750000000000001 -2.54 5.28
v 0.4250000000000001 -2.54 5.28
v 0.4250000000000001 -2.45 5.28
v 0.2750000000000001 -2.45 5.28
usemtl timber
f 41 43 42
f 41 44 43
f 45 46 47
f 45 47 48
f 41 42 46
f 41 46 45
f 42 43 47
f 42 47 46
f 43 44 48
f 43 48 47
f 44 41 45
f 44 45 48
o frontPost_2.05
v 1.9749999999999999 -2.54 0.45999999999999996
v 2.125 -2.54 0.45999999999999996
v 2.125 -2.45 0.45999999999999996
v 1.9749999999999999 -2.45 0.45999999999999996
v 1.9749999999999999 -2.54 5.28
v 2.125 -2.54 5.28
v 2.125 -2.45 5.28
v 1.9749999999999999 -2.45 5.28
usemtl timber
f 49 51 50
f 49 52 51
f 53 54 55
f 53 55 56
f 49 50 54
f 49 54 53
f 50 51 55
f 50 55 54
f 51 52 56
f 51 56 55
f 52 49 53
f 52 53 56
o frontBeam_1
v -3.34 -2.54 2.6149999999999998
v 3.34 -2.54 2.6149999999999998
v 3.34 -2.45 2.6149999999999998
v -3.34 -2.45 2.6149999999999998
v -3.34 -2.54 2.765
v 3.34 -2.54 2.765
v 3.34 -2.45 2.765
v -3.34 -2.45 2.765
usemtl timber
f 57 59 58
f 57 60 59
f 61 62 63
f 61 63 64
f 57 58 62
f 57 62 61
f 58 59 63
f 58 63 62
f 59 60 64
f 59 64 63
f 60 57 61
f 60 61 64
o frontBeam_2
v -3.34 -2.54 5.065
v 3.34 -2.54 5.065
v 3.34 -2.45 5.065
v -3.34 -2.45 5.065
v -3.34 -2.54 5.215000000000001
v 3.34 -2.54 5.215000000000001
v 3.34 -2.45 5.215000000000001
v -3.34 -2.45 5.215000000000001
usemtl timber
f 65 67 66
f 65 68 67
f 69 70 71
f 69 71 72
f 65 66 70
f 65 70 69
f 66 67 71
f 66 71 70
f 67 68 72
f 67 72 71
f 68 65 69
f 68 69 72
o mainRoof
v -3.675 -2.7750000000000004 5.300000000000001
v 3.675 -2.7750000000000004 5.300000000000001
v -3.675 2.7750000000000004 5.300000000000001
v 3.675 2.7750000000000004 5.300000000000001
v -3.675 0 7.887729364032012
v 3.675 0 7.887729364032012
usemtl roof
f 73 74 78
f 73 78 77
f 75 77 78
f 75 78 76
f 73 77 75
f 74 76 78
o door
v -0.9005741394385696 -2.5450000000000004 0.42499999999999993
v 0.049425860561430446 -2.5450000000000004 0.42499999999999993
v 0.049425860561430446 -2.4650000000000003 0.42499999999999993
v -0.9005741394385696 -2.4650000000000003 0.42499999999999993
v -0.9005741394385696 -2.5450000000000004 2.375
v 0.049425860561430446 -2.5450000000000004 2.375
v 0.049425860561430446 -2.4650000000000003 2.375
v -0.9005741394385696 -2.4650000000000003 2.375
usemtl trim
f 79 81 80
f 79 82 81
f 83 84 85
f 83 85 86
f 79 80 84
f 79 84 83
f 80 81 85
f 80 85 84
f 81 82 86
f 81 86 85
f 82 79 83
f 82 83 86
o window_0
v -2.887311331534944 -2.54 1.6028799652609043
v -2.3126886684650554 -2.54 1.6028799652609043
v -2.3126886684650554 -2.4800000000000004 1.6028799652609043
v -2.887311331534944 -2.4800000000000004 1.6028799652609043
v -2.887311331534944 -2.54 2.3371200347390957
v -2.3126886684650554 -2.54 2.3371200347390957
v -2.3126886684650554 -2.4800000000000004 2.3371200347390957
v -2.887311331534944 -2.4800000000000004 2.3371200347390957
usemtl glass
f 87 89 88
f 87 90 89
f 91 92 93
f 91 93 94
f 87 88 92
f 87 92 91
f 88 89 93
f 88 93 92
f 89 90 94
f 89 94 93
f 90 87 91
f 90 91 94
o sill_0
v -2.9511582940982652 -2.6100000000000003 1.4970138730179985
v -2.248841705901734 -2.6100000000000003 1.4970138730179985
v -2.248841705901734 -2.4800000000000004 1.4970138730179985
v -2.9511582940982652 -2.4800000000000004 1.4970138730179985
v -2.9511582940982652 -2.6100000000000003 1.5970138730179986
v -2.248841705901734 -2.6100000000000003 1.5970138730179986
v -2.248841705901734 -2.4800000000000004 1.5970138730179986
v -2.9511582940982652 -2.4800000000000004 1.5970138730179986
usemtl stoneLight
f 95 97 96
f 95 98 97
f 99 100 101
f 99 101 102
f 95 96 100
f 95 100 99
f 96 97 101
f 96 101 100
f 97 98 102
f 97 102 101
f 98 95 99
f 98 99 102
o window_1
v 2.317861491073761 -2.54 1.6094896830386949
v 2.8821385089262384 -2.54 1.6094896830386949
v 2.8821385089262384 -2.4800000000000004 1.6094896830386949
v 2.317861491073761 -2.4800000000000004 1.6094896830386949
v 2.317861491073761 -2.54 2.330510316961305
v 2.8821385089262384 -2.54 2.330510316961305
v 2.8821385089262384 -2.4800000000000004 2.330510316961305
v 2.317861491073761 -2.4800000000000004 2.330510316961305
usemtl glass
f 103 105 104
f 103 106 105
f 107 108 109
f 107 109 110
f 103 104 108
f 103 108 107
f 104 105 109
f 104 109 108
f 105 106 110
f 105 110 109
f 106 103 107
f 106 107 110
o sill_1
v 2.2551640446457077 -2.6100000000000003 1.5046294174141484
v 2.9448359553542915 -2.6100000000000003 1.5046294174141484
v 2.9448359553542915 -2.4800000000000004 1.5046294174141484
v 2.2551640446457077 -2.4800000000000004 1.5046294174141484
v 2.2551640446457077 -2.6100000000000003 1.6046294174141484
v 2.9448359553542915 -2.6100000000000003 1.6046294174141484
v 2.9448359553542915 -2.4800000000000004 1.6046294174141484
v 2.2551640446457077 -2.4800000000000004 1.6046294174141484
usemtl stoneLight
f 111 113 112
f 111 114 113
f 115 116 117
f 115 117 118
f 111 112 116
f 111 116 115
f 112 113 117
f 112 117 116
f 113 114 118
f 113 118 117
f 114 111 115
f 114 115 118
o window_2
v -2.902333801556844 -2.54 4.033684586899588
v -2.2976661984431552 -2.54 4.033684586899588
v -2.2976661984431552 -2.4800000000000004 4.033684586899588
v -2.902333801556844 -2.4800000000000004 4.033684586899588
v -2.902333801556844 -2.54 4.806315413100412
v -2.2976661984431552 -2.54 4.806315413100412
v -2.2976661984431552 -2.4800000000000004 4.806315413100412
v -2.902333801556844 -2.4800000000000004 4.806315413100412
usemtl glass
f 119 121 120
f 119 122 121
f 123 124 125
f 123 125 126
f 119 120 124
f 119 124 123
f 120 121 125
f 120 125 124
f 121 122 126
f 121 126 125
f 122 119 123
f 122 123 126
o sill_2
v -2.969519090791698 -2.6100000000000003 3.9248974588190904
v -2.230480909208301 -2.6100000000000003 3.9248974588190904
v -2.230480909208301 -2.4800000000000004 3.9248974588190904
v -2.969519090791698 -2.4800000000000004 3.9248974588190904
v -2.969519090791698 -2.6100000000000003 4.0248974588190904
v -2.230480909208301 -2.6100000000000003 4.0248974588190904
v -2.230480909208301 -2.4800000000000004 4.0248974588190904
v -2.969519090791698 -2.4800000000000004 4.0248974588190904
usemtl stoneLight
f 127 129 128
f 127 130 129
f 131 132 133
f 131 133 134
f 127 128 132
f 127 132 131
f 128 129 133
f 128 133 132
f 129 130 134
f 129 134 133
f 130 127 131
f 130 131 134
o window_3
v -0.3108108359573409 -2.54 4.022852820721176
v 0.3108108359573409 -2.54 4.022852820721176
v 0.3108108359573409 -2.4800000000000004 4.022852820721176
v -0.3108108359573409 -2.4800000000000004 4.022852820721176
v -0.3108108359573409 -2.54 4.817147179278824
v 0.3108108359573409 -2.54 4.817147179278824
v 0.3108108359573409 -2.4800000000000004 4.817147179278824
v -0.3108108359573409 -2.4800000000000004 4.817147179278824
usemtl glass
f 135 137 136
f 135 138 137
f 139 140 141
f 139 141 142
f 135 136 140
f 135 140 139
f 136 137 141
f 136 141 140
f 137 138 142
f 137 142 141
f 138 135 139
f 138 139 142
o sill_3
v -0.37987991061452775 -2.6100000000000003 3.9124173803961373
v 0.37987991061452775 -2.6100000000000003 3.9124173803961373
v 0.37987991061452775 -2.4800000000000004 3.9124173803961373
v -0.37987991061452775 -2.4800000000000004 3.9124173803961373
v -0.37987991061452775 -2.6100000000000003 4.012417380396137
v 0.37987991061452775 -2.6100000000000003 4.012417380396137
v 0.37987991061452775 -2.4800000000000004 4.012417380396137
v -0.37987991061452775 -2.4800000000000004 4.012417380396137
usemtl stoneLight
f 143 145 144
f 143 146 145
f 147 148 149
f 147 149 150
f 143 144 148
f 143 148 147
f 144 145 149
f 144 149 148
f 145 146 150
f 145 150 149
f 146 143 147
f 146 147 150
o window_4
v 2.286010265353601 -2.54 4.0187908946184905
v 2.9139897346463983 -2.54 4.0187908946184905
v 2.9139897346463983 -2.4800000000000004 4.0187908946184905
v 2.286010265353601 -2.4800000000000004 4.0187908946184905
v 2.286010265353601 -2.54 4.821209105381509
v 2.9139897346463983 -2.54 4.821209105381509
v 2.9139897346463983 -2.4800000000000004 4.821209105381509
v 2.286010265353601 -2.4800000000000004 4.821209105381509
usemtl glass
f 151 153 152
f 151 154 153
f 155 156 157
f 155 157 158
f 151 152 156
f 151 156 155
f 152 153 157
f 152 157 156
f 153 154 158
f 153 158 157
f 154 151 155
f 154 155 158
o sill_4
v 2.2162347687655126 -2.6100000000000003 3.9077373351039135
v 2.9837652312344867 -2.6100000000000003 3.9077373351039135
v 2.9837652312344867 -2.4800000000000004 3.9077373351039135
v 2.2162347687655126 -2.4800000000000004 3.9077373351039135
v 2.2162347687655126 -2.6100000000000003 4.007737335103913
v 2.9837652312344867 -2.6100000000000003 4.007737335103913
v 2.9837652312344867 -2.4800000000000004 4.007737335103913
v 2.2162347687655126 -2.4800000000000004 4.007737335103913
usemtl stoneLight
f 159 161 160
f 159 162 161
f 163 164 165
f 163 165 166
f 159 160 164
f 159 164 163
f 160 161 165
f 160 165 164
f 161 162 166
f 161 166 165
f 162 159 163
f 162 163 166
o window_5
v 3.43 -1.9880000000000002 1.5519999999999998
v 3.4899999999999998 -1.9880000000000002 1.5519999999999998
v 3.4899999999999998 -1.4120000000000001 1.5519999999999998
v 3.43 -1.4120000000000001 1.5519999999999998
v 3.43 -1.9880000000000002 2.288
v 3.4899999999999998 -1.9880000000000002 2.288
v 3.4899999999999998 -1.4120000000000001 2.288
v 3.43 -1.4120000000000001 2.288
usemtl glass
f 167 169 168
f 167 170 169
f 171 172 173
f 171 173 174
f 167 168 172
f 167 172 171
f 168 169 173
f 168 173 172
f 169 170 174
f 169 174 173
f 170 167 171
f 170 171 174
o sill_5
v 3.43 -2.052 1.446
v 3.56 -2.052 1.446
v 3.56 -1.348 1.446
v 3.43 -1.348 1.446
v 3.43 -2.052 1.546
v 3.56 -2.052 1.546
v 3.56 -1.348 1.546
v 3.43 -1.348 1.546
usemtl stoneLight
f 175 177 176
f 175 178 177
f 179 180 181
f 179 181 182
f 175 176 180
f 175 180 179
f 176 177 181
f 176 181 180
f 177 178 182
f 177 182 181
f 178 175 179
f 178 179 182
o window_6
v 3.43 -0.4380000000000001 1.5519999999999998
v 3.4899999999999998 -0.4380000000000001 1.5519999999999998
v 3.4899999999999998 0.13799999999999985 1.5519999999999998
v 3.43 0.13799999999999985 1.5519999999999998
v 3.43 -0.4380000000000001 2.288
v 3.4899999999999998 -0.4380000000000001 2.288
v 3.4899999999999998 0.13799999999999985 2.288
v 3.43 0.13799999999999985 2.288
usemtl glass
f 183 185 184
f 183 186 185
f 187 188 189
f 187 189 190
f 183 184 188
f 183 188 187
f 184 185 189
f 184 189 188
f 185 186 190
f 185 190 189
f 186 183 187
f 186 187 190
o sill_6
v 3.43 -0.5020000000000002 1.446
v 3.56 -0.5020000000000002 1.446
v 3.56 0.2019999999999999 1.446
v 3.43 0.2019999999999999 1.446
v 3.43 -0.5020000000000002 1.546
v 3.56 -0.5020000000000002 1.546
v 3.56 0.2019999999999999 1.546
v 3.43 0.2019999999999999 1.546
usemtl stoneLight
f 191 193 192
f 191 194 193
f 195 196 197
f 195 197 198
f 191 192 196
f 191 196 195
f 192 193 197
f 192 197 196
f 193 194 198
f 193 198 197
f 194 191 195
f 194 195 198
o window_7
v 3.43 1.1119999999999999 1.5519999999999998
v 3.4899999999999998 1.1119999999999999 1.5519999999999998
v 3.4899999999999998 1.688 1.5519999999999998
v 3.43 1.688 1.5519999999999998
v 3.43 1.1119999999999999 2.288
v 3.4899999999999998 1.1119999999999999 2.288
v 3.4899999999999998 1.688 2.288
v 3.43 1.688 2.288
usemtl glass
f 199 201 200
f 199 202 201
f 203 204 205
f 203 205 206
f 199 200 204
f 199 204 203
f 200 201 205
f 200 205 204
f 201 202 206
f 201 206 205
f 202 199 203
f 202 203 206
o sill_7
v 3.43 1.0479999999999998 1.446
v 3.56 1.0479999999999998 1.446
v 3.56 1.752 1.446
v 3.43 1.752 1.446
v 3.43 1.0479999999999998 1.546
v 3.56 1.0479999999999998 1.546
v 3.56 1.752 1.546
v 3.43 1.752 1.546
usemtl stoneLight
f 207 209 208
f 207 210 209
f 211 212 213
f 211 213 214
f 207 208 212
f 207 212 211
f 208 209 213
f 208 213 212
f 209 210 214
f 209 214 213
f 210 207 211
f 210 211 214
o window_8
v 3.43 -1.9880000000000002 4.002
v 3.4899999999999998 -1.9880000000000002 4.002
v 3.4899999999999998 -1.4120000000000001 4.002
v 3.43 -1.4120000000000001 4.002
v 3.43 -1.9880000000000002 4.738
v 3.4899999999999998 -1.9880000000000002 4.738
v 3.4899999999999998 -1.4120000000000001 4.738
v 3.43 -1.4120000000000001 4.738
usemtl glass
f 215 217 216
f 215 218 217
f 219 220 221
f 219 221 222
f 215 216 220
f 215 220 219
f 216 217 221
f 216 221 220
f 217 218 222
f 217 222 221
f 218 215 219
f 218 219 222
o sill_8
v 3.43 -2.052 3.8960000000000004
v 3.56 -2.052 3.8960000000000004
v 3.56 -1.348 3.8960000000000004
v 3.43 -1.348 3.8960000000000004
v 3.43 -2.052 3.996
v 3.56 -2.052 3.996
v 3.56 -1.348 3.996
v 3.43 -1.348 3.996
usemtl stoneLight
f 223 225 224
f 223 226 225
f 227 228 229
f 227 229 230
f 223 224 228
f 223 228 227
f 224 225 229
f 224 229 228
f 225 226 230
f 225 230 229
f 226 223 227
f 226 227 230
o window_9
v 3.43 -0.4380000000000001 4.002
v 3.4899999999999998 -0.4380000000000001 4.002
v 3.4899999999999998 0.13799999999999985 4.002
v 3.43 0.13799999999999985 4.002
v 3.43 -0.4380000000000001 4.738
v 3.4899999999999998 -0.4380000000000001 4.738
v 3.4899999999999998 0.13799999999999985 4.738
v 3.43 0.13799999999999985 4.738
usemtl glass
f 231 233 232
f 231 234 233
f 235 236 237
f 235 237 238
f 231 232 236
f 231 236 235
f 232 233 237
f 232 237 236
f 233 234 238
f 233 238 237
f 234 231 235
f 234 235 238
o sill_9
v 3.43 -0.5020000000000002 3.8960000000000004
v 3.56 -0.5020000000000002 3.8960000000000004
v 3.56 0.2019999999999999 3.8960000000000004
v 3.43 0.2019999999999999 3.8960000000000004
v 3.43 -0.5020000000000002 3.996
v 3.56 -0.5020000000000002 3.996
v 3.56 0.2019999999999999 3.996
v 3.43 0.2019999999999999 3.996
usemtl stoneLight
f 239 241 240
f 239 242 241
f 243 244 245
f 243 245 246
f 239 240 244
f 239 244 243
f 240 241 245
f 240 245 244
f 241 242 246
f 241 246 245
f 242 239 243
f 242 243 246
o window_10
v 3.43 1.1119999999999999 4.002
v 3.4899999999999998 1.1119999999999999 4.002
v 3.4899999999999998 1.688 4.002
v 3.43 1.688 4.002
v 3.43 1.1119999999999999 4.738
v 3.4899999999999998 1.1119999999999999 4.738
v 3.4899999999999998 1.688 4.738
v 3.43 1.688 4.738
usemtl glass
f 247 249 248
f 247 250 249
f 251 252 253
f 251 253 254
f 247 248 252
f 247 252 251
f 248 249 253
f 248 253 252
f 249 250 254
f 249 254 253
f 250 247 251
f 250 251 254
o sill_10
v 3.43 1.0479999999999998 3.8960000000000004
v 3.56 1.0479999999999998 3.8960000000000004
v 3.56 1.752 3.8960000000000004
v 3.43 1.752 3.8960000000000004
v 3.43 1.0479999999999998 3.996
v 3.56 1.0479999999999998 3.996
v 3.56 1.752 3.996
v 3.43 1.752 3.996
usemtl stoneLight
f 255 257 256
f 255 258 257
f 259 260 261
f 259 261 262
f 255 256 260
f 255 260 259
f 256 257 261
f 256 261 260
f 257 258 262
f 257 262 261
f 258 255 259
f 258 259 262
o chimney
v 1.221 0.27799999999999997 5.550000000000001
v 1.771 0.27799999999999997 5.550000000000001
v 1.771 0.8979999999999999 5.550000000000001
v 1.221 0.8979999999999999 5.550000000000001
v 1.221 0.27799999999999997 7.350000000000001
v 1.771 0.27799999999999997 7.350000000000001
v 1.771 0.8979999999999999 7.350000000000001
v 1.221 0.8979999999999999 7.350000000000001
usemtl stone
f 263 265 264
f 263 266 265
f 267 268 269
f 267 269 270
f 263 264 268
f 263 268 267
f 264 265 269
f 264 269 268
f 265 266 270
f 265 270 269
f 266 263 267
f 266 267 270
o chimneyCap
v 1.1360000000000001 0.19799999999999995 7.260000000000001
v 1.8559999999999999 0.19799999999999995 7.260000000000001
v 1.8559999999999999 0.978 7.260000000000001
v 1.1360000000000001 0.978 7.260000000000001
v 1.1360000000000001 0.19799999999999995 7.420000000000001
v 1.8559999999999999 0.19799999999999995 7.420000000000001
v 1.8559999999999999 0.978 7.420000000000001
v 1.1360000000000001 0.978 7.420000000000001
usemtl stoneLight
f 271 273 272
f 271 274 273
f 275 276 277
f 275 277 278
f 271 272 276
f 271 276 275
f 272 273 277
f 272 277 276
f 273 274 278
f 273 278 277
f 274 271 275
f 274 275 278
o porchDeck
v -1.5005741394385694 -3.5050000000000003 0.43000000000000005
v 0.6494258605614305 -3.5050000000000003 0.43000000000000005
v 0.6494258605614305 -2.555 0.43000000000000005
v -1.5005741394385694 -2.555 0.43000000000000005
v -1.5005741394385694 -3.5050000000000003 0.61
v 0.6494258605614305 -3.5050000000000003 0.61
v 0.6494258605614305 -2.555 0.61
v -1.5005741394385694 -2.555 0.61
usemtl stoneLight
f 279 281 280
f 279 282 281
f 283 284 285
f 283 285 286
f 279 280 284
f 279 284 283
f 280 281 285
f 280 285 284
f 281 282 286
f 281 286 285
f 282 279 283
f 282 283 286
o porchPost_-1.28
v -1.3355741394385696 -3.2900000000000005 0.4950000000000001
v -1.2155741394385695 -3.2900000000000005 0.4950000000000001
v -1.2155741394385695 -3.1700000000000004 0.4950000000000001
v -1.3355741394385696 -3.1700000000000004 0.4950000000000001
v -1.3355741394385696 -3.2900000000000005 2.145
v -1.2155741394385695 -3.2900000000000005 2.145
v -1.2155741394385695 -3.1700000000000004 2.145
v -1.3355741394385696 -3.1700000000000004 2.145
usemtl timber
f 287 289 288
f 287 290 289
f 291 292 293
f 291 293 294
f 287 288 292
f 287 292 291
f 288 289 293
f 288 293 292
f 289 290 294
f 289 294 293
f 290 287 291
f 290 291 294
o porchPost_0.42
v 0.36442586056143045 -3.2900000000000005 0.4950000000000001
v 0.48442586056143044 -3.2900000000000005 0.4950000000000001
v 0.48442586056143044 -3.1700000000000004 0.4950000000000001
v 0.36442586056143045 -3.1700000000000004 0.4950000000000001
v 0.36442586056143045 -3.2900000000000005 2.145
v 0.48442586056143044 -3.2900000000000005 2.145
v 0.48442586056143044 -3.1700000000000004 2.145
v 0.36442586056143045 -3.1700000000000004 2.145
usemtl timber
f 295 297 296
f 295 298 297
f 299 300 301
f 299 301 302
f 295 296 300
f 295 300 299
f 296 297 301
f 296 301 300
f 297 298 302
f 297 302 301
f 298 295 299
f 298 299 302
o porchRoof
v -1.5005741394385694 -3.6050000000000004 2.62
v 0.6494258605614305 -3.6050000000000004 2.62
v -1.5005741394385694 -2.455 2.62
v 0.6494258605614305 -2.455 2.62
v -1.5005741394385694 -3.0300000000000002 2.9792998773478634
v 0.6494258605614305 -3.0300000000000002 2.9792998773478634
usemtl roofDark
f 303 304 308
f 303 308 307
f 305 307 308
f 305 308 306
f 303 307 305
f 304 306 308
o extension
v 3.395 -0.7250000000000001 0.41999999999999993
v 4.845 -0.7250000000000001 0.41999999999999993
v 4.845 1.625 0.41999999999999993
v 3.395 1.625 0.41999999999999993
v 3.395 -0.7250000000000001 2.02
v 4.845 -0.7250000000000001 2.02
v 4.845 1.625 2.02
v 3.395 1.625 2.02
usemtl wall
f 309 311 310
f 309 312 311
f 313 314 315
f 313 315 316
f 309 310 314
f 309 314 313
f 310 311 315
f 310 315 314
f 311 312 316
f 311 316 315
f 312 309 313
f 312 313 316
o extensionRoof
v 3.27 -0.8500000000000001 2
v 4.97 -0.8500000000000001 2
v 3.27 1.75 2
v 4.97 1.75 2
v 3.27 0.45 2.910269799672623
v 4.97 0.45 2.910269799672623
usemtl roofDark
f 317 318 322
f 317 322 321
f 319 321 322
f 319 322 320
f 317 321 319
f 318 320 322
o crate_0
v 4.253962266821708 -1.7138032017298979 0.14655702334965298
v 4.484810889261805 -1.7138032017298979 -0.06457041492050877
v 4.484810889261805 -1.4009679708606566 -0.06457041492050877
v 4.253962266821708 -1.4009679708606566 0.14655702334965298
v 4.46508970509187 -1.7138032017298979 0.3774056457897499
v 4.695938327531967 -1.7138032017298979 0.1662782075195881
v 4.695938327531967 -1.4009679708606566 0.1662782075195881
v 4.46508970509187 -1.4009679708606566 0.3774056457897499
usemtl timber
f 323 325 324
f 323 326 325
f 327 328 329
f 327 329 330
f 323 324 328
f 323 328 327
f 324 325 329
f 324 329 328
f 325 326 330
f 325 330 329
f 326 323 327
f 326 327 330
o crate_1
v 3.763402577464472 -1.0210509105725214 0.0788570280890779
v 3.988525337483188 -1.0210509105725214 -0.046370962925251974
v 3.988525337483188 -0.7634420853899793 -0.046370962925251974
v 3.763402577464472 -0.7634420853899793 0.0788570280890779
v 3.888630568478802 -1.0210509105725214 0.30397978810779414
v 4.113753328497518 -1.0210509105725214 0.17875179709346428
v 4.113753328497518 -0.7634420853899793 0.17875179709346428
v 3.888630568478802 -0.7634420853899793 0.30397978810779414
usemtl timber
f 331 333 332
f 331 334 333
f 335 336 337
f 335 337 338
f 331 332 336
f 331 336 335
f 332 333 337
f 332 337 336
f 333 334 338
f 333 338 337
f 334 331 335
f 334 335 338
